<?xml version="1.0" encoding="utf-8"?>
<!-- Generator: Adobe Illustrator 19.0.0, SVG Export Plug-In . SVG Version: 6.00 Build 0)  -->
<svg version="1.1" xmlns="http://www.w3.org/2000/svg" xmlns:xlink="http://www.w3.org/1999/xlink" x="0px" y="0px"
	 viewBox="0 0 203 196" style="enable-background:new 0 0 203 196;" xml:space="preserve">
<style type="text/css">
	.st0{display:none;}
	.st1{display:inline;fill:url(#SVGID_1_);}
	.st2{display:inline;}
	.st3{fill:#596A72;}
	.st4{fill:#39B54A;}
	.st5{fill:#323534;}
	.st6{fill:#A5CD39;}
	.st7{fill:#FFFFFF;}
	.st8{fill-rule:evenodd;clip-rule:evenodd;fill:#323534;}
	.st9{fill-rule:evenodd;clip-rule:evenodd;fill:#9CC33B;}
	.st10{fill-rule:evenodd;clip-rule:evenodd;fill:#A5CD39;}
	.st11{fill-rule:evenodd;clip-rule:evenodd;fill:#93BC3D;}
	.st12{fill-rule:evenodd;clip-rule:evenodd;fill:#8FB73C;}
	.st13{fill-rule:evenodd;clip-rule:evenodd;fill:#87B13D;}
	.st14{opacity:0.5;}
	.st15{opacity:0.2;}
	.st16{opacity:0;fill:#FFFFFF;}
	.st17{opacity:4.761905e-002;fill:#F5F5F5;}
	.st18{opacity:9.523810e-002;fill:#EBECEC;}
	.st19{opacity:0.1429;fill:#E2E2E2;}
	.st20{opacity:0.1905;fill:#D8D9D8;}
	.st21{opacity:0.2381;fill:#CECFCF;}
	.st22{opacity:0.2857;fill:#C4C5C5;}
	.st23{opacity:0.3333;fill:#BBBCBB;}
	.st24{opacity:0.381;fill:#B1B2B2;}
	.st25{opacity:0.4286;fill:#A7A8A8;}
	.st26{opacity:0.4762;fill:#9D9F9E;}
	.st27{opacity:0.5238;fill:#949595;}
	.st28{opacity:0.5714;fill:#8A8C8B;}
	.st29{opacity:0.619;fill:#808281;}
	.st30{opacity:0.6667;fill:#767878;}
	.st31{opacity:0.7143;fill:#6D6F6E;}
	.st32{opacity:0.7619;fill:#636564;}
	.st33{opacity:0.8095;fill:#595B5B;}
	.st34{opacity:0.8571;fill:#4F5251;}
	.st35{opacity:0.9048;fill:#464847;}
	.st36{opacity:0.9524;fill:#3C3F3E;}
</style>
<g id="Background" class="st0">
	<radialGradient id="SVGID_1_" cx="78.5888" cy="105.0944" r="694.4823" gradientUnits="userSpaceOnUse">
		<stop  offset="0" style="stop-color:#FFFFFF"/>
		<stop  offset="0.2187" style="stop-color:#F8FAFB;stop-opacity:0.9344"/>
		<stop  offset="0.529" style="stop-color:#E6ECEF;stop-opacity:0.8413"/>
		<stop  offset="0.8923" style="stop-color:#C7D4DB;stop-opacity:0.7323"/>
		<stop  offset="1" style="stop-color:#BDCCD4;stop-opacity:0.7"/>
	</radialGradient>
	<rect x="-309" y="-264" class="st1" width="800" height="800"/>
	<g class="st2">
		<path class="st3" d="M-20.5,509.7v-0.3c-0.3,0.4-0.7,0.7-1,1c-0.3,0.3-0.7,0.4-1.1,0.6c-0.4,0.1-0.8,0.2-1.3,0.2
			c-0.6,0-1.2-0.1-1.7-0.4c-0.5-0.3-1-0.6-1.4-1.1c-0.4-0.5-0.7-1.1-0.9-1.7c-0.2-0.7-0.3-1.4-0.3-2.1c0-1.6,0.4-2.9,1.2-3.8
			c0.8-0.9,1.8-1.4,3.1-1.4c0.7,0,1.4,0.1,1.9,0.4c0.5,0.3,1,0.7,1.5,1.2v-3.8c0-0.5,0.1-0.9,0.3-1.2c0.2-0.3,0.5-0.4,0.9-0.4
			c0.4,0,0.7,0.1,0.9,0.4c0.2,0.3,0.3,0.6,0.3,1.1v11.4c0,0.5-0.1,0.9-0.3,1.1c-0.2,0.2-0.5,0.4-0.9,0.4c-0.4,0-0.6-0.1-0.9-0.4
			C-20.4,510.5-20.5,510.2-20.5,509.7 M-25.6,505.9c0,0.7,0.1,1.3,0.3,1.8c0.2,0.5,0.5,0.9,0.9,1.1c0.4,0.3,0.8,0.4,1.2,0.4
			c0.5,0,0.9-0.1,1.3-0.4c0.4-0.2,0.7-0.6,0.9-1.1c0.2-0.5,0.3-1.1,0.3-1.8c0-0.7-0.1-1.3-0.3-1.8c-0.2-0.5-0.5-0.9-0.9-1.1
			c-0.4-0.3-0.8-0.4-1.3-0.4c-0.5,0-0.9,0.1-1.3,0.4c-0.4,0.3-0.7,0.7-0.9,1.2C-25.5,504.6-25.6,505.2-25.6,505.9"/>
		<path class="st3" d="M-9.1,506.5h-5.1c0,0.6,0.1,1.1,0.4,1.6c0.2,0.5,0.5,0.8,0.9,1c0.4,0.2,0.8,0.3,1.3,0.3c0.3,0,0.6,0,0.9-0.1
			c0.3-0.1,0.5-0.2,0.7-0.3c0.2-0.2,0.5-0.3,0.7-0.5c0.2-0.2,0.5-0.4,0.8-0.7c0.1-0.1,0.3-0.2,0.6-0.2c0.3,0,0.5,0.1,0.6,0.2
			c0.2,0.1,0.2,0.3,0.2,0.6c0,0.2-0.1,0.5-0.3,0.8c-0.2,0.3-0.5,0.6-0.8,0.9c-0.4,0.3-0.8,0.5-1.4,0.7c-0.6,0.2-1.2,0.3-1.9,0.3
			c-1.7,0-3-0.5-3.9-1.4c-0.9-1-1.4-2.2-1.4-3.9c0-0.8,0.1-1.5,0.3-2.1c0.2-0.7,0.6-1.2,1-1.7c0.4-0.5,1-0.8,1.6-1.1
			c0.6-0.3,1.3-0.4,2.1-0.4c1,0,1.9,0.2,2.6,0.6c0.7,0.4,1.3,1,1.6,1.7c0.4,0.7,0.5,1.4,0.5,2.1c0,0.7-0.2,1.1-0.6,1.3
			C-7.9,506.4-8.4,506.5-9.1,506.5 M-14.1,505.1h4.7c-0.1-0.9-0.3-1.6-0.7-2c-0.4-0.4-1-0.7-1.6-0.7c-0.6,0-1.2,0.2-1.6,0.7
			C-13.8,503.5-14.1,504.2-14.1,505.1"/>
		<path class="st3" d="M2.7,507.8c0,0.7-0.2,1.3-0.5,1.8c-0.3,0.5-0.9,0.9-1.5,1.2c-0.7,0.3-1.5,0.4-2.5,0.4c-0.9,0-1.7-0.1-2.4-0.4
			c-0.7-0.3-1.2-0.6-1.5-1.1c-0.3-0.4-0.5-0.9-0.5-1.3c0-0.3,0.1-0.5,0.3-0.7c0.2-0.2,0.5-0.3,0.8-0.3c0.3,0,0.5,0.1,0.6,0.2
			c0.1,0.1,0.3,0.3,0.4,0.6c0.3,0.5,0.6,0.8,1,1c0.4,0.2,0.9,0.3,1.5,0.3c0.5,0,0.9-0.1,1.3-0.3c0.3-0.2,0.5-0.5,0.5-0.8
			c0-0.5-0.2-0.8-0.5-1c-0.3-0.2-0.9-0.4-1.7-0.6c-0.9-0.2-1.6-0.5-2.2-0.7c-0.6-0.2-1-0.6-1.3-1c-0.3-0.4-0.5-0.9-0.5-1.5
			c0-0.5,0.2-1,0.5-1.5c0.3-0.5,0.8-0.8,1.4-1.1c0.6-0.3,1.3-0.4,2.2-0.4c0.7,0,1.3,0.1,1.8,0.2c0.5,0.1,1,0.3,1.3,0.6
			c0.4,0.2,0.6,0.5,0.8,0.8c0.2,0.3,0.3,0.6,0.3,0.8c0,0.3-0.1,0.5-0.3,0.7c-0.2,0.2-0.5,0.3-0.9,0.3c-0.3,0-0.5-0.1-0.7-0.2
			c-0.2-0.2-0.4-0.4-0.6-0.7c-0.2-0.3-0.4-0.5-0.7-0.6c-0.3-0.2-0.6-0.2-1.1-0.2c-0.5,0-0.9,0.1-1.2,0.3c-0.3,0.2-0.5,0.4-0.5,0.7
			c0,0.3,0.1,0.5,0.3,0.7c0.2,0.2,0.5,0.3,0.9,0.4c0.4,0.1,0.9,0.3,1.6,0.4c0.8,0.2,1.5,0.4,2,0.7c0.5,0.3,0.9,0.6,1.2,1
			C2.6,506.9,2.7,507.3,2.7,507.8"/>
		<path class="st3" d="M5.4,499.4c-0.4,0-0.7-0.1-0.9-0.3c-0.3-0.2-0.4-0.5-0.4-0.9c0-0.4,0.1-0.7,0.4-0.9c0.3-0.2,0.6-0.4,0.9-0.4
			c0.3,0,0.6,0.1,0.9,0.3c0.3,0.2,0.4,0.5,0.4,0.9c0,0.4-0.1,0.7-0.4,0.9C6,499.3,5.7,499.4,5.4,499.4 M6.7,502.1v7.5
			c0,0.5-0.1,0.9-0.4,1.2c-0.2,0.3-0.6,0.4-0.9,0.4s-0.7-0.1-0.9-0.4c-0.2-0.3-0.4-0.7-0.4-1.2v-7.4c0-0.5,0.1-0.9,0.4-1.2
			c0.2-0.3,0.5-0.4,0.9-0.4s0.7,0.1,0.9,0.4C6.5,501.3,6.7,501.6,6.7,502.1"/>
		<path class="st3" d="M18,502.5v7.5c0,0.9-0.1,1.6-0.3,2.2c-0.2,0.6-0.5,1.1-0.9,1.5c-0.4,0.4-0.9,0.7-1.6,0.9
			c-0.7,0.2-1.5,0.3-2.4,0.3c-0.9,0-1.7-0.1-2.4-0.4c-0.7-0.3-1.2-0.6-1.6-1c-0.4-0.4-0.6-0.8-0.6-1.2c0-0.3,0.1-0.6,0.3-0.8
			c0.2-0.2,0.5-0.3,0.8-0.3c0.4,0,0.7,0.2,1,0.5c0.1,0.2,0.3,0.3,0.4,0.5s0.3,0.3,0.5,0.4c0.2,0.1,0.4,0.2,0.7,0.3
			c0.3,0.1,0.5,0.1,0.9,0.1c0.7,0,1.2-0.1,1.6-0.3c0.4-0.2,0.6-0.4,0.8-0.8c0.1-0.3,0.2-0.7,0.3-1.1c0-0.4,0-1,0.1-1.8
			c-0.4,0.6-0.9,1-1.4,1.3c-0.5,0.3-1.1,0.4-1.9,0.4c-0.9,0-1.6-0.2-2.3-0.7c-0.6-0.4-1.1-1.1-1.5-1.9c-0.3-0.8-0.5-1.7-0.5-2.8
			c0-0.8,0.1-1.5,0.3-2.1c0.2-0.6,0.5-1.2,0.9-1.6c0.4-0.4,0.8-0.8,1.4-1c0.5-0.2,1.1-0.3,1.7-0.3c0.7,0,1.4,0.1,1.9,0.4
			c0.5,0.3,1,0.7,1.5,1.3v-0.4c0-0.5,0.1-0.8,0.3-1c0.2-0.2,0.5-0.4,0.9-0.4c0.5,0,0.8,0.2,1,0.5C17.9,501.5,18,501.9,18,502.5
			 M10.5,505.8c0,1.1,0.2,1.8,0.7,2.4c0.5,0.5,1.1,0.8,1.8,0.8c0.4,0,0.8-0.1,1.2-0.3c0.4-0.2,0.7-0.6,0.9-1c0.2-0.5,0.4-1,0.4-1.7
			c0-1.1-0.2-1.9-0.7-2.5c-0.5-0.6-1.1-0.9-1.8-0.9c-0.7,0-1.3,0.3-1.8,0.8C10.7,504,10.5,504.8,10.5,505.8"/>
		<path class="st3" d="M22.2,502.1v0.3c0.5-0.6,1-1,1.5-1.3c0.5-0.3,1.2-0.4,1.9-0.4c0.7,0,1.3,0.2,1.8,0.4c0.5,0.3,0.9,0.7,1.2,1.3
			c0.2,0.3,0.3,0.7,0.3,1c0.1,0.4,0.1,0.8,0.1,1.4v4.8c0,0.5-0.1,0.9-0.4,1.2c-0.2,0.3-0.5,0.4-0.9,0.4c-0.4,0-0.7-0.1-0.9-0.4
			c-0.2-0.3-0.4-0.7-0.4-1.2v-4.3c0-0.9-0.1-1.5-0.4-2c-0.2-0.5-0.7-0.7-1.4-0.7c-0.5,0-0.9,0.1-1.3,0.4c-0.4,0.3-0.7,0.7-0.8,1.1
			c-0.1,0.4-0.2,1.1-0.2,2.2v3.2c0,0.5-0.1,0.9-0.4,1.2c-0.2,0.3-0.6,0.4-0.9,0.4c-0.4,0-0.7-0.1-0.9-0.4c-0.2-0.3-0.4-0.7-0.4-1.2
			v-7.5c0-0.5,0.1-0.9,0.3-1.1c0.2-0.2,0.5-0.4,0.9-0.4c0.2,0,0.4,0.1,0.6,0.2c0.2,0.1,0.3,0.3,0.4,0.5
			C22.1,501.5,22.2,501.8,22.2,502.1"/>
		<path class="st3" d="M37.9,506.5h-5.1c0,0.6,0.1,1.1,0.4,1.6c0.2,0.5,0.5,0.8,0.9,1c0.4,0.2,0.8,0.3,1.3,0.3c0.3,0,0.6,0,0.9-0.1
			c0.3-0.1,0.5-0.2,0.7-0.3c0.2-0.2,0.5-0.3,0.7-0.5c0.2-0.2,0.5-0.4,0.8-0.7c0.1-0.1,0.3-0.2,0.6-0.2c0.3,0,0.5,0.1,0.6,0.2
			c0.2,0.1,0.2,0.3,0.2,0.6c0,0.2-0.1,0.5-0.3,0.8c-0.2,0.3-0.5,0.6-0.8,0.9c-0.4,0.3-0.8,0.5-1.4,0.7c-0.6,0.2-1.2,0.3-1.9,0.3
			c-1.7,0-3-0.5-3.9-1.4c-0.9-1-1.4-2.2-1.4-3.9c0-0.8,0.1-1.5,0.3-2.1c0.2-0.7,0.6-1.2,1-1.7c0.4-0.5,1-0.8,1.6-1.1
			c0.6-0.3,1.3-0.4,2.1-0.4c1,0,1.9,0.2,2.6,0.6c0.7,0.4,1.3,1,1.6,1.7c0.4,0.7,0.5,1.4,0.5,2.1c0,0.7-0.2,1.1-0.6,1.3
			C39.1,506.4,38.6,506.5,37.9,506.5 M32.9,505.1h4.7c-0.1-0.9-0.3-1.6-0.7-2c-0.4-0.4-1-0.7-1.6-0.7c-0.6,0-1.2,0.2-1.6,0.7
			C33.2,503.5,32.9,504.2,32.9,505.1"/>
		<path class="st3" d="M48.5,509.7v-0.3c-0.3,0.4-0.7,0.7-1,1c-0.3,0.3-0.7,0.4-1.1,0.6c-0.4,0.1-0.8,0.2-1.3,0.2
			c-0.6,0-1.2-0.1-1.7-0.4c-0.5-0.3-1-0.6-1.4-1.1c-0.4-0.5-0.7-1.1-0.9-1.7c-0.2-0.7-0.3-1.4-0.3-2.1c0-1.6,0.4-2.9,1.2-3.8
			c0.8-0.9,1.8-1.4,3.1-1.4c0.7,0,1.4,0.1,1.9,0.4c0.5,0.3,1,0.7,1.5,1.2v-3.8c0-0.5,0.1-0.9,0.3-1.2c0.2-0.3,0.5-0.4,0.9-0.4
			c0.4,0,0.7,0.1,0.9,0.4c0.2,0.3,0.3,0.6,0.3,1.1v11.4c0,0.5-0.1,0.9-0.3,1.1c-0.2,0.2-0.5,0.4-0.9,0.4c-0.4,0-0.6-0.1-0.9-0.4
			C48.6,510.5,48.5,510.2,48.5,509.7 M43.4,505.9c0,0.7,0.1,1.3,0.3,1.8c0.2,0.5,0.5,0.9,0.9,1.1c0.4,0.3,0.8,0.4,1.2,0.4
			c0.5,0,0.9-0.1,1.2-0.4c0.4-0.2,0.7-0.6,0.9-1.1c0.2-0.5,0.3-1.1,0.3-1.8c0-0.7-0.1-1.3-0.3-1.8c-0.2-0.5-0.5-0.9-0.9-1.1
			c-0.4-0.3-0.8-0.4-1.3-0.4c-0.5,0-0.9,0.1-1.3,0.4c-0.4,0.3-0.7,0.7-0.9,1.2C43.5,504.6,43.4,505.2,43.4,505.9"/>
		<path class="st3" d="M59.1,498.3v4c0.5-0.5,1-0.9,1.5-1.2c0.5-0.3,1.1-0.4,1.9-0.4c0.9,0,1.6,0.2,2.3,0.6c0.6,0.4,1.2,1,1.5,1.8
			c0.4,0.8,0.5,1.7,0.5,2.8c0,0.8-0.1,1.5-0.3,2.2c-0.2,0.7-0.5,1.2-0.9,1.7c-0.4,0.5-0.8,0.9-1.4,1.1c-0.5,0.3-1.1,0.4-1.8,0.4
			c-0.4,0-0.8,0-1.1-0.1c-0.4-0.1-0.7-0.2-0.9-0.4c-0.2-0.2-0.5-0.3-0.6-0.5c-0.2-0.2-0.4-0.4-0.7-0.7v0.3c0,0.5-0.1,0.9-0.4,1.1
			c-0.2,0.3-0.5,0.4-0.9,0.4c-0.4,0-0.7-0.1-0.9-0.4c-0.2-0.3-0.3-0.6-0.3-1.1v-11.3c0-0.5,0.1-0.9,0.3-1.2c0.2-0.3,0.5-0.4,0.9-0.4
			c0.4,0,0.7,0.1,0.9,0.4C59,497.4,59.1,497.8,59.1,498.3 M59.2,506c0,1,0.2,1.8,0.7,2.4c0.5,0.6,1.1,0.8,1.9,0.8
			c0.7,0,1.2-0.3,1.7-0.9c0.5-0.6,0.7-1.4,0.7-2.4c0-0.7-0.1-1.3-0.3-1.8c-0.2-0.5-0.5-0.9-0.8-1.1c-0.4-0.3-0.8-0.4-1.3-0.4
			c-0.5,0-0.9,0.1-1.3,0.4c-0.4,0.3-0.7,0.7-0.9,1.2C59.3,504.7,59.2,505.3,59.2,506"/>
		<path class="st3" d="M70.1,511.5l0.2-0.6l-3.2-8c-0.2-0.5-0.3-0.8-0.3-1c0-0.2,0.1-0.4,0.2-0.6c0.1-0.2,0.3-0.3,0.5-0.5
			c0.2-0.1,0.4-0.2,0.6-0.2c0.4,0,0.7,0.1,0.8,0.4c0.2,0.2,0.4,0.6,0.5,1l2.2,6.4l2.1-5.9c0.2-0.5,0.3-0.9,0.4-1.1
			c0.1-0.3,0.3-0.5,0.4-0.5c0.1-0.1,0.4-0.1,0.6-0.1c0.2,0,0.4,0.1,0.6,0.2c0.2,0.1,0.3,0.2,0.4,0.4c0.1,0.2,0.1,0.4,0.1,0.6
			c0,0.1-0.1,0.3-0.1,0.5c-0.1,0.2-0.1,0.4-0.2,0.7l-3.4,8.9c-0.3,0.8-0.6,1.4-0.9,1.8c-0.3,0.4-0.6,0.8-1.1,1
			c-0.5,0.2-1.1,0.4-1.9,0.4c-0.8,0-1.3-0.1-1.7-0.2c-0.4-0.2-0.6-0.5-0.6-0.9c0-0.3,0.1-0.5,0.3-0.7c0.2-0.2,0.4-0.2,0.8-0.2
			c0.1,0,0.3,0,0.4,0.1c0.2,0,0.3,0.1,0.4,0.1c0.3,0,0.5,0,0.7-0.1c0.2-0.1,0.3-0.2,0.5-0.5C69.8,512.2,70,511.9,70.1,511.5"/>
		<path class="st3" d="M107.7,500.9h0.6v-0.8c0-0.8,0.1-1.5,0.3-1.9c0.2-0.5,0.6-0.8,1-1c0.5-0.2,1.2-0.3,2-0.3
			c1.5,0,2.3,0.4,2.3,1.1c0,0.2-0.1,0.4-0.2,0.6c-0.2,0.2-0.3,0.3-0.6,0.3c-0.1,0-0.3,0-0.5-0.1c-0.2,0-0.5-0.1-0.6-0.1
			c-0.5,0-0.8,0.1-0.9,0.4c-0.1,0.3-0.2,0.7-0.2,1.2v0.6h0.6c1,0,1.5,0.3,1.5,0.9c0,0.4-0.1,0.7-0.4,0.8c-0.3,0.1-0.6,0.2-1.1,0.2
			h-0.6v6.9c0,0.5-0.1,0.9-0.4,1.2c-0.2,0.3-0.6,0.4-0.9,0.4c-0.4,0-0.7-0.1-0.9-0.4c-0.2-0.3-0.4-0.7-0.4-1.2v-6.9h-0.7
			c-0.4,0-0.7-0.1-0.9-0.3c-0.2-0.2-0.3-0.4-0.3-0.7C106.4,501.2,106.8,500.9,107.7,500.9"/>
		<path class="st3" d="M116.2,507.4v2.2c0,0.5-0.1,0.9-0.4,1.2c-0.2,0.3-0.6,0.4-0.9,0.4c-0.4,0-0.7-0.1-0.9-0.4
			c-0.2-0.3-0.4-0.7-0.4-1.2v-7.2c0-1.2,0.4-1.7,1.3-1.7c0.4,0,0.7,0.1,0.9,0.4c0.2,0.3,0.3,0.7,0.3,1.2c0.3-0.5,0.6-0.9,0.9-1.2
			c0.3-0.3,0.8-0.4,1.3-0.4c0.5,0,1.1,0.1,1.6,0.4c0.5,0.3,0.8,0.6,0.8,1.1c0,0.3-0.1,0.6-0.3,0.8c-0.2,0.2-0.5,0.3-0.7,0.3
			c-0.1,0-0.3-0.1-0.7-0.2c-0.4-0.1-0.7-0.2-1-0.2c-0.4,0-0.7,0.1-0.9,0.3c-0.2,0.2-0.4,0.5-0.6,0.9c-0.1,0.4-0.2,0.9-0.3,1.4
			C116.2,506,116.2,506.7,116.2,507.4"/>
		<path class="st3" d="M128.1,506.5H123c0,0.6,0.1,1.1,0.4,1.6c0.2,0.4,0.5,0.8,0.9,1c0.4,0.2,0.8,0.3,1.3,0.3c0.3,0,0.6,0,0.8-0.1
			c0.3-0.1,0.5-0.2,0.7-0.3c0.2-0.2,0.5-0.3,0.7-0.5c0.2-0.2,0.5-0.4,0.8-0.7c0.1-0.1,0.3-0.2,0.6-0.2c0.3,0,0.5,0.1,0.6,0.2
			c0.2,0.1,0.2,0.3,0.2,0.6c0,0.2-0.1,0.5-0.3,0.8c-0.2,0.3-0.5,0.6-0.8,0.9c-0.4,0.3-0.8,0.5-1.4,0.7c-0.6,0.2-1.2,0.3-1.9,0.3
			c-1.7,0-3-0.5-3.9-1.4c-0.9-1-1.4-2.2-1.4-3.9c0-0.8,0.1-1.5,0.3-2.1c0.2-0.7,0.6-1.2,1-1.7c0.4-0.5,1-0.8,1.6-1.1
			c0.6-0.2,1.3-0.4,2.1-0.4c1,0,1.9,0.2,2.6,0.6c0.7,0.4,1.3,1,1.6,1.7c0.4,0.7,0.5,1.4,0.5,2.1c0,0.6-0.2,1.1-0.6,1.3
			C129.3,506.4,128.8,506.5,128.1,506.5 M123,505.1h4.7c-0.1-0.9-0.3-1.6-0.7-2c-0.4-0.4-1-0.7-1.6-0.7c-0.6,0-1.2,0.2-1.6,0.7
			C123.4,503.5,123.1,504.2,123,505.1"/>
		<path class="st3" d="M138.9,506.5h-5.1c0,0.6,0.1,1.1,0.4,1.6c0.2,0.4,0.5,0.8,0.9,1c0.4,0.2,0.8,0.3,1.3,0.3c0.3,0,0.6,0,0.8-0.1
			c0.3-0.1,0.5-0.2,0.8-0.3c0.2-0.2,0.5-0.3,0.7-0.5c0.2-0.2,0.5-0.4,0.8-0.7c0.1-0.1,0.3-0.2,0.6-0.2c0.3,0,0.5,0.1,0.7,0.2
			c0.2,0.1,0.2,0.3,0.2,0.6c0,0.2-0.1,0.5-0.3,0.8c-0.2,0.3-0.5,0.6-0.8,0.9c-0.4,0.3-0.8,0.5-1.4,0.7c-0.6,0.2-1.2,0.3-1.9,0.3
			c-1.7,0-3-0.5-3.9-1.4c-0.9-1-1.4-2.2-1.4-3.9c0-0.8,0.1-1.5,0.3-2.1c0.2-0.7,0.6-1.2,1-1.7c0.4-0.5,1-0.8,1.6-1.1
			c0.6-0.2,1.3-0.4,2.1-0.4c1,0,1.9,0.2,2.6,0.6c0.7,0.4,1.3,1,1.6,1.7c0.4,0.7,0.5,1.4,0.5,2.1c0,0.6-0.2,1.1-0.6,1.3
			C140.1,506.4,139.6,506.5,138.9,506.5 M133.8,505.1h4.7c-0.1-0.9-0.3-1.6-0.7-2c-0.4-0.4-1-0.7-1.6-0.7c-0.6,0-1.2,0.2-1.6,0.7
			C134.2,503.5,133.9,504.2,133.8,505.1"/>
		<path class="st3" d="M144.6,502.1v0.3c0.5-0.6,1-1,1.5-1.3c0.5-0.3,1.1-0.4,1.8-0.4c0.8,0,1.5,0.2,2.2,0.6c0.7,0.4,1.2,1,1.6,1.8
			c0.4,0.8,0.6,1.7,0.6,2.8c0,0.8-0.1,1.5-0.3,2.2c-0.2,0.7-0.5,1.2-0.9,1.7c-0.4,0.5-0.9,0.8-1.4,1c-0.5,0.2-1.1,0.4-1.7,0.4
			c-0.7,0-1.4-0.1-1.9-0.4c-0.5-0.3-1-0.7-1.4-1.3v3.9c0,1.1-0.4,1.7-1.2,1.7c-0.5,0-0.8-0.1-1-0.4c-0.2-0.3-0.2-0.7-0.2-1.3v-11.2
			c0-0.5,0.1-0.9,0.3-1.1c0.2-0.2,0.5-0.4,0.9-0.4c0.4,0,0.7,0.1,0.9,0.4C144.5,501.3,144.6,501.6,144.6,502.1 M149.7,505.9
			c0-0.7-0.1-1.3-0.3-1.8c-0.2-0.5-0.5-0.9-0.9-1.1c-0.4-0.3-0.8-0.4-1.2-0.4c-0.7,0-1.3,0.3-1.8,0.8c-0.5,0.6-0.7,1.4-0.7,2.5
			c0,1,0.2,1.8,0.7,2.4c0.5,0.6,1.1,0.9,1.8,0.9c0.4,0,0.8-0.1,1.2-0.4c0.4-0.3,0.7-0.6,0.9-1.1
			C149.6,507.2,149.7,506.6,149.7,505.9"/>
		<path class="st3" d="M154.9,499.4c-0.4,0-0.7-0.1-0.9-0.3c-0.3-0.2-0.4-0.5-0.4-0.9c0-0.4,0.1-0.7,0.4-0.9
			c0.3-0.2,0.6-0.4,0.9-0.4c0.3,0,0.6,0.1,0.9,0.3c0.3,0.2,0.4,0.5,0.4,0.9c0,0.4-0.1,0.7-0.4,0.9
			C155.5,499.3,155.2,499.4,154.9,499.4 M156.2,502.1v7.5c0,0.5-0.1,0.9-0.4,1.2c-0.3,0.3-0.6,0.4-0.9,0.4c-0.4,0-0.7-0.1-0.9-0.4
			c-0.2-0.3-0.4-0.7-0.4-1.2v-7.4c0-0.5,0.1-0.9,0.4-1.2c0.2-0.3,0.5-0.4,0.9-0.4c0.4,0,0.7,0.1,0.9,0.4
			C156,501.3,156.2,501.6,156.2,502.1"/>
		<path class="st3" d="M164.5,510l-2.3-3.8l-1.4,1.3v2.1c0,0.5-0.1,0.9-0.4,1.1c-0.3,0.3-0.6,0.4-0.9,0.4c-0.4,0-0.7-0.1-0.9-0.4
			c-0.2-0.3-0.3-0.7-0.3-1.2v-11.1c0-0.6,0.1-1,0.3-1.3c0.2-0.3,0.5-0.5,1-0.5c0.4,0,0.7,0.1,0.9,0.4c0.2,0.3,0.4,0.7,0.4,1.2v6.3
			l2.9-3.1c0.4-0.4,0.6-0.6,0.8-0.8c0.2-0.1,0.4-0.2,0.7-0.2c0.3,0,0.6,0.1,0.8,0.3c0.2,0.2,0.3,0.5,0.3,0.8c0,0.4-0.4,0.9-1.1,1.5
			l-1.4,1.3l2.7,4.2c0.2,0.3,0.3,0.5,0.4,0.7c0.1,0.2,0.1,0.3,0.1,0.5c0,0.4-0.1,0.7-0.3,1c-0.2,0.2-0.5,0.4-0.9,0.4
			c-0.3,0-0.6-0.1-0.7-0.3C165.1,510.7,164.8,510.4,164.5,510"/>
		<path class="st3" d="M170.2,511.2c-0.4,0-0.7-0.1-1-0.4c-0.3-0.2-0.4-0.6-0.4-1.1c0-0.4,0.1-0.7,0.4-1c0.3-0.3,0.6-0.4,1-0.4
			c0.4,0,0.7,0.1,1,0.4c0.3,0.3,0.4,0.6,0.4,1c0,0.5-0.1,0.8-0.4,1.1C170.9,511.1,170.5,511.2,170.2,511.2"/>
		<path class="st3" d="M183.1,508c0,0.3-0.1,0.7-0.3,1c-0.2,0.4-0.5,0.7-0.9,1.1c-0.4,0.3-0.9,0.6-1.5,0.8c-0.6,0.2-1.3,0.3-2,0.3
			c-1.6,0-2.9-0.5-3.8-1.4c-0.9-0.9-1.3-2.2-1.3-3.8c0-1.1,0.2-2,0.6-2.8c0.4-0.8,1-1.4,1.8-1.9c0.8-0.4,1.7-0.7,2.8-0.7
			c0.7,0,1.3,0.1,1.9,0.3c0.6,0.2,1,0.5,1.4,0.8c0.4,0.3,0.7,0.6,0.9,1c0.2,0.4,0.3,0.7,0.3,1c0,0.3-0.1,0.6-0.3,0.8
			c-0.2,0.2-0.5,0.3-0.8,0.3c-0.2,0-0.4-0.1-0.5-0.2c-0.1-0.1-0.3-0.3-0.5-0.5c-0.3-0.5-0.6-0.8-1-1.1c-0.3-0.2-0.8-0.4-1.3-0.4
			c-0.8,0-1.4,0.3-1.9,0.9c-0.5,0.6-0.7,1.4-0.7,2.5c0,0.5,0.1,0.9,0.2,1.3c0.1,0.4,0.3,0.8,0.5,1c0.2,0.3,0.5,0.5,0.8,0.7
			c0.3,0.2,0.7,0.2,1.1,0.2c0.5,0,1-0.1,1.3-0.4c0.4-0.2,0.7-0.6,1-1.1c0.2-0.3,0.3-0.5,0.5-0.7c0.2-0.2,0.4-0.2,0.7-0.2
			c0.3,0,0.6,0.1,0.8,0.4C183,507.4,183.1,507.7,183.1,508"/>
		<path class="st3" d="M194.2,505.9c0,0.8-0.1,1.5-0.4,2.1c-0.2,0.7-0.6,1.2-1.1,1.7c-0.5,0.5-1,0.8-1.6,1.1
			c-0.6,0.2-1.3,0.4-2.1,0.4c-0.8,0-1.5-0.1-2.1-0.4c-0.6-0.2-1.2-0.6-1.6-1.1c-0.5-0.5-0.8-1-1.1-1.7c-0.2-0.6-0.4-1.4-0.4-2.1
			c0-0.8,0.1-1.5,0.4-2.2c0.2-0.7,0.6-1.2,1-1.7c0.5-0.5,1-0.8,1.6-1.1c0.6-0.2,1.3-0.4,2.1-0.4c0.8,0,1.5,0.1,2.1,0.4
			c0.6,0.3,1.2,0.6,1.6,1.1c0.5,0.5,0.8,1,1,1.7C194.1,504.4,194.2,505.1,194.2,505.9 M191.6,505.9c0-1.1-0.2-1.9-0.7-2.5
			c-0.5-0.6-1.1-0.9-1.9-0.9c-0.5,0-1,0.1-1.3,0.4c-0.4,0.3-0.7,0.7-0.9,1.2c-0.2,0.5-0.3,1.1-0.3,1.8c0,0.7,0.1,1.3,0.3,1.8
			c0.2,0.5,0.5,0.9,0.9,1.2c0.4,0.3,0.8,0.4,1.4,0.4c0.8,0,1.4-0.3,1.9-0.9C191.4,507.8,191.6,506.9,191.6,505.9"/>
		<path class="st3" d="M204.1,506.1v3.4c0,0.5-0.1,1-0.4,1.2c-0.3,0.3-0.6,0.4-1,0.4c-0.4,0-0.7-0.1-1-0.4c-0.2-0.3-0.4-0.7-0.4-1.2
			v-4.1c0-0.7,0-1.2-0.1-1.5c0-0.4-0.2-0.7-0.4-0.9c-0.2-0.2-0.5-0.4-0.9-0.4c-0.9,0-1.4,0.3-1.7,0.9c-0.3,0.6-0.4,1.4-0.4,2.5v3.5
			c0,0.5-0.1,0.9-0.4,1.2c-0.2,0.3-0.6,0.4-1,0.4c-0.4,0-0.7-0.1-1-0.4c-0.3-0.3-0.4-0.7-0.4-1.2v-7.4c0-0.5,0.1-0.9,0.3-1.1
			c0.2-0.3,0.5-0.4,0.9-0.4c0.4,0,0.7,0.1,0.9,0.4c0.2,0.2,0.4,0.6,0.4,1v0.2c0.5-0.5,0.9-0.9,1.4-1.2c0.5-0.3,1.1-0.4,1.7-0.4
			c0.7,0,1.2,0.1,1.7,0.4c0.5,0.3,0.9,0.7,1.2,1.2c0.4-0.5,0.9-0.9,1.4-1.2c0.5-0.3,1.1-0.4,1.7-0.4c0.7,0,1.3,0.1,1.8,0.4
			c0.5,0.3,0.9,0.7,1.1,1.2c0.2,0.5,0.3,1.2,0.3,2.2v5.1c0,0.5-0.1,1-0.4,1.2c-0.2,0.3-0.6,0.4-1,0.4c-0.4,0-0.7-0.1-1-0.4
			c-0.3-0.3-0.4-0.7-0.4-1.2v-4.4c0-0.6,0-1-0.1-1.3c0-0.3-0.2-0.6-0.4-0.8c-0.2-0.2-0.5-0.3-1-0.3c-0.3,0-0.7,0.1-1,0.3
			c-0.3,0.2-0.5,0.5-0.7,0.8C204.2,504.2,204.1,505,204.1,506.1"/>
		<path class="st3" d="M83.4,505.3C83.4,505.3,83.4,505.3,83.4,505.3C83.4,505.3,83.4,505.3,83.4,505.3"/>
		<path class="st3" d="M83.6,506.1L83.6,506.1c0-0.2-0.1-0.5-0.1-0.7C83.5,505.6,83.5,505.9,83.6,506.1"/>
		<path class="st3" d="M84.4,508.5C84.4,508.5,84.4,508.5,84.4,508.5C84.4,508.5,84.4,508.5,84.4,508.5"/>
		<path class="st3" d="M84.3,508.4c0,0,0-0.1-0.1-0.1C84.3,508.3,84.3,508.3,84.3,508.4"/>
		<path class="st3" d="M83.8,507c0.1,0.4,0.3,0.8,0.5,1.2C84.1,507.8,83.9,507.4,83.8,507L83.8,507z"/>
		<path class="st3" d="M84.4,499.2L84.4,499.2c0-0.1,0.1-0.1,0.1-0.2l-0.3-0.2l-0.5-0.4c0,0-0.8,0.7-1.4,2c0,0-0.1-0.1-0.1-0.1
			c-0.2-0.2-0.4-0.3-0.8-0.3h0c-0.2,0-0.3-0.1-0.4-0.1c0.1-0.1,0.1-0.3,0.1-0.4c0-0.4-0.3-0.7-0.7-0.7c-0.4,0-0.7,0.3-0.7,0.7
			c0,0.4,0.3,0.7,0.7,0.7c0.1,0,0.1,0,0.2,0c0.2,0.2,0.4,0.3,0.8,0.3c0.2,0,0.3,0,0.4,0.2c0.1,0.1,0.1,0.3,0.2,0.4c0,0,0,0,0,0
			c-0.4,1.2-0.3,2.7-0.3,2.7l1.1,0c0-0.5,0.1-1.5,0.4-2.2C83.7,500.1,84.4,499.2,84.4,499.2"/>
		<path class="st3" d="M102.7,496.2c-0.4,0-0.7,0.3-0.7,0.7c0,0.1,0,0.1,0,0.2c-0.2,0.2-0.3,0.4-0.3,0.8c0,0.2,0,0.3-0.2,0.4
			c-0.1,0.1-0.2,0.1-0.3,0.1c-0.8-1.1-1.8-1.8-1.8-1.8l-0.8,0.8c0.6,0.5,1.2,1.2,1.7,2c0.4,0.6,0.8,1.3,1.1,2l1-0.5
			c0,0-0.5-1.2-1.1-2.2c0.1,0,0.2-0.1,0.3-0.2c0.2-0.2,0.3-0.4,0.3-0.8c0-0.2,0.1-0.3,0.2-0.4c0.1,0.1,0.3,0.1,0.4,0.1
			c0.4,0,0.7-0.3,0.7-0.7C103.3,496.5,103,496.2,102.7,496.2"/>
		<path class="st3" d="M100,505.4c-1.4,0.7-3.7,1.6-6.8,2c-1.2,0.2-2.4,0.2-3.4,0.2c-1.4,0-2.6-0.1-3.6-0.2
			c-1.1-0.1-1.9-0.3-2.4-0.4c0.1,0.4,0.3,0.8,0.5,1.2c0,0,0,0,0,0c0,0,0,0.1,0.1,0.1c0,0,0,0.1,0.1,0.1c0,0,0,0,0,0
			c0.3,0.6,0.7,1.1,1.1,1.5c1.4,1.6,2.9,1.8,2.9,1.8l0,0l0,0c0,0,1.3,0.4,3.3,0.4c1.9,0,3.9-0.4,5.7-1.2c1.3-0.7,2.6-1.7,3.3-2.7
			c0.5-0.7,0.8-1.5,1-2.3c0.1-0.4,0.2-1.1,0.1-1.8C101.5,504.6,100.9,505,100,505.4"/>
		<path class="st3" d="M84.9,499.5c0,0.1-0.7,0.9-1.1,2.3c-0.4,1-0.3,2.4-0.3,2.5v0c0,0.3,0,0.7,0.1,1c0,0,0,0,0,0c0,0,0,0.1,0,0.1
			c0,0.2,0.1,0.5,0.1,0.7c0.7,0.2,4.9,1.2,9.5,0.5c2.9-0.4,5.1-1.3,6.5-1.9c1.1-0.5,1.8-1,2.1-1.2c-0.3-1-1-2.6-1.7-3.6
			c-2-2.9-4.2-3.6-5.3-3.8c-0.4-0.1-0.8-0.1-1.2-0.1c-0.4,0-1,0-1.7,0.1c-0.7,0.1-1.6,0.3-2.5,0.6c-1.3,0.5-2.6,1.2-3.5,2l0,0
			C85.5,498.8,85.2,499.1,84.9,499.5 M97.1,498.9c1,0,1.7,0.8,1.7,1.7c0,1-0.8,1.7-1.7,1.7c-1,0-1.7-0.8-1.7-1.7
			C95.4,499.6,96.2,498.9,97.1,498.9 M88.9,498.8c1.6,0,2.8,1.3,2.8,2.8c0,1.6-1.3,2.8-2.8,2.8c-1.6,0-2.8-1.3-2.8-2.8
			C86.1,500.1,87.3,498.8,88.9,498.8"/>
	</g>
</g>
<g id="Design">
	<g>
		<g>
			<g>
				<g>
					<path class="st4" d="M89.7,10.7c0,0-7,5.7-8.3,14.5c0,0.3-0.1,0.6-0.1,0.8c0,0.2,0,0.3-0.1,0.5c0.3-0.1,0.6-0.1,1-0.2
						c0.6-0.1,1.3-0.3,2-0.4c0.7-0.1,1.5-0.3,2.3-0.4c0.8-0.1,1.6-0.2,2.5-0.4c0.9-0.1,1.8-0.3,2.7-0.4c0.9-0.1,1.9-0.2,2.9-0.3
						c0.5,0,1-0.1,1.5-0.1c0.5,0,1-0.1,1.6-0.1c1.1-0.1,2.1-0.1,3.2-0.2c2.2,0,4.4-0.1,6.7,0.1c2.3,0.1,4.6,0.3,6.9,0.5
						c2.3,0.3,4.6,0.6,6.8,1.1c2.2,0.4,4.4,0.9,6.5,1.4c1,0.3,2.1,0.6,3,0.9c0.5,0.1,1,0.3,1.5,0.4c0.5,0.2,1,0.3,1.4,0.5
						c0.9,0.3,1.8,0.6,2.7,0.9c0.9,0.3,1.7,0.7,2.5,1c0.8,0.3,1.6,0.6,2.3,0.9c0.7,0.3,1.4,0.6,2,0.9c0.6,0.3,1.2,0.5,1.8,0.8
						c0.5,0.3,1,0.5,1.5,0.7c1,0.5,1.8,0.9,2.3,1.2l14.3,6C160.5,37.8,122-11.7,89.7,10.7"/>
					<path class="st4" d="M111.4,54c3.8-0.9,8-2.2,12.5-4.1c32.4-13.4,39.5-8.4,39.5-8.4s-0.1-0.1-0.2-0.2c-3.7-1.5-9.7-4.1-14.2-6
						c0.3,0.1,0.4,0.2,0.4,0.2s-1.1-0.4-2.9-1.1c-0.5-0.2-1-0.4-1.5-0.5c-0.6-0.2-1.2-0.4-1.8-0.6c-0.7-0.2-1.4-0.4-2.1-0.6
						c-0.7-0.2-1.5-0.4-2.3-0.6c-0.8-0.2-1.7-0.4-2.5-0.6c-0.9-0.2-1.8-0.4-2.7-0.6c-0.5-0.1-0.9-0.2-1.4-0.3
						c-0.5-0.1-1-0.2-1.5-0.2c-1-0.2-2-0.3-3-0.5c-2.1-0.2-4.2-0.5-6.4-0.6c-2.2-0.2-4.4-0.2-6.6-0.2c-2.2,0.1-4.4,0.1-6.6,0.3
						c-2.2,0.1-4.3,0.4-6.3,0.7c-1,0.2-2,0.3-3,0.5c-0.5,0.1-1,0.2-1.4,0.2c-0.5,0.1-0.9,0.2-1.4,0.3c-0.9,0.2-1.8,0.4-2.7,0.6
						c-0.9,0.2-1.7,0.4-2.5,0.7c-0.8,0.2-1.5,0.4-2.2,0.6c-0.7,0.2-1.3,0.4-2,0.6c-0.6,0.2-1.2,0.4-1.7,0.6
						c-0.5,0.2-1.1,0.4-1.5,0.6c-0.5,0.2-1,0.4-1.4,0.5C84.6,48.1,97.5,57.2,111.4,54"/>
					<path class="st5" d="M109.9,29.3c0,0-1.3,0.4-3.5,1c-1.1,0.3-2.4,0.8-3.9,1.3c-1.5,0.5-3.2,1.1-5.1,1.7
						c-3.7,1.3-8,2.8-12.4,4.7c-1.1,0.5-2.2,0.9-3.4,1.4c-1.1,0.5-2.3,1-3.4,1.5c-2.3,1.1-4.6,2.2-6.9,3.4l-1.7,0.9l-1.7,0.9
						c-1.1,0.6-2.2,1.2-3.3,1.9c-0.5,0.3-1.1,0.6-1.6,1c-0.5,0.3-1.1,0.6-1.6,1c-1.1,0.6-2.1,1.3-3.1,2c-1,0.7-1.9,1.4-2.9,2
						c-1,0.7-1.8,1.4-2.7,2c-0.9,0.6-1.7,1.3-2.5,2c-0.8,0.6-1.6,1.3-2.3,1.9c-1.5,1.2-2.8,2.5-4,3.5c-1.1,1.1-2.1,2.1-3,2.9
						c-0.8,0.8-1.4,1.5-1.9,1.9c-0.4,0.4-0.7,0.7-0.7,0.7s0.2-0.3,0.4-0.8c0.3-0.5,0.7-1.4,1.3-2.4c0.6-1,1.4-2.2,2.3-3.5
						c1-1.3,2.1-2.8,3.4-4.3c1.3-1.5,2.8-3.1,4.5-4.7c0.8-0.8,1.7-1.6,2.6-2.4c0.9-0.8,1.9-1.6,2.9-2.4c2-1.5,4.1-3.1,6.3-4.5
						c1.1-0.7,2.2-1.4,3.4-2.1l1.7-1l1.8-0.9c2.4-1.2,4.8-2.3,7.2-3.4c2.4-1,4.9-1.9,7.2-2.7c2.4-0.8,4.7-1.4,6.9-2
						c2.2-0.5,4.3-1,6.3-1.3c3.9-0.7,7.2-1,9.5-1.2c1.2-0.1,2.1-0.1,2.7-0.1C109.5,29.3,109.9,29.3,109.9,29.3"/>
				</g>
				<path class="st4" d="M195.2,139.2c0,0-1.4-8.9-8.4-14.4c-0.2-0.2-0.4-0.3-0.7-0.5c-0.1-0.1-0.3-0.2-0.4-0.3
					c-0.1,0.3-0.2,0.6-0.3,1c-0.2,0.6-0.4,1.3-0.7,1.9c-0.2,0.7-0.5,1.4-0.8,2.2c-0.3,0.8-0.6,1.5-0.9,2.4c-0.3,0.8-0.7,1.7-1,2.5
					c-0.4,0.9-0.8,1.8-1.2,2.7c-0.2,0.5-0.4,0.9-0.6,1.4c-0.2,0.5-0.5,0.9-0.7,1.4c-0.5,0.9-1,1.9-1.5,2.9c-1.1,1.9-2.2,3.9-3.4,5.8
					c-1.2,2-2.6,3.8-3.9,5.7c-1.4,1.8-2.8,3.7-4.3,5.4c-1.4,1.7-3,3.3-4.5,4.9c-0.8,0.8-1.5,1.5-2.3,2.2c-0.4,0.4-0.7,0.7-1.1,1.1
					c-0.4,0.3-0.8,0.7-1.1,1c-0.7,0.6-1.5,1.3-2.1,1.9c-0.7,0.6-1.4,1.1-2.1,1.7c-0.7,0.5-1.3,1-1.9,1.5c-0.6,0.5-1.2,0.9-1.8,1.3
					c-0.6,0.4-1.1,0.8-1.6,1.1c-0.5,0.3-1,0.6-1.4,0.9c-1,0.6-1.7,1.1-2.1,1.4l-12.4,9.4C136.4,186.9,198.5,178.4,195.2,139.2"/>
				<path class="st4" d="M146.9,136.3c-1.1,3.8-2.1,8-2.7,12.9c-4.6,34.8-12.5,38.4-12.5,38.4s0.1,0,0.3,0c3.2-2.4,8.4-6.3,12.3-9.3
					c-0.2,0.2-0.4,0.2-0.4,0.2s0.9-0.7,2.4-2c0.4-0.3,0.8-0.7,1.2-1.1c0.4-0.4,0.9-0.8,1.4-1.3c0.5-0.5,1-1,1.6-1.5
					c0.6-0.5,1.1-1.1,1.7-1.7c0.6-0.6,1.2-1.2,1.8-1.9c0.6-0.7,1.2-1.4,1.9-2.1c0.3-0.4,0.6-0.7,1-1.1c0.3-0.4,0.6-0.8,0.9-1.2
					c0.6-0.8,1.3-1.6,1.9-2.4c1.2-1.7,2.6-3.4,3.7-5.2c1.3-1.8,2.3-3.7,3.5-5.6c1-2,2.1-3.9,3-5.8c1-1.9,1.8-3.9,2.6-5.8
					c0.4-1,0.7-1.9,1.1-2.8c0.2-0.5,0.3-0.9,0.5-1.4c0.1-0.5,0.3-0.9,0.4-1.4c0.3-0.9,0.6-1.8,0.8-2.6c0.3-0.8,0.5-1.7,0.7-2.5
					c0.2-0.8,0.4-1.5,0.6-2.3c0.2-0.7,0.3-1.4,0.4-2c0.1-0.6,0.3-1.2,0.4-1.8c0.1-0.6,0.2-1.1,0.3-1.6c0.1-0.6,0.2-1.1,0.3-1.5
					C165.4,116.1,151.1,122.7,146.9,136.3"/>
				<path class="st5" d="M169,147.4c0,0,0.3-1.3,0.8-3.5c0.3-1.1,0.5-2.5,0.9-4c0.3-1.6,0.7-3.3,1.1-5.2c0.8-3.8,1.5-8.3,2.2-13.1
					c0.2-1.2,0.3-2.4,0.5-3.7c0.2-1.2,0.3-2.5,0.4-3.7c0.2-2.5,0.4-5.1,0.5-7.6l0.1-1.9l0-1.9c0-1.3,0-2.5,0-3.8c0-0.6,0-1.3,0-1.9
					c0-0.6,0-1.2,0-1.9c0-1.2-0.1-2.5-0.2-3.7c-0.1-1.2-0.2-2.4-0.3-3.5c-0.1-1.2-0.3-2.3-0.4-3.4c-0.1-1.1-0.3-2.2-0.4-3.2
					c-0.1-1-0.3-2-0.5-3c-0.3-1.9-0.7-3.6-1.1-5.2c-0.4-1.5-0.7-2.9-1-4c-0.3-1.1-0.6-2-0.7-2.6c-0.2-0.6-0.2-0.9-0.2-0.9
					s0.2,0.3,0.5,0.8c0.3,0.5,0.8,1.3,1.4,2.3c0.5,1,1.2,2.3,1.9,3.8c0.6,1.5,1.4,3.2,2,5.1c0.7,1.9,1.3,4,1.8,6.2
					c0.3,1.1,0.5,2.3,0.8,3.5c0.2,1.2,0.4,2.4,0.6,3.7c0.3,2.5,0.6,5.1,0.7,7.7c0,1.3,0.1,2.7,0.1,4l0,2l-0.1,2
					c-0.1,2.7-0.4,5.3-0.7,8c-0.4,2.6-0.8,5.2-1.3,7.6c-0.5,2.4-1.1,4.8-1.7,7c-0.7,2.2-1.3,4.3-2,6.1c-1.4,3.8-2.7,6.8-3.8,8.8
					c-0.5,1-1,1.8-1.3,2.4C169.2,147.1,169,147.4,169,147.4"/>
				<path class="st4" d="M31.2,166.2c0,0,8.4,3.3,16.7-0.1c0.3-0.1,0.5-0.2,0.8-0.3c0.2-0.1,0.3-0.1,0.5-0.2
					c-0.2-0.2-0.4-0.5-0.7-0.7c-0.4-0.5-0.9-1-1.4-1.5c-0.5-0.6-1-1.1-1.5-1.8c-0.5-0.6-1-1.3-1.6-2c-0.5-0.7-1.1-1.4-1.7-2.2
					c-0.5-0.8-1.1-1.6-1.7-2.4c-0.3-0.4-0.6-0.8-0.9-1.2c-0.3-0.4-0.6-0.9-0.8-1.3c-0.6-0.9-1.2-1.8-1.7-2.7
					c-1.1-1.9-2.3-3.8-3.3-5.9c-1.1-2-2-4.1-3-6.2c-0.9-2.2-1.8-4.3-2.5-6.4c-0.8-2.1-1.4-4.3-2-6.3c-0.3-1-0.5-2.1-0.8-3.1
					c-0.1-0.5-0.2-1-0.4-1.5c-0.1-0.5-0.2-1-0.3-1.5c-0.2-1-0.4-1.9-0.6-2.8c-0.2-0.9-0.3-1.8-0.4-2.6c-0.1-0.8-0.3-1.7-0.4-2.4
					c-0.1-0.8-0.2-1.5-0.2-2.2c-0.1-0.7-0.1-1.3-0.2-1.9c0-0.6-0.1-1.1-0.1-1.6c-0.1-1.2-0.1-2-0.1-2.5L21,87.3
					C19.3,91.4-4.4,149.4,31.2,166.2"/>
				<path class="st4" d="M57.9,125.9c-2.7-2.9-5.9-5.8-9.8-8.8C20.3,95.7,21.1,87,21.1,87s0,0.1-0.1,0.2c0.5,3.9,1.3,10.4,1.9,15.3
					c0-0.3,0-0.4,0-0.4s0.2,1.1,0.5,3.1c0.1,0.5,0.2,1,0.3,1.6c0.1,0.6,0.3,1.2,0.4,1.9c0.2,0.7,0.3,1.4,0.5,2.1
					c0.2,0.7,0.4,1.5,0.6,2.3c0.2,0.8,0.4,1.7,0.7,2.5c0.3,0.9,0.6,1.8,0.9,2.7c0.1,0.5,0.3,0.9,0.5,1.4c0.2,0.5,0.4,0.9,0.5,1.4
					c0.4,0.9,0.7,1.9,1.1,2.9c0.8,1.9,1.7,3.9,2.7,5.9c0.9,2,2,3.9,3.1,5.8c1.2,1.9,2.3,3.8,3.5,5.5c1.2,1.8,2.5,3.5,3.7,5.1
					c0.6,0.8,1.3,1.6,1.9,2.3c0.3,0.4,0.6,0.8,0.9,1.1c0.3,0.4,0.6,0.7,1,1.1c0.6,0.7,1.2,1.4,1.8,2c0.6,0.6,1.2,1.2,1.8,1.8
					c0.6,0.6,1.1,1.1,1.7,1.6c0.5,0.5,1.1,0.9,1.5,1.4c0.5,0.4,0.9,0.8,1.3,1.2c0.4,0.4,0.9,0.7,1.2,1c0.4,0.4,0.8,0.7,1.2,1
					C66.1,152,67.6,136.3,57.9,125.9"/>
				<path class="st5" d="M37.2,139.5c0,0,1,0.9,2.6,2.5c0.8,0.8,1.9,1.7,3.1,2.8c1.2,1.1,2.5,2.3,4,3.5c2.9,2.6,6.4,5.5,10.2,8.4
					c1,0.7,1.9,1.5,2.9,2.2c1,0.8,2,1.5,3,2.2c2.1,1.4,4.2,2.9,6.3,4.3l1.6,1l1.6,1c1.1,0.7,2.2,1.3,3.3,1.9
					c0.5,0.3,1.1,0.6,1.6,0.9c0.5,0.3,1.1,0.6,1.6,0.9c1.1,0.6,2.2,1.1,3.3,1.7c1.1,0.6,2.2,1,3.2,1.5c1,0.5,2.1,0.9,3.1,1.4
					c1,0.5,2,0.8,3,1.2c1,0.4,1.9,0.7,2.8,1.1c1.8,0.7,3.5,1.2,5,1.7c1.5,0.4,2.9,0.8,4,1.1c1.1,0.3,2,0.5,2.6,0.7
					c0.6,0.2,0.9,0.2,0.9,0.2s-0.3,0-1,0c-0.6,0-1.5,0-2.7,0c-1.2,0-2.6-0.1-4.2-0.2c-1.6-0.2-3.4-0.4-5.4-0.8
					c-2-0.4-4.1-0.9-6.3-1.5c-1.1-0.3-2.2-0.7-3.4-1.1c-1.1-0.4-2.3-0.8-3.5-1.3c-2.3-1-4.7-2-7-3.3c-1.2-0.6-2.4-1.2-3.5-1.9
					l-1.7-1l-1.7-1.1c-2.3-1.5-4.4-3-6.5-4.6c-2.1-1.6-4.1-3.3-5.9-5c-1.9-1.7-3.6-3.4-5.2-5c-1.6-1.7-3-3.3-4.3-4.8
					c-2.6-3-4.5-5.8-5.8-7.7c-0.6-1-1.1-1.8-1.4-2.3C37.4,139.8,37.2,139.5,37.2,139.5"/>
			</g>
			<g>
				<g>
					<path class="st5" d="M78.8,93.1H47.5c1.4,6.4,6.3,10.4,12.9,10.4c4.5,0,8.6-1.7,11.7-4.8l4.8,5.1c-4.1,4.4-10,7-17.1,7
						c-12.8,0-21.2-8.5-21.2-21c0-12.5,8.6-21,21-21.1C74,68.6,79.9,78.1,78.8,93.1z M71,86.5c-0.3-6.7-4.8-10.7-11.5-10.7
						c-6.5,0-11.1,4.1-12.2,10.7H71z"/>
					<path class="st5" d="M122.3,75.4l-4.9,5.8c-2.9-3-6.9-4.8-11.8-4.7c-7.2,0-12.3,5.4-12.3,13.2c0,7.9,5.1,13.2,12.3,13.2
						c5.2,0,9.4-1.7,12.2-5l5,5c-3.7,4.9-9.7,7.7-17.6,7.7c-12.3,0-20.9-8.5-20.9-21c0-12.5,8.6-21.1,20.9-21.1
						C112.6,68.6,118.5,71,122.3,75.4z"/>
					<path class="st5" d="M169.8,89.6c0,12.5-8.8,21-21.6,21c-12.9,0-21.7-8.6-21.7-21c0-12.5,8.8-21,21.7-21
						C161,68.6,169.8,77.1,169.8,89.6z M135.5,89.7c0,8,5.2,13.5,12.7,13.5c7.4,0,12.6-5.5,12.6-13.5c0-7.9-5.2-13.4-12.6-13.4
						C140.7,76.3,135.5,81.8,135.5,89.7z"/>
				</g>
				<g>
					<path class="st5" d="M74.2,117.3c1,0,1.7,0.4,2.3,1.1s0.8,1.8,0.8,3.1c0,1.4-0.3,2.4-0.9,3.2c-0.6,0.7-1.3,1.1-2.3,1.1
						c-1,0-1.7-0.4-2.3-1.1h-0.2l-0.4,0.9h-1.7v-11.5h2.3v2.7c0,0.3,0,0.9-0.1,1.6h0.1C72.4,117.7,73.2,117.3,74.2,117.3z
						 M73.5,119.1c-0.6,0-1,0.2-1.2,0.5s-0.4,0.9-0.4,1.7v0.2c0,0.9,0.1,1.5,0.4,1.9c0.3,0.4,0.7,0.6,1.3,0.6c0.5,0,0.8-0.2,1.1-0.6
						c0.3-0.4,0.4-1,0.4-1.9s-0.1-1.4-0.4-1.8S73.9,119.1,73.5,119.1z"/>
					<path class="st5" d="M88.9,125.7l-0.4-1.1h-0.1c-0.4,0.5-0.8,0.8-1.2,1c-0.4,0.2-0.9,0.3-1.6,0.3c-0.8,0-1.4-0.2-1.9-0.7
						c-0.5-0.5-0.7-1.1-0.7-1.9c0-0.9,0.3-1.5,0.9-1.9s1.5-0.6,2.8-0.7l1.4,0v-0.4c0-0.8-0.4-1.3-1.3-1.3c-0.7,0-1.4,0.2-2.3,0.6
						l-0.7-1.5c0.9-0.5,2-0.7,3.2-0.7c1.1,0,2,0.2,2.5,0.7c0.6,0.5,0.9,1.2,0.9,2.2v5.5H88.9z M88.3,121.9l-0.9,0
						c-0.7,0-1.1,0.1-1.5,0.4c-0.3,0.2-0.5,0.5-0.5,1c0,0.6,0.4,1,1.1,1c0.5,0,0.9-0.1,1.3-0.5c0.3-0.3,0.5-0.7,0.5-1.2V121.9z"/>
					<path class="st5" d="M103.1,123.3c0,0.8-0.3,1.5-0.9,1.9c-0.6,0.4-1.5,0.7-2.6,0.7c-0.6,0-1.1,0-1.5-0.1
						c-0.4-0.1-0.8-0.2-1.2-0.4v-1.9c0.4,0.2,0.9,0.4,1.4,0.5s1,0.2,1.4,0.2c0.8,0,1.2-0.2,1.2-0.7c0-0.2-0.1-0.3-0.2-0.4
						c-0.1-0.1-0.3-0.2-0.6-0.4s-0.6-0.3-1.1-0.5c-0.6-0.3-1.1-0.5-1.4-0.7c-0.3-0.2-0.5-0.5-0.6-0.8c-0.1-0.3-0.2-0.7-0.2-1.1
						c0-0.7,0.3-1.3,0.9-1.7s1.4-0.6,2.4-0.6c1,0,2,0.2,2.9,0.6l-0.7,1.6c-0.4-0.2-0.8-0.3-1.2-0.4c-0.4-0.1-0.7-0.2-1.1-0.2
						c-0.7,0-1,0.2-1,0.5c0,0.2,0.1,0.4,0.3,0.5c0.2,0.1,0.7,0.4,1.4,0.7c0.6,0.3,1.1,0.5,1.4,0.7c0.3,0.2,0.5,0.5,0.7,0.8
						C103,122.5,103.1,122.9,103.1,123.3z"/>
					<path class="st5" d="M111.6,121.2l1-1.3l2.3-2.5h2.5l-3.3,3.6l3.5,4.7H115l-2.4-3.3l-1,0.8v2.6h-2.3v-11.5h2.3v5.1L111.6,121.2
						L111.6,121.2z"/>
					<path class="st5" d="M127,125.9c-1.3,0-2.4-0.4-3.1-1.1c-0.7-0.7-1.1-1.8-1.1-3.1c0-1.4,0.3-2.5,1-3.2c0.7-0.8,1.6-1.1,2.9-1.1
						c1.2,0,2.1,0.3,2.7,1c0.6,0.7,1,1.6,1,2.8v1.1h-5.3c0,0.6,0.2,1.1,0.6,1.5s0.9,0.5,1.5,0.5c0.5,0,1-0.1,1.4-0.2
						c0.4-0.1,0.9-0.3,1.4-0.5v1.7c-0.4,0.2-0.8,0.3-1.3,0.4C128.2,125.8,127.7,125.9,127,125.9z M126.7,118.9
						c-0.5,0-0.9,0.2-1.1,0.5c-0.3,0.3-0.4,0.7-0.5,1.3h3.2c0-0.6-0.2-1-0.4-1.3C127.6,119.1,127.2,118.9,126.7,118.9z"/>
					<path class="st5" d="M140.2,124.1c0.4,0,0.9-0.1,1.4-0.3v1.7c-0.6,0.3-1.2,0.4-2.1,0.4c-0.9,0-1.6-0.2-2-0.7
						c-0.4-0.5-0.6-1.1-0.6-2v-4h-1.1v-1l1.2-0.8l0.6-1.7h1.4v1.8h2.3v1.7h-2.3v4c0,0.3,0.1,0.6,0.3,0.7
						C139.7,124,139.9,124.1,140.2,124.1z"/>
				</g>
			</g>
		</g>
		<g>
			<g>
				<path class="st6" d="M327,91.7c-0.4-0.4-0.7-0.9-1.1-1.3c-0.4-0.5-0.8-1-1.2-1.5c-0.4-0.5-0.8-1-1.3-1.6
					c-0.4-0.6-0.8-1.2-1.3-1.8c-0.2-0.3-0.4-0.6-0.7-0.9c-0.2-0.3-0.4-0.7-0.6-1c-0.4-0.7-0.9-1.3-1.3-2c-0.8-1.4-1.7-2.9-2.5-4.4
					c-0.8-1.5-1.5-3.1-2.2-4.7c-0.6-1.6-1.3-3.2-1.9-4.8c-0.6-1.6-1-3.2-1.5-4.7c-0.2-0.8-0.4-1.5-0.6-2.3c-0.1-0.4-0.2-0.7-0.3-1.1
					c-0.1-0.4-0.1-0.7-0.2-1.1c-0.1-0.7-0.3-1.4-0.4-2.1c-0.1-0.7-0.2-1.3-0.3-2c-0.1-0.6-0.2-1.2-0.3-1.8c-0.1-0.6-0.1-1.1-0.2-1.6
					c-0.1-0.5-0.1-1-0.1-1.4c0-0.4,0-0.9-0.1-1.2c0-0.9-0.1-1.5-0.1-1.9l-1.4-11.5c-1.3,3.1-19,46.5,7.6,59.1c0,0,6.3,2.5,12.5-0.1
					c0.2-0.1,0.4-0.2,0.6-0.2c0.1,0,0.2-0.1,0.4-0.2c-0.2-0.2-0.3-0.3-0.5-0.5C327.7,92.5,327.4,92.1,327,91.7"/>
				<path class="st6" d="M334.3,62.8c-1.8-1.9-4-3.8-6.5-5.8c-20.8-16-20.2-22.5-20.2-22.5l-0.1,0.2c0.4,2.9,1,7.8,1.4,11.4
					c0-0.2,0-0.3,0-0.3s0.1,0.8,0.4,2.3c0.1,0.4,0.1,0.8,0.2,1.2c0.1,0.4,0.2,0.9,0.3,1.4c0.1,0.5,0.2,1,0.4,1.6
					c0.1,0.6,0.3,1.1,0.5,1.7c0.2,0.6,0.3,1.2,0.5,1.9c0.2,0.6,0.4,1.3,0.7,2c0.1,0.3,0.2,0.7,0.3,1c0.1,0.3,0.3,0.7,0.4,1
					c0.3,0.7,0.5,1.4,0.8,2.2c0.6,1.4,1.2,2.9,2,4.4c0.7,1.5,1.5,2.9,2.3,4.4c0.9,1.4,1.7,2.8,2.7,4.2c0.9,1.4,1.9,2.6,2.8,3.8
					c0.5,0.6,1,1.2,1.4,1.7c0.2,0.3,0.5,0.6,0.7,0.8c0.2,0.3,0.5,0.5,0.7,0.8c0.5,0.5,0.9,1,1.4,1.5c0.5,0.5,0.9,0.9,1.3,1.4
					c0.4,0.4,0.8,0.9,1.2,1.2c0.4,0.4,0.8,0.7,1.1,1c0.4,0.3,0.7,0.6,1,0.9c0.3,0.3,0.7,0.5,0.9,0.8c0.3,0.3,0.6,0.5,0.9,0.7
					c0.9-0.8,1.7-1.7,2.4-2.6C331.4,80.2,330.4,70.8,334.3,62.8"/>
				<path class="st6" d="M376.3,19.8l-1.9,14.9c0,0.5-0.1,1.3-0.1,2.5c0,0.5,0,1-0.1,1.6c-0.1,0.6-0.1,1.2-0.2,1.9
					c-0.1,0.7-0.1,1.4-0.2,2.1c-0.1,0.7-0.2,1.5-0.3,2.3c-0.1,0.8-0.2,1.7-0.4,2.5c-0.2,0.9-0.4,1.8-0.5,2.7
					c-0.1,0.5-0.2,0.9-0.3,1.4c-0.1,0.5-0.2,1-0.4,1.4c-0.2,1-0.5,2-0.7,3c-0.6,2-1.2,4.1-1.9,6.1c-0.7,2.1-1.6,4.1-2.4,6.2
					c-0.9,2-1.8,4.1-2.9,6c-1,2-2.1,3.8-3.2,5.7c-0.6,0.9-1.1,1.8-1.7,2.6c-0.3,0.4-0.6,0.9-0.8,1.3c-0.3,0.4-0.6,0.8-0.9,1.2
					c-0.6,0.8-1.1,1.6-1.6,2.3c-0.5,0.7-1.1,1.4-1.6,2.1c-0.5,0.7-1,1.3-1.5,1.9c-0.5,0.6-1,1.2-1.5,1.7c-0.5,0.5-0.9,1-1.3,1.5
					c-0.2,0.3-0.5,0.5-0.7,0.7c0.2,0.1,0.3,0.1,0.5,0.2c0.3,0.1,0.5,0.2,0.8,0.3c8,3.2,16.1,0.1,16.1,0.1
					C400.8,79.8,377.9,23.7,376.3,19.8"/>
				<path class="st6" d="M350.5,83.2c0.6-0.6,1.2-1.3,1.8-1.9c0.3-0.3,0.6-0.7,0.9-1c0.3-0.4,0.6-0.7,0.9-1.1
					c0.6-0.7,1.2-1.5,1.9-2.3c1.2-1.6,2.5-3.2,3.6-5c1.2-1.7,2.3-3.6,3.4-5.4c1-1.9,2.1-3.7,3-5.6c1-1.9,1.8-3.8,2.6-5.7
					c0.4-0.9,0.7-1.9,1.1-2.8c0.2-0.5,0.3-0.9,0.5-1.4c0.2-0.5,0.3-0.9,0.4-1.3c0.3-0.9,0.6-1.7,0.8-2.6c0.3-0.8,0.5-1.7,0.7-2.4
					c0.2-0.8,0.4-1.5,0.6-2.3c0.2-0.7,0.3-1.4,0.5-2.1c0.1-0.6,0.3-1.3,0.4-1.8c0.1-0.6,0.2-1.1,0.3-1.6c0.3-1.9,0.5-3,0.5-3
					s0,0.2,0,0.4c0.6-4.7,1.4-11,1.9-14.8c-0.1-0.1-0.1-0.2-0.1-0.2s0.8,8.4-26.1,29.1c-3.7,2.9-6.9,5.7-9.4,8.5
					c-1.7,1.8-3,3.7-4,5.7c-3.9,8-2.9,17.4,2.1,24.4c1,1.3,2,2.6,3.3,3.7c0.3-0.3,0.7-0.6,1.1-0.9c0.4-0.3,0.8-0.6,1.2-1
					c0.4-0.4,0.8-0.8,1.3-1.2c0.5-0.4,1-0.9,1.5-1.3c0.5-0.5,1-1,1.6-1.6C349.3,84.4,349.9,83.8,350.5,83.2"/>
			</g>
			<g>
				<g>
					<path class="st5" d="M307.6,140.1c0.2,9.3,6.1,13.1,12.9,13.1c4.9,0,7.9-0.9,10.4-1.9l1.2,4.9c-2.4,1.1-6.5,2.3-12.5,2.3
						c-11.6,0-18.5-7.6-18.5-19s6.7-20.3,17.7-20.3c12.3,0,15.6,10.8,15.6,17.8c0,1.4-0.2,2.5-0.2,3.2H307.6z M327.7,135.2
						c0.1-4.4-1.8-11.1-9.5-11.1c-6.9,0-10,6.4-10.5,11.1H327.7z"/>
					<path class="st5" d="M369.7,156.3c-1.8,0.9-5.8,2.2-10.8,2.2c-11.4,0-18.8-7.7-18.8-19.2c0-11.6,7.9-20,20.3-20
						c4.1,0,7.6,1,9.5,1.9l-1.6,5.3c-1.6-0.9-4.2-1.8-7.9-1.8c-8.6,0-13.3,6.4-13.3,14.3c0,8.7,5.6,14.1,13.1,14.1
						c3.9,0,6.5-1,8.4-1.9L369.7,156.3z"/>
					<path class="st5" d="M411.4,138.5c0,13.9-9.7,20-18.8,20c-10.2,0-18.1-7.5-18.1-19.4c0-12.6,8.3-20,18.7-20
						C404.1,119.1,411.4,127,411.4,138.5z M381.5,138.9c0,8.3,4.8,14.5,11.5,14.5c6.5,0,11.5-6.2,11.5-14.6
						c0-6.4-3.2-14.5-11.3-14.5C385,124.3,381.5,131.8,381.5,138.9z"/>
				</g>
				<g>
					<path class="st5" d="M304,164h1.7l1.1,3.3c0.1,0.3,0.2,0.6,0.2,1h0c0-0.4,0.1-0.7,0.2-1l1.1-3.3h1.7l-2.5,6.6
						c-0.2,0.6-0.5,1.1-1,1.4c-0.4,0.3-0.9,0.5-1.5,0.5c-0.3,0-0.5,0-0.8-0.1V171c0.2,0,0.4,0.1,0.6,0.1c0.3,0,0.5-0.1,0.7-0.3
						s0.4-0.4,0.5-0.8l0.1-0.3L304,164z"/>
					<path class="st5" d="M319.4,166.9c0,0.9-0.3,1.7-0.8,2.2c-0.5,0.5-1.2,0.8-2.1,0.8c-0.6,0-1.1-0.1-1.5-0.4
						c-0.4-0.2-0.8-0.6-1-1.1c-0.2-0.5-0.3-1-0.3-1.6c0-1,0.2-1.7,0.7-2.2c0.5-0.5,1.2-0.8,2.1-0.8c0.6,0,1.1,0.1,1.5,0.4
						c0.4,0.2,0.8,0.6,1,1C319.3,165.7,319.4,166.3,319.4,166.9z M315.4,166.9c0,0.6,0.1,1,0.3,1.3c0.2,0.3,0.5,0.4,0.9,0.4
						c0.4,0,0.7-0.1,0.9-0.4c0.2-0.3,0.3-0.7,0.3-1.3c0-0.6-0.1-1-0.3-1.3s-0.5-0.4-0.9-0.4c-0.4,0-0.7,0.1-0.9,0.4
						S315.4,166.3,315.4,166.9z"/>
					<path class="st5" d="M328,169.8l-0.2-0.7h-0.1c-0.2,0.3-0.4,0.5-0.7,0.6s-0.7,0.2-1.1,0.2c-0.7,0-1.2-0.2-1.5-0.5
						c-0.3-0.4-0.5-0.9-0.5-1.6V164h1.6v3.4c0,0.4,0.1,0.7,0.2,0.9c0.1,0.2,0.4,0.3,0.7,0.3c0.4,0,0.8-0.1,1-0.4s0.3-0.8,0.3-1.5
						V164h1.6v5.8H328z"/>
					<path class="st5" d="M337.4,163.9c0.2,0,0.4,0,0.5,0l-0.1,1.5c-0.1,0-0.3-0.1-0.5-0.1c-0.5,0-0.9,0.1-1.2,0.4s-0.4,0.6-0.4,1.1
						v3h-1.6V164h1.2l0.2,1h0.1c0.2-0.3,0.4-0.6,0.7-0.8C336.7,164,337,163.9,337.4,163.9z"/>
					<path class="st5" d="M350.6,168.6c0.3,0,0.6-0.1,1-0.2v1.2c-0.4,0.2-0.9,0.3-1.5,0.3c-0.6,0-1.1-0.2-1.4-0.5s-0.4-0.8-0.4-1.4
						v-2.8h-0.8v-0.7l0.9-0.5l0.5-1.2h1v1.2h1.6v1.2h-1.6v2.8c0,0.2,0.1,0.4,0.2,0.5C350.2,168.6,350.4,168.6,350.6,168.6z"/>
					<path class="st5" d="M358.6,169.9c-0.9,0-1.7-0.3-2.2-0.8c-0.5-0.5-0.8-1.3-0.8-2.2c0-1,0.2-1.7,0.7-2.3s1.2-0.8,2-0.8
						c0.8,0,1.5,0.2,1.9,0.7c0.5,0.5,0.7,1.1,0.7,1.9v0.8h-3.8c0,0.5,0.2,0.8,0.4,1.1c0.3,0.3,0.6,0.4,1.1,0.4c0.4,0,0.7,0,1-0.1
						s0.6-0.2,1-0.3v1.2c-0.3,0.1-0.6,0.2-0.9,0.3C359.4,169.9,359.1,169.9,358.6,169.9z M358.4,165c-0.3,0-0.6,0.1-0.8,0.3
						c-0.2,0.2-0.3,0.5-0.3,0.9h2.2c0-0.4-0.1-0.7-0.3-0.9C359,165.1,358.7,165,358.4,165z"/>
					<path class="st5" d="M366.7,166.8l-1.9-2.8h1.8l1.1,1.9l1.1-1.9h1.8l-1.9,2.8l2,3h-1.8l-1.2-2l-1.2,2h-1.8L366.7,166.8z"/>
					<path class="st5" d="M377.3,168.6c0.3,0,0.6-0.1,1-0.2v1.2c-0.4,0.2-0.9,0.3-1.5,0.3c-0.6,0-1.1-0.2-1.4-0.5s-0.4-0.8-0.4-1.4
						v-2.8h-0.8v-0.7l0.9-0.5l0.5-1.2h1v1.2h1.6v1.2h-1.6v2.8c0,0.2,0.1,0.4,0.2,0.5C376.9,168.6,377.1,168.6,377.3,168.6z"/>
				</g>
			</g>
		</g>
		<g>
			<g>
				<path class="st6" d="M53.2-34.5l-3.9-2.1C47.6-37.5,6.8-59.3,6.8-88.8c0-21.6,14.6-31.4,28.2-31.4c6.2,0,12.5,1.9,18.1,5.4
					c5.4-3.4,11.6-5.2,17.7-5.2c13.8,0,28.7,9.8,28.7,31.2c0,29.4-40.7,51.3-42.5,52.2L53.2-34.5z"/>
				<g>
					<path class="st7" d="M89.9-91c-2,1.2-5.4,3-7.9,4.5c0.2-0.1,0.2-0.1,0.2-0.1s-0.6,0.4-1.6,1c-0.2,0.2-0.5,0.3-0.8,0.5
						c-0.3,0.2-0.6,0.4-0.9,0.7c-0.3,0.2-0.7,0.5-1.1,0.7c-0.4,0.3-0.7,0.6-1.1,0.9c-0.4,0.3-0.8,0.6-1.2,1
						c-0.4,0.3-0.8,0.7-1.3,1.1c-0.2,0.2-0.4,0.4-0.7,0.6c-0.2,0.2-0.4,0.4-0.6,0.6c-0.4,0.4-0.9,0.8-1.3,1.3
						c-0.9,0.9-1.8,1.8-2.6,2.8c-0.9,1-1.7,2-2.5,3c-0.8,1.1-1.6,2.1-2.3,3.2c-0.7,1.1-1.3,2.2-2,3.2c-0.3,0.5-0.6,1.1-0.8,1.6
						c-0.1,0.3-0.3,0.5-0.4,0.8c-0.1,0.3-0.2,0.5-0.4,0.8c-0.2,0.5-0.5,1-0.7,1.5c-0.2,0.5-0.4,0.9-0.6,1.4
						c-0.2,0.4-0.4,0.9-0.5,1.3c-0.1,0.4-0.3,0.8-0.4,1.1c-0.1,0.4-0.3,0.7-0.4,1c-0.1,0.3-0.2,0.6-0.3,0.9
						c-0.1,0.3-0.2,0.6-0.3,0.9c7.1,3.3,16,0.6,19.5-7.1c1-2.1,1.9-4.5,2.6-7.3C85.2-89.6,90.1-91,90.1-91S90-91,89.9-91"/>
					<path class="st7" d="M47.5-70.8c0.2-0.9,0.4-1.7,0.7-2.5c0.2-0.6,0.4-1.2,0.7-1.7c-6.7-13-30.5-13-32.5-12.9l6.7,3.8
						c0.2,0.1,0.6,0.3,1.1,0.5c0.2,0.1,0.5,0.2,0.7,0.4c0.3,0.1,0.5,0.3,0.8,0.4c0.3,0.2,0.6,0.3,1,0.5c0.3,0.2,0.7,0.4,1,0.6
						c0.4,0.2,0.7,0.4,1.1,0.7c0.4,0.2,0.8,0.5,1.2,0.8c0.2,0.1,0.4,0.3,0.6,0.4c0.2,0.1,0.4,0.3,0.6,0.4c0.4,0.3,0.8,0.6,1.3,0.9
						c0.8,0.7,1.7,1.3,2.5,2.1c0.9,0.7,1.6,1.5,2.5,2.3c0.8,0.8,1.6,1.7,2.3,2.5c0.8,0.8,1.4,1.7,2.1,2.6c0.3,0.4,0.6,0.9,0.9,1.3
						c0.2,0.2,0.3,0.4,0.4,0.6c0.1,0.2,0.3,0.4,0.4,0.6c0.3,0.4,0.5,0.8,0.8,1.2c0.2,0.4,0.5,0.8,0.7,1.2c0.2,0.4,0.4,0.7,0.6,1.1
						c0.2,0.4,0.4,0.7,0.5,1c0.2,0.3,0.3,0.6,0.5,0.9c0.1,0.2,0.1,0.3,0.2,0.4c0.1-0.1,0.1-0.1,0.2-0.2c0.1-0.1,0.2-0.2,0.3-0.3
						c0.4-0.4,0.8-0.8,1.1-1.3c-1.3-2.9-1.4-5.6-1.4-5.6C47.2-68.9,47.4-69.8,47.5-70.8"/>
					<path class="st7" d="M50.7-75c-0.3,0.6-0.5,1.1-0.7,1.7c-0.3,0.8-0.5,1.6-0.7,2.5c-0.2,0.9-0.3,1.9-0.4,3c0,0,0,2.7,1.4,5.6
						c0.6,1.2,1.3,2.5,2.4,3.6c0.1,0.1,0.2,0.2,0.4,0.4c0.1,0.1,0.1,0.1,0.2,0.2c0.1-0.2,0.2-0.3,0.2-0.5c0.2-0.3,0.4-0.7,0.5-1.1
						c0.2-0.4,0.4-0.8,0.6-1.2c0.2-0.4,0.5-0.9,0.7-1.3c0.3-0.5,0.5-0.9,0.8-1.4c0.3-0.5,0.6-1,0.9-1.5c0.2-0.3,0.3-0.5,0.5-0.8
						c0.2-0.2,0.4-0.5,0.5-0.8c0.4-0.5,0.7-1,1.1-1.6c0.8-1,1.6-2.1,2.5-3.1c0.9-1,1.8-2,2.8-3c1-1,1.9-1.9,3-2.8c1-0.9,2-1.7,3-2.5
						c0.5-0.4,1-0.7,1.5-1.1c0.2-0.2,0.5-0.4,0.7-0.5c0.2-0.2,0.5-0.3,0.7-0.5c0.5-0.3,1-0.6,1.4-0.9c0.5-0.3,0.9-0.6,1.4-0.8
						c0.4-0.3,0.8-0.5,1.2-0.7c0.4-0.2,0.8-0.4,1.2-0.6c0.4-0.2,0.7-0.4,1-0.5c0.3-0.2,0.6-0.3,0.9-0.4c0.6-0.3,1.1-0.5,1.4-0.6
						l8-4.5C87.6-91.1,58.3-91.1,50.7-75"/>
					<path class="st7" d="M43-59.5c-0.1-0.3-0.2-0.5-0.3-0.8c-0.1-0.3-0.2-0.6-0.3-1c-0.1-0.3-0.3-0.7-0.4-1.1
						c-0.2-0.4-0.3-0.8-0.5-1.2c-0.2-0.4-0.4-0.8-0.6-1.2c-0.1-0.2-0.2-0.4-0.3-0.6c-0.1-0.2-0.2-0.4-0.3-0.6
						c-0.2-0.4-0.5-0.9-0.7-1.3c-0.5-0.9-1-1.8-1.6-2.7c-0.6-0.9-1.2-1.8-1.9-2.7c-0.7-0.8-1.4-1.7-2.1-2.5
						c-0.7-0.8-1.5-1.6-2.2-2.3c-0.4-0.4-0.7-0.7-1.1-1c-0.2-0.2-0.4-0.3-0.5-0.5c-0.2-0.2-0.4-0.3-0.5-0.5
						c-0.4-0.3-0.7-0.6-1.1-0.9c-0.3-0.3-0.7-0.5-1-0.8c-0.3-0.3-0.6-0.5-0.9-0.7c-0.3-0.2-0.6-0.4-0.9-0.6
						c-0.3-0.2-0.5-0.4-0.8-0.5c-0.2-0.2-0.5-0.3-0.7-0.4c-0.8-0.5-1.3-0.8-1.3-0.8s0.1,0,0.2,0.1c-2.1-1.2-4.9-2.8-6.6-3.7
						c-0.1,0-0.1,0-0.1,0S20.4-86.7,25-70c0.6,2.3,1.4,4.3,2.2,6.1c2.9,6.4,10.4,8.6,16.3,5.9c-0.1-0.2-0.1-0.4-0.2-0.7
						C43.2-59,43.1-59.3,43-59.5"/>
					<path class="st7" d="M50.3-100.9c-4.4,0-8,3.6-8,8c0,1.6,0.5,3,1.2,4.3c1.4,2.3,3.9,3.8,6.8,3.8c2.9,0,5.4-1.5,6.8-3.8
						c0.8-1.2,1.2-2.7,1.2-4.3C58.3-97.3,54.7-100.9,50.3-100.9"/>
				</g>
			</g>
			<g>
				<g>
					<path class="st5" d="M136.4-77.3c-0.1,1.8-0.2,3.9-0.2,7v14.8c0,5.8-1.2,9.4-3.6,11.6c-2.5,2.3-6,3-9.2,3c-3,0-6.4-0.7-8.5-2.1
						l1.2-3.5c1.7,1.1,4.3,2,7.5,2c4.7,0,8.2-2.5,8.2-8.9v-2.8h-0.1c-1.4,2.4-4.1,4.3-8.1,4.3c-6.3,0-10.8-5.4-10.8-12.4
						c0-8.6,5.6-13.5,11.4-13.5c4.4,0,6.8,2.3,7.9,4.4h0.1l0.2-3.8H136.4z M131.6-67.2c0-0.8-0.1-1.5-0.3-2.1
						c-0.8-2.7-3.1-4.9-6.5-4.9c-4.4,0-7.6,3.7-7.6,9.6c0,5,2.5,9.1,7.5,9.1c2.8,0,5.4-1.8,6.4-4.7c0.3-0.8,0.4-1.7,0.4-2.5V-67.2z"
						/>
					<path class="st5" d="M143.5-69.3c0-3-0.1-5.6-0.2-7.9h4l0.2,5h0.2c1.2-3.4,3.9-5.6,7-5.6c0.5,0,0.9,0.1,1.3,0.2v4.4
						c-0.5-0.1-0.9-0.2-1.6-0.2c-3.3,0-5.6,2.5-6.2,5.9c-0.1,0.6-0.2,1.4-0.2,2.2v13.6h-4.6V-69.3z"/>
					<path class="st5" d="M162.8-63.7c0.1,6.3,4.1,8.8,8.7,8.8c3.3,0,5.3-0.6,7-1.3l0.8,3.3c-1.6,0.7-4.4,1.6-8.5,1.6
						c-7.8,0-12.5-5.1-12.5-12.8s4.5-13.7,11.9-13.7c8.3,0,10.5,7.3,10.5,12c0,0.9-0.1,1.7-0.2,2.2H162.8z M176.3-67
						c0.1-2.9-1.2-7.5-6.4-7.5c-4.7,0-6.7,4.3-7.1,7.5H176.3z"/>
					<path class="st5" d="M189.1-63.7c0.1,6.3,4.1,8.8,8.7,8.8c3.3,0,5.3-0.6,7-1.3l0.8,3.3c-1.6,0.7-4.4,1.6-8.5,1.6
						c-7.8,0-12.5-5.1-12.5-12.8s4.5-13.7,11.9-13.7c8.3,0,10.5,7.3,10.5,12c0,0.9-0.1,1.7-0.2,2.2H189.1z M202.6-67
						c0.1-2.9-1.2-7.5-6.4-7.5c-4.7,0-6.7,4.3-7.1,7.5H202.6z"/>
					<path class="st5" d="M212.8-70.4c0-2.6-0.1-4.8-0.2-6.9h4.1l0.3,4.2h0.1c1.3-2.4,4.2-4.8,8.4-4.8c3.5,0,9,2.1,9,10.8v15.2h-4.6
						v-14.7c0-4.1-1.5-7.5-5.9-7.5c-3,0-5.4,2.2-6.2,4.7c-0.2,0.6-0.3,1.4-0.3,2.2v15.3h-4.6V-70.4z"/>
				</g>
				<g>
					<path class="st5" d="M116.5-45.6h1.7l1.1,3.3c0.1,0.3,0.2,0.6,0.2,1h0c0-0.4,0.1-0.7,0.2-1l1.1-3.3h1.7l-2.5,6.6
						c-0.2,0.6-0.5,1.1-1,1.4c-0.4,0.3-0.9,0.5-1.5,0.5c-0.3,0-0.5,0-0.8-0.1v-1.3c0.2,0,0.4,0.1,0.6,0.1c0.3,0,0.5-0.1,0.7-0.3
						s0.4-0.4,0.5-0.8l0.1-0.3L116.5-45.6z"/>
					<path class="st5" d="M131.9-42.7c0,0.9-0.3,1.7-0.8,2.2s-1.2,0.8-2.1,0.8c-0.6,0-1.1-0.1-1.5-0.4c-0.4-0.2-0.8-0.6-1-1.1
						c-0.2-0.5-0.3-1-0.3-1.6c0-1,0.2-1.7,0.7-2.2c0.5-0.5,1.2-0.8,2.1-0.8c0.6,0,1.1,0.1,1.5,0.4c0.4,0.2,0.8,0.6,1,1
						C131.8-43.8,131.9-43.3,131.9-42.7z M127.9-42.7c0,0.6,0.1,1,0.3,1.3c0.2,0.3,0.5,0.4,0.9,0.4c0.4,0,0.7-0.1,0.9-0.4
						c0.2-0.3,0.3-0.7,0.3-1.3c0-0.6-0.1-1-0.3-1.3c-0.2-0.3-0.5-0.4-0.9-0.4c-0.4,0-0.7,0.1-0.9,0.4S127.9-43.2,127.9-42.7z"/>
					<path class="st5" d="M140.6-39.7l-0.2-0.7h-0.1c-0.2,0.3-0.4,0.5-0.7,0.6s-0.7,0.2-1.1,0.2c-0.7,0-1.2-0.2-1.5-0.5
						c-0.3-0.4-0.5-0.9-0.5-1.6v-3.8h1.6v3.4c0,0.4,0.1,0.7,0.2,0.9c0.1,0.2,0.4,0.3,0.7,0.3c0.4,0,0.8-0.1,1-0.4s0.3-0.8,0.3-1.5
						v-2.7h1.6v5.8H140.6z"/>
					<path class="st5" d="M149.9-45.7c0.2,0,0.4,0,0.5,0l-0.1,1.5c-0.1,0-0.3-0.1-0.5-0.1c-0.5,0-0.9,0.1-1.2,0.4
						c-0.3,0.3-0.4,0.6-0.4,1.1v3h-1.6v-5.8h1.2l0.2,1h0.1c0.2-0.3,0.4-0.6,0.7-0.8S149.5-45.7,149.9-45.7z"/>
					<path class="st5" d="M163.1-40.9c0.3,0,0.6-0.1,1-0.2v1.2c-0.4,0.2-0.9,0.3-1.5,0.3c-0.6,0-1.1-0.2-1.4-0.5
						c-0.3-0.3-0.4-0.8-0.4-1.4v-2.8h-0.8V-45l0.9-0.5l0.5-1.2h1v1.2h1.6v1.2h-1.6v2.8c0,0.2,0.1,0.4,0.2,0.5
						C162.7-41,162.9-40.9,163.1-40.9z"/>
					<path class="st5" d="M171.1-39.6c-0.9,0-1.7-0.3-2.2-0.8c-0.5-0.5-0.8-1.3-0.8-2.2c0-1,0.2-1.7,0.7-2.3c0.5-0.5,1.2-0.8,2-0.8
						c0.8,0,1.5,0.2,1.9,0.7c0.5,0.5,0.7,1.1,0.7,1.9v0.8h-3.8c0,0.5,0.2,0.8,0.4,1.1c0.3,0.3,0.6,0.4,1.1,0.4c0.4,0,0.7,0,1-0.1
						s0.6-0.2,1-0.3v1.2c-0.3,0.1-0.6,0.2-0.9,0.3C172-39.7,171.6-39.6,171.1-39.6z M170.9-44.5c-0.3,0-0.6,0.1-0.8,0.3
						c-0.2,0.2-0.3,0.5-0.3,0.9h2.2c0-0.4-0.1-0.7-0.3-0.9C171.5-44.4,171.2-44.5,170.9-44.5z"/>
					<path class="st5" d="M179.2-42.7l-1.9-2.8h1.8l1.1,1.9l1.1-1.9h1.8l-1.9,2.8l2,3h-1.8l-1.2-2l-1.2,2h-1.8L179.2-42.7z"/>
					<path class="st5" d="M189.8-40.9c0.3,0,0.6-0.1,1-0.2v1.2c-0.4,0.2-0.9,0.3-1.5,0.3c-0.6,0-1.1-0.2-1.4-0.5
						c-0.3-0.3-0.4-0.8-0.4-1.4v-2.8h-0.8V-45l0.9-0.5l0.5-1.2h1v1.2h1.6v1.2h-1.6v2.8c0,0.2,0.1,0.4,0.2,0.5
						C189.4-41,189.6-40.9,189.8-40.9z"/>
				</g>
			</g>
		</g>
		<g>
			<g>
				<g>
					<g>
						<path class="st5" d="M-149.4,146.1c-2,0.7-6.1,1.9-10.9,1.9c-5.4,0-9.8-1.4-13.2-4.7c-3-2.9-4.9-7.7-4.9-13.2
							c0.1-10.6,7.3-18.3,19.2-18.3c4.1,0,7.3,0.9,8.8,1.6l-1.1,3.7c-1.9-0.8-4.3-1.5-7.8-1.5c-8.6,0-14.2,5.4-14.2,14.2
							c0,9,5.4,14.3,13.7,14.3c3,0,5-0.4,6.1-0.9v-10.6h-7.2v-3.7h11.7V146.1z"/>
						<path class="st5" d="M-142.4,112.8c2.3-0.5,5.6-0.7,8.8-0.7c4.9,0,8,0.9,10.2,2.9c1.8,1.6,2.8,4,2.8,6.7c0,4.7-2.9,7.8-6.7,9
							v0.2c2.7,0.9,4.4,3.5,5.2,7.1c1.2,4.9,2,8.4,2.7,9.7h-4.7c-0.6-1-1.4-4-2.4-8.5c-1.1-4.9-2.9-6.7-7.1-6.9h-4.3v15.3h-4.6
							V112.8z M-137.9,128.9h4.7c4.9,0,8-2.7,8-6.7c0-4.6-3.3-6.6-8.1-6.6c-2.2,0-3.8,0.2-4.5,0.4V128.9z"/>
						<path class="st5" d="M-95.8,131.1h-13.8v12.8h15.3v3.8h-19.9v-35.4H-95v3.8h-14.5v11.2h13.8V131.1z"/>
						<path class="st5" d="M-70,131.1h-13.8v12.8h15.3v3.8h-19.9v-35.4h19.1v3.8h-14.5v11.2H-70V131.1z"/>
						<path class="st5" d="M-62.5,147.7v-35.4h5l11.3,17.9c2.6,4.1,4.7,7.9,6.4,11.5l0.1-0.1c-0.4-4.7-0.5-9-0.5-14.5v-14.8h4.3
							v35.4h-4.6l-11.2-18c-2.5-3.9-4.8-8-6.6-11.8l-0.2,0.1c0.3,4.5,0.4,8.7,0.4,14.6v15.1H-62.5z"/>
					</g>
				</g>
				<g>
					<path class="st5" d="M-170.4,159.9c-0.7,0-1.2-0.2-1.6-0.7h-0.1c0.1,0.5,0.1,0.8,0.1,0.8v2.4h-1.6V154h1.3l0.2,0.8h0.1
						c0.4-0.6,0.9-0.9,1.7-0.9c0.7,0,1.2,0.3,1.6,0.8c0.4,0.5,0.6,1.3,0.6,2.2c0,0.6-0.1,1.2-0.3,1.6c-0.2,0.5-0.4,0.8-0.8,1
						C-169.6,159.8-170,159.9-170.4,159.9z M-170.9,155.1c-0.4,0-0.7,0.1-0.9,0.4s-0.3,0.6-0.3,1.2v0.2c0,0.6,0.1,1.1,0.3,1.3
						c0.2,0.3,0.5,0.4,0.9,0.4c0.7,0,1.1-0.6,1.1-1.8c0-0.6-0.1-1-0.3-1.3C-170.3,155.3-170.5,155.1-170.9,155.1z"/>
					<path class="st5" d="M-160.4,153.9c0.2,0,0.4,0,0.5,0l-0.1,1.5c-0.1,0-0.3-0.1-0.5-0.1c-0.5,0-0.9,0.1-1.2,0.4
						c-0.3,0.3-0.4,0.6-0.4,1.1v3h-1.6V154h1.2l0.2,1h0.1c0.2-0.3,0.4-0.6,0.7-0.8C-161.1,154-160.8,153.9-160.4,153.9z"/>
					<path class="st5" d="M-150.4,156.9c0,0.9-0.3,1.7-0.8,2.2c-0.5,0.5-1.2,0.8-2.1,0.8c-0.6,0-1.1-0.1-1.5-0.4
						c-0.4-0.2-0.8-0.6-1-1.1c-0.2-0.5-0.3-1-0.3-1.6c0-1,0.2-1.7,0.7-2.2c0.5-0.5,1.2-0.8,2.1-0.8c0.6,0,1.1,0.1,1.5,0.4
						c0.4,0.2,0.8,0.6,1,1C-150.5,155.7-150.4,156.3-150.4,156.9z M-154.4,156.9c0,0.6,0.1,1,0.3,1.3c0.2,0.3,0.5,0.4,0.9,0.4
						c0.4,0,0.7-0.1,0.9-0.4c0.2-0.3,0.3-0.7,0.3-1.3c0-0.6-0.1-1-0.3-1.3s-0.5-0.4-0.9-0.4c-0.4,0-0.7,0.1-0.9,0.4
						S-154.4,156.3-154.4,156.9z"/>
					<path class="st5" d="M-144,159.9c-0.7,0-1.2-0.3-1.6-0.8c-0.4-0.5-0.6-1.3-0.6-2.2c0-1,0.2-1.7,0.6-2.2
						c0.4-0.5,0.9-0.8,1.6-0.8c0.7,0,1.3,0.3,1.7,0.9h0.1c-0.1-0.4-0.1-0.8-0.1-1.2v-1.9h1.6v8.1h-1.2l-0.3-0.8h-0.1
						C-142.7,159.6-143.3,159.9-144,159.9z M-143.4,158.6c0.4,0,0.7-0.1,0.9-0.4c0.2-0.2,0.3-0.6,0.3-1.2v-0.2
						c0-0.6-0.1-1.1-0.3-1.3c-0.2-0.3-0.5-0.4-0.9-0.4c-0.4,0-0.6,0.2-0.8,0.5c-0.2,0.3-0.3,0.7-0.3,1.3c0,0.6,0.1,1,0.3,1.3
						C-144.1,158.5-143.8,158.6-143.4,158.6z"/>
					<path class="st5" d="M-131.8,159.8l-0.2-0.7h-0.1c-0.2,0.3-0.4,0.5-0.7,0.6c-0.3,0.1-0.7,0.2-1.1,0.2c-0.7,0-1.2-0.2-1.5-0.5
						c-0.3-0.4-0.5-0.9-0.5-1.6V154h1.6v3.4c0,0.4,0.1,0.7,0.2,0.9s0.4,0.3,0.7,0.3c0.4,0,0.8-0.1,1-0.4s0.3-0.8,0.3-1.5V154h1.6
						v5.8H-131.8z"/>
					<path class="st5" d="M-123.3,159.9c-1.8,0-2.7-1-2.7-3c0-1,0.2-1.7,0.7-2.3s1.2-0.8,2.1-0.8c0.7,0,1.3,0.1,1.8,0.4l-0.5,1.2
						c-0.3-0.1-0.5-0.2-0.7-0.2s-0.4-0.1-0.6-0.1c-0.8,0-1.2,0.6-1.2,1.8c0,1.1,0.4,1.7,1.2,1.7c0.3,0,0.6,0,0.8-0.1
						c0.3-0.1,0.5-0.2,0.8-0.4v1.4c-0.3,0.2-0.5,0.3-0.8,0.3S-122.9,159.9-123.3,159.9z"/>
					<path class="st5" d="M-114.5,158.6c0.3,0,0.6-0.1,1-0.2v1.2c-0.4,0.2-0.9,0.3-1.5,0.3c-0.6,0-1.1-0.2-1.4-0.5
						c-0.3-0.3-0.4-0.8-0.4-1.4v-2.8h-0.8v-0.7l0.9-0.5l0.5-1.2h1v1.2h1.6v1.2h-1.6v2.8c0,0.2,0.1,0.4,0.2,0.5
						C-114.9,158.6-114.8,158.6-114.5,158.6z"/>
					<path class="st5" d="M-105.1,158.1c0,0.6-0.2,1.1-0.6,1.4c-0.4,0.3-1,0.5-1.9,0.5c-0.4,0-0.8,0-1.1-0.1
						c-0.3-0.1-0.6-0.1-0.8-0.3v-1.3c0.3,0.1,0.6,0.3,1,0.3c0.4,0.1,0.7,0.1,1,0.1c0.6,0,0.9-0.2,0.9-0.5c0-0.1,0-0.2-0.1-0.3
						c-0.1-0.1-0.2-0.2-0.4-0.3c-0.2-0.1-0.4-0.2-0.8-0.3c-0.4-0.2-0.8-0.4-1-0.5c-0.2-0.2-0.4-0.3-0.5-0.5
						c-0.1-0.2-0.1-0.5-0.1-0.8c0-0.5,0.2-0.9,0.6-1.2c0.4-0.3,1-0.4,1.7-0.4c0.7,0,1.4,0.2,2,0.5l-0.5,1.1
						c-0.3-0.1-0.6-0.2-0.8-0.3s-0.5-0.1-0.8-0.1c-0.5,0-0.7,0.1-0.7,0.4c0,0.1,0.1,0.3,0.2,0.4c0.2,0.1,0.5,0.3,1,0.5
						c0.5,0.2,0.8,0.4,1,0.5c0.2,0.2,0.4,0.3,0.5,0.6C-105.2,157.5-105.1,157.8-105.1,158.1z"/>
				</g>
			</g>
			<path class="st8" d="M-197.4,128.6c-5.3-4.5-6.8-10.3-6.1-17.1c2.9-29.7,55.3-53.8,109.6-50.3c-59.2-6.9-108,18.8-113.1,49.6
				c-1.3,7.6,1,15.5,7.1,20.5L-197.4,128.6"/>
			<path class="st9" d="M-64.4,62.6c-40.4,8.6-68.8,46.5-101.2,11C-121.2,89-107.5,62.4-73,59.8c-19.4-19.6-59.5-29.1-83-2.8
				c12-3.7,32.2-12.8,68.9,1.3c-37.2-6.9-65,2.1-83.3,11.6C-156.9,17.7-101.5,17.1-64.4,62.6"/>
		</g>
		<g class="st0">
			<g class="st2">
				<g>
					<g>
						<path class="st5" d="M-157.8-81.9c-2,0.7-6.1,1.9-10.9,1.9c-5.4,0-9.8-1.4-13.2-4.7c-3-2.9-4.9-7.7-4.9-13.2
							c0.1-10.6,7.3-18.3,19.2-18.3c4.1,0,7.3,0.9,8.8,1.6l-1.1,3.7c-1.9-0.8-4.3-1.5-7.8-1.5c-8.6,0-14.2,5.4-14.2,14.2
							c0,9,5.4,14.3,13.7,14.3c3,0,5-0.4,6.1-0.9v-10.6h-7.2v-3.7h11.7V-81.9z"/>
						<path class="st5" d="M-150.8-115.2c2.3-0.5,5.6-0.7,8.8-0.7c4.9,0,8,0.9,10.2,2.9c1.8,1.6,2.8,4,2.8,6.7c0,4.7-2.9,7.8-6.7,9
							v0.2c2.7,0.9,4.4,3.5,5.2,7.1c1.2,4.9,2,8.4,2.7,9.7h-4.7c-0.6-1-1.4-4-2.4-8.5c-1.1-4.9-2.9-6.7-7.1-6.9h-4.3v15.3h-4.6
							V-115.2z M-146.2-99.1h4.7c4.9,0,8-2.7,8-6.7c0-4.6-3.3-6.6-8.1-6.6c-2.2,0-3.8,0.2-4.5,0.4V-99.1z"/>
						<path class="st5" d="M-104.2-96.9H-118v12.8h15.3v3.8h-19.9v-35.4h19.1v3.8H-118v11.2h13.8V-96.9z"/>
						<path class="st5" d="M-78.4-96.9h-13.8v12.8h15.3v3.8h-19.9v-35.4h19.1v3.8h-14.5v11.2h13.8V-96.9z"/>
						<path class="st5" d="M-70.8-80.3v-35.4h5l11.3,17.9c2.6,4.1,4.7,7.9,6.4,11.5l0.1-0.1c-0.4-4.7-0.5-9-0.5-14.5v-14.8h4.3v35.4
							h-4.6l-11.2-18c-2.5-3.9-4.8-8-6.6-11.8l-0.2,0.1c0.3,4.5,0.4,8.7,0.4,14.6v15.1H-70.8z"/>
					</g>
				</g>
				<g>
					<path class="st5" d="M-182.8-74h1.7l1.1,3.3c0.1,0.3,0.2,0.6,0.2,1h0c0-0.4,0.1-0.7,0.2-1l1.1-3.3h1.7l-2.5,6.6
						c-0.2,0.6-0.5,1.1-1,1.4c-0.4,0.3-0.9,0.5-1.5,0.5c-0.3,0-0.5,0-0.8-0.1V-67c0.2,0,0.4,0.1,0.6,0.1c0.3,0,0.5-0.1,0.7-0.3
						s0.4-0.4,0.5-0.8l0.1-0.3L-182.8-74z"/>
					<path class="st5" d="M-167.4-71.1c0,0.9-0.3,1.7-0.8,2.2s-1.2,0.8-2.1,0.8c-0.6,0-1.1-0.1-1.5-0.4c-0.4-0.2-0.8-0.6-1-1.1
						c-0.2-0.5-0.3-1-0.3-1.6c0-1,0.2-1.7,0.7-2.2s1.2-0.8,2.1-0.8c0.6,0,1.1,0.1,1.5,0.4c0.4,0.2,0.8,0.6,1,1
						C-167.6-72.2-167.4-71.7-167.4-71.1z M-171.5-71.1c0,0.6,0.1,1,0.3,1.3c0.2,0.3,0.5,0.4,0.9,0.4c0.4,0,0.7-0.1,0.9-0.4
						c0.2-0.3,0.3-0.7,0.3-1.3c0-0.6-0.1-1-0.3-1.3c-0.2-0.3-0.5-0.4-0.9-0.4c-0.4,0-0.7,0.1-0.9,0.4S-171.5-71.7-171.5-71.1z"/>
					<path class="st5" d="M-158.8-68.2l-0.2-0.7h-0.1c-0.2,0.3-0.4,0.5-0.7,0.6c-0.3,0.1-0.7,0.2-1.1,0.2c-0.7,0-1.2-0.2-1.5-0.5
						c-0.3-0.4-0.5-0.9-0.5-1.6V-74h1.6v3.4c0,0.4,0.1,0.7,0.2,0.9s0.4,0.3,0.7,0.3c0.4,0,0.8-0.1,1-0.4s0.3-0.8,0.3-1.5V-74h1.6
						v5.8H-158.8z"/>
					<path class="st5" d="M-149.5-74.1c0.2,0,0.4,0,0.5,0l-0.1,1.5c-0.1,0-0.3-0.1-0.5-0.1c-0.5,0-0.9,0.1-1.2,0.4
						c-0.3,0.3-0.4,0.6-0.4,1.1v3h-1.6V-74h1.2l0.2,1h0.1c0.2-0.3,0.4-0.6,0.7-0.8C-150.2-74-149.8-74.1-149.5-74.1z"/>
					<path class="st5" d="M-136.3-69.3c0.3,0,0.6-0.1,1-0.2v1.2c-0.4,0.2-0.9,0.3-1.5,0.3c-0.6,0-1.1-0.2-1.4-0.5
						c-0.3-0.3-0.4-0.8-0.4-1.4v-2.8h-0.8v-0.7l0.9-0.5l0.5-1.2h1v1.2h1.6v1.2h-1.6v2.8c0,0.2,0.1,0.4,0.2,0.5
						C-136.6-69.4-136.5-69.3-136.3-69.3z"/>
					<path class="st5" d="M-128.2-68.1c-0.9,0-1.7-0.3-2.2-0.8s-0.8-1.3-0.8-2.2c0-1,0.2-1.7,0.7-2.3c0.5-0.5,1.2-0.8,2-0.8
						c0.8,0,1.5,0.2,1.9,0.7c0.5,0.5,0.7,1.1,0.7,1.9v0.8h-3.8c0,0.5,0.2,0.8,0.4,1.1s0.6,0.4,1.1,0.4c0.4,0,0.7,0,1-0.1
						s0.6-0.2,1-0.3v1.2c-0.3,0.1-0.6,0.2-0.9,0.3C-127.4-68.1-127.8-68.1-128.2-68.1z M-128.5-73c-0.3,0-0.6,0.1-0.8,0.3
						c-0.2,0.2-0.3,0.5-0.3,0.9h2.2c0-0.4-0.1-0.7-0.3-0.9C-127.9-72.9-128.1-73-128.5-73z"/>
					<path class="st5" d="M-120.2-71.1l-1.9-2.8h1.8l1.1,1.9l1.1-1.9h1.8l-1.9,2.8l2,3h-1.8l-1.2-2l-1.2,2h-1.8L-120.2-71.1z"/>
					<path class="st5" d="M-109.6-69.3c0.3,0,0.6-0.1,1-0.2v1.2c-0.4,0.2-0.9,0.3-1.5,0.3c-0.6,0-1.1-0.2-1.4-0.5
						c-0.3-0.3-0.4-0.8-0.4-1.4v-2.8h-0.8v-0.7l0.9-0.5l0.5-1.2h1v1.2h1.6v1.2h-1.6v2.8c0,0.2,0.1,0.4,0.2,0.5
						C-109.9-69.4-109.8-69.3-109.6-69.3z"/>
				</g>
			</g>
			<g class="st2">
				<path class="st8" d="M-135.9-175c38.8,0,70.3,31.5,70.3,70.3c0,38.8-31.5,70.3-70.3,70.3c-38.8,0-70.3-31.5-70.3-70.3
					c0-0.4,0-0.8,0-1.2c0.7,36.2,30.2,65.4,66.6,65.4c36.8,0,66.6-29.8,66.6-66.6c0-36.8-29.8-66.6-66.6-66.6c-8,0-15.6,1.4-22.7,4
					C-154.1-173.2-145.2-175-135.9-175"/>
				<path class="st10" d="M-90.7-158.5c-7.8-10.1-42.2-27.6-75.5-11.8c-17,8.6-30.2,23.7-36.4,42C-175.1-154.3-110-113.2-90.7-158.5
					"/>
				<path class="st11" d="M-90.7-158.5c-38.3-7.4-95.1-0.7-112,30.2C-175.1-154.3-110-113.2-90.7-158.5"/>
			</g>
		</g>
		<g>
			<g>
				<g>
					<path class="st5" d="M307.6,340.9c0.2,9.3,6.1,13.1,12.9,13.1c4.9,0,7.9-0.9,10.4-1.9l1.2,4.9c-2.4,1.1-6.5,2.3-12.5,2.3
						c-11.6,0-18.5-7.6-18.5-19s6.7-20.3,17.7-20.3c12.3,0,15.6,10.8,15.6,17.8c0,1.4-0.2,2.5-0.2,3.2H307.6z M327.7,335.9
						c0.1-4.4-1.8-11.1-9.5-11.1c-6.9,0-10,6.4-10.5,11.1H327.7z"/>
					<path class="st5" d="M369.7,357.1c-1.8,0.9-5.8,2.2-10.8,2.2c-11.4,0-18.8-7.7-18.8-19.2c0-11.6,7.9-20,20.3-20
						c4.1,0,7.6,1,9.5,1.9l-1.6,5.3c-1.6-0.9-4.2-1.8-7.9-1.8c-8.6,0-13.3,6.4-13.3,14.3c0,8.7,5.6,14.1,13.1,14.1
						c3.9,0,6.5-1,8.4-1.9L369.7,357.1z"/>
					<path class="st5" d="M411.4,339.3c0,13.9-9.7,20-18.8,20c-10.2,0-18.1-7.5-18.1-19.4c0-12.6,8.3-20,18.7-20
						C404.1,319.9,411.4,327.8,411.4,339.3z M381.5,339.7c0,8.3,4.8,14.5,11.5,14.5c6.5,0,11.5-6.2,11.5-14.6
						c0-6.4-3.2-14.5-11.3-14.5C385,325,381.5,332.5,381.5,339.7z"/>
				</g>
				<g>
					<path class="st5" d="M304,364.7h1.7l1.1,3.3c0.1,0.3,0.2,0.6,0.2,1h0c0-0.4,0.1-0.7,0.2-1l1.1-3.3h1.7l-2.5,6.6
						c-0.2,0.6-0.5,1.1-1,1.4c-0.4,0.3-0.9,0.5-1.5,0.5c-0.3,0-0.5,0-0.8-0.1v-1.3c0.2,0,0.4,0.1,0.6,0.1c0.3,0,0.5-0.1,0.7-0.3
						s0.4-0.4,0.5-0.8l0.1-0.3L304,364.7z"/>
					<path class="st5" d="M319.4,367.6c0,0.9-0.3,1.7-0.8,2.2c-0.5,0.5-1.2,0.8-2.1,0.8c-0.6,0-1.1-0.1-1.5-0.4
						c-0.4-0.2-0.8-0.6-1-1.1c-0.2-0.5-0.3-1-0.3-1.6c0-1,0.2-1.7,0.7-2.2c0.5-0.5,1.2-0.8,2.1-0.8c0.6,0,1.1,0.1,1.5,0.4
						c0.4,0.2,0.8,0.6,1,1C319.3,366.5,319.4,367,319.4,367.6z M315.4,367.6c0,0.6,0.1,1,0.3,1.3c0.2,0.3,0.5,0.4,0.9,0.4
						c0.4,0,0.7-0.1,0.9-0.4c0.2-0.3,0.3-0.7,0.3-1.3c0-0.6-0.1-1-0.3-1.3s-0.5-0.4-0.9-0.4c-0.4,0-0.7,0.1-0.9,0.4
						S315.4,367.1,315.4,367.6z"/>
					<path class="st5" d="M328,370.6l-0.2-0.7h-0.1c-0.2,0.3-0.4,0.5-0.7,0.6s-0.7,0.2-1.1,0.2c-0.7,0-1.2-0.2-1.5-0.5
						c-0.3-0.4-0.5-0.9-0.5-1.6v-3.8h1.6v3.4c0,0.4,0.1,0.7,0.2,0.9c0.1,0.2,0.4,0.3,0.7,0.3c0.4,0,0.8-0.1,1-0.4s0.3-0.8,0.3-1.5
						v-2.7h1.6v5.8H328z"/>
					<path class="st5" d="M337.4,364.6c0.2,0,0.4,0,0.5,0l-0.1,1.5c-0.1,0-0.3-0.1-0.5-0.1c-0.5,0-0.9,0.1-1.2,0.4s-0.4,0.6-0.4,1.1
						v3h-1.6v-5.8h1.2l0.2,1h0.1c0.2-0.3,0.4-0.6,0.7-0.8C336.7,364.7,337,364.6,337.4,364.6z"/>
					<path class="st5" d="M350.6,369.4c0.3,0,0.6-0.1,1-0.2v1.2c-0.4,0.2-0.9,0.3-1.5,0.3c-0.6,0-1.1-0.2-1.4-0.5s-0.4-0.8-0.4-1.4
						v-2.8h-0.8v-0.7l0.9-0.5l0.5-1.2h1v1.2h1.6v1.2h-1.6v2.8c0,0.2,0.1,0.4,0.2,0.5C350.2,369.4,350.4,369.4,350.6,369.4z"/>
					<path class="st5" d="M358.6,370.7c-0.9,0-1.7-0.3-2.2-0.8c-0.5-0.5-0.8-1.3-0.8-2.2c0-1,0.2-1.7,0.7-2.3s1.2-0.8,2-0.8
						c0.8,0,1.5,0.2,1.9,0.7c0.5,0.5,0.7,1.1,0.7,1.9v0.8h-3.8c0,0.5,0.2,0.8,0.4,1.1c0.3,0.3,0.6,0.4,1.1,0.4c0.4,0,0.7,0,1-0.1
						s0.6-0.2,1-0.3v1.2c-0.3,0.1-0.6,0.2-0.9,0.3C359.4,370.6,359.1,370.7,358.6,370.7z M358.4,365.8c-0.3,0-0.6,0.1-0.8,0.3
						c-0.2,0.2-0.3,0.5-0.3,0.9h2.2c0-0.4-0.1-0.7-0.3-0.9C359,365.9,358.7,365.8,358.4,365.8z"/>
					<path class="st5" d="M366.7,367.6l-1.9-2.8h1.8l1.1,1.9l1.1-1.9h1.8l-1.9,2.8l2,3h-1.8l-1.2-2l-1.2,2h-1.8L366.7,367.6z"/>
					<path class="st5" d="M377.3,369.4c0.3,0,0.6-0.1,1-0.2v1.2c-0.4,0.2-0.9,0.3-1.5,0.3c-0.6,0-1.1-0.2-1.4-0.5s-0.4-0.8-0.4-1.4
						v-2.8h-0.8v-0.7l0.9-0.5l0.5-1.2h1v1.2h1.6v1.2h-1.6v2.8c0,0.2,0.1,0.4,0.2,0.5C376.9,369.4,377.1,369.4,377.3,369.4z"/>
				</g>
			</g>
			<path class="st10" d="M342.9,300.7c12.4-12.1,32.4-12.1,44.8,0H342.9 M342.9,300.7c17.3-0.2,31.5-14.4,31.7-31.7
				C357.3,269.2,343.1,283.4,342.9,300.7z M342.9,300.7c12.1-12.4,12.1-32.4,0-44.8C330.8,268.3,330.8,288.3,342.9,300.7z
				 M342.9,300.7c-0.2-17.3-14.4-31.5-31.7-31.7C311.5,286.3,325.6,300.5,342.9,300.7z M342.9,300.7c-12.4-12.1-32.4-12.1-44.8,0
				H342.9z"/>
			<rect x="300" y="375" class="st10" width="86" height="4"/>
		</g>
		<g>
			<g>
				<g>
					<g>
						<path class="st5" d="M94.2,314.1c-0.1,1.8-0.2,3.9-0.2,7v14.8c0,5.8-1.2,9.4-3.6,11.6c-2.5,2.3-6,3-9.2,3
							c-3,0-6.4-0.7-8.5-2.1l1.2-3.5c1.7,1,4.3,2,7.5,2c4.7,0,8.2-2.5,8.2-8.9v-2.8h-0.1c-1.4,2.4-4.1,4.3-8.1,4.3
							c-6.3,0-10.8-5.4-10.8-12.4c0-8.6,5.6-13.5,11.4-13.5c4.4,0,6.8,2.3,7.9,4.4h0.1l0.2-3.8H94.2z M89.4,324.2
							c0-0.8-0.1-1.5-0.3-2.1c-0.8-2.7-3.1-4.9-6.5-4.9c-4.4,0-7.6,3.7-7.6,9.6c0,5,2.5,9.1,7.5,9.1c2.8,0,5.4-1.8,6.4-4.7
							c0.3-0.8,0.4-1.7,0.4-2.5V324.2z"/>
						<path class="st5" d="M101.3,322.1c0-3-0.1-5.6-0.2-7.9h4l0.2,5h0.2c1.2-3.4,3.9-5.6,7-5.6c0.5,0,0.9,0.1,1.3,0.2v4.4
							c-0.5-0.1-0.9-0.2-1.6-0.2c-3.3,0-5.6,2.5-6.2,5.9c-0.1,0.6-0.2,1.4-0.2,2.2v13.6h-4.6V322.1z"/>
						<path class="st5" d="M120.5,327.7c0.1,6.3,4.1,8.8,8.7,8.8c3.3,0,5.3-0.6,7-1.3l0.8,3.3c-1.6,0.7-4.4,1.6-8.5,1.6
							c-7.8,0-12.5-5.1-12.5-12.8s4.5-13.7,11.9-13.7c8.3,0,10.5,7.3,10.5,12c0,0.9-0.1,1.7-0.2,2.2H120.5z M134.1,324.4
							c0.1-2.9-1.2-7.5-6.4-7.5c-4.7,0-6.7,4.3-7.1,7.5H134.1z"/>
						<path class="st5" d="M146.8,327.7c0.1,6.3,4.1,8.8,8.7,8.8c3.3,0,5.3-0.6,7-1.3l0.8,3.3c-1.6,0.7-4.4,1.6-8.5,1.6
							c-7.8,0-12.5-5.1-12.5-12.8s4.5-13.7,11.9-13.7c8.3,0,10.5,7.3,10.5,12c0,0.9-0.1,1.7-0.2,2.2H146.8z M160.4,324.4
							c0.1-2.9-1.2-7.5-6.4-7.5c-4.7,0-6.7,4.3-7.1,7.5H160.4z"/>
						<path class="st5" d="M170.6,321c0-2.6-0.1-4.8-0.2-6.9h4.1l0.3,4.2h0.1c1.3-2.4,4.2-4.8,8.4-4.8c3.5,0,9,2.1,9,10.8v15.2h-4.6
							v-14.7c0-4.1-1.5-7.5-5.9-7.5c-3,0-5.4,2.2-6.2,4.7c-0.2,0.6-0.3,1.4-0.3,2.2v15.3h-4.6V321z"/>
					</g>
				</g>
				<g>
					<path class="st5" d="M74.3,345.8H76l1.1,3.3c0.1,0.3,0.2,0.6,0.2,1h0c0-0.4,0.1-0.7,0.2-1l1.1-3.3h1.7l-2.5,6.6
						c-0.2,0.6-0.5,1.1-1,1.4s-0.9,0.5-1.5,0.5c-0.3,0-0.5,0-0.8-0.1v-1.3c0.2,0,0.4,0.1,0.6,0.1c0.3,0,0.5-0.1,0.7-0.3
						s0.4-0.4,0.5-0.8l0.1-0.3L74.3,345.8z"/>
					<path class="st5" d="M89.7,348.7c0,0.9-0.3,1.7-0.8,2.2c-0.5,0.5-1.2,0.8-2.1,0.8c-0.6,0-1.1-0.1-1.5-0.4
						c-0.4-0.2-0.8-0.6-1-1.1c-0.2-0.5-0.3-1-0.3-1.6c0-1,0.2-1.7,0.7-2.2c0.5-0.5,1.2-0.8,2.1-0.8c0.6,0,1.1,0.1,1.5,0.4
						c0.4,0.2,0.8,0.6,1,1C89.6,347.6,89.7,348.1,89.7,348.7z M85.7,348.7c0,0.6,0.1,1,0.3,1.3c0.2,0.3,0.5,0.4,0.9,0.4
						c0.4,0,0.7-0.1,0.9-0.4c0.2-0.3,0.3-0.7,0.3-1.3c0-0.6-0.1-1-0.3-1.3s-0.5-0.4-0.9-0.4c-0.4,0-0.7,0.1-0.9,0.4
						S85.7,348.1,85.7,348.7z"/>
					<path class="st5" d="M98.3,351.6l-0.2-0.7H98c-0.2,0.3-0.4,0.5-0.7,0.6s-0.7,0.2-1.1,0.2c-0.7,0-1.2-0.2-1.5-0.5
						c-0.3-0.4-0.5-0.9-0.5-1.6v-3.8h1.6v3.4c0,0.4,0.1,0.7,0.2,0.9c0.1,0.2,0.4,0.3,0.7,0.3c0.4,0,0.8-0.1,1-0.4s0.3-0.8,0.3-1.5
						v-2.7h1.6v5.8H98.3z"/>
					<path class="st5" d="M107.7,345.7c0.2,0,0.4,0,0.5,0l-0.1,1.5c-0.1,0-0.3-0.1-0.5-0.1c-0.5,0-0.9,0.1-1.2,0.4s-0.4,0.6-0.4,1.1
						v3h-1.6v-5.8h1.2l0.2,1h0.1c0.2-0.3,0.4-0.6,0.7-0.8C107,345.8,107.3,345.7,107.7,345.7z"/>
					<path class="st5" d="M120.9,350.5c0.3,0,0.6-0.1,1-0.2v1.2c-0.4,0.2-0.9,0.3-1.5,0.3c-0.6,0-1.1-0.2-1.4-0.5s-0.4-0.8-0.4-1.4
						V347h-0.8v-0.7l0.9-0.5l0.5-1.2h1v1.2h1.6v1.2h-1.6v2.8c0,0.2,0.1,0.4,0.2,0.5C120.5,350.4,120.7,350.5,120.9,350.5z"/>
					<path class="st5" d="M128.9,351.8c-0.9,0-1.7-0.3-2.2-0.8c-0.5-0.5-0.8-1.3-0.8-2.2c0-1,0.2-1.7,0.7-2.3s1.2-0.8,2-0.8
						c0.8,0,1.5,0.2,1.9,0.7c0.5,0.5,0.7,1.1,0.7,1.9v0.8h-3.8c0,0.5,0.2,0.8,0.4,1.1c0.3,0.3,0.6,0.4,1.1,0.4c0.4,0,0.7,0,1-0.1
						s0.6-0.2,1-0.3v1.2c-0.3,0.1-0.6,0.2-0.9,0.3C129.7,351.7,129.3,351.8,128.9,351.8z M128.7,346.8c-0.3,0-0.6,0.1-0.8,0.3
						c-0.2,0.2-0.3,0.5-0.3,0.9h2.2c0-0.4-0.1-0.7-0.3-0.9C129.3,347,129,346.8,128.7,346.8z"/>
					<path class="st5" d="M137,348.7l-1.9-2.8h1.8l1.1,1.9l1.1-1.9h1.8l-1.9,2.8l2,3h-1.8l-1.2-2l-1.2,2H135L137,348.7z"/>
					<path class="st5" d="M147.6,350.5c0.3,0,0.6-0.1,1-0.2v1.2c-0.4,0.2-0.9,0.3-1.5,0.3c-0.6,0-1.1-0.2-1.4-0.5s-0.4-0.8-0.4-1.4
						V347h-0.8v-0.7l0.9-0.5l0.5-1.2h1v1.2h1.6v1.2h-1.6v2.8c0,0.2,0.1,0.4,0.2,0.5C147.2,350.4,147.4,350.5,147.6,350.5z"/>
				</g>
			</g>
			<g>
				<path class="st8" d="M146.1,374.3c25.6-9.6,43.6-31.8,49.5-55.4l-8.9-2.1c-5.9,23.5-22.6,43.3-46.9,52.4
					c-38.7,14.5-81.8-4.9-97-43.2c0.2,0.4,0.3,1,0.5,1.4C58.7,368.7,104.7,389.7,146.1,374.3z"/>
				<g>
					<path class="st10" d="M11.5,305.7c14.9-2.5,29.1,7.5,31.7,22.4C28.3,330.7,14.1,320.7,11.5,305.7"/>
					<path class="st12" d="M11.5,305.7c14.9-2.5,29.1,7.5,31.7,22.4L11.5,305.7"/>
					<path class="st10" d="M65.7,296.5c-14.9,2.5-25,16.7-22.4,31.7C58.2,325.6,68.2,311.5,65.7,296.5"/>
					<path class="st12" d="M65.7,296.5l-22.4,31.7C58.2,325.6,68.2,311.5,65.7,296.5"/>
				</g>
			</g>
		</g>
		<g>
			<g>
				<g>
					<path class="st5" d="M307.6-67.3c0.2,9.3,6.1,13.1,12.9,13.1c4.9,0,7.9-0.9,10.4-1.9l1.2,4.9c-2.4,1.1-6.5,2.3-12.5,2.3
						c-11.6,0-18.5-7.6-18.5-19c0-11.4,6.7-20.3,17.7-20.3c12.3,0,15.6,10.8,15.6,17.8c0,1.4-0.2,2.5-0.2,3.2H307.6z M327.7-72.2
						c0.1-4.4-1.8-11.1-9.5-11.1c-6.9,0-10,6.4-10.5,11.1H327.7z"/>
					<path class="st5" d="M369.7-51.1c-1.8,0.9-5.8,2.2-10.8,2.2c-11.4,0-18.8-7.7-18.8-19.2c0-11.6,7.9-20,20.3-20
						c4.1,0,7.6,1,9.5,1.9l-1.6,5.3c-1.6-0.9-4.2-1.8-7.9-1.8c-8.6,0-13.3,6.4-13.3,14.3c0,8.7,5.6,14.1,13.1,14.1
						c3.9,0,6.5-1,8.4-1.9L369.7-51.1z"/>
					<path class="st5" d="M411.4-68.9c0,13.9-9.7,20-18.8,20c-10.2,0-18.1-7.5-18.1-19.4c0-12.6,8.3-20,18.7-20
						C404.1-88.3,411.4-80.4,411.4-68.9z M381.5-68.5c0,8.3,4.8,14.5,11.5,14.5c6.5,0,11.5-6.2,11.5-14.6c0-6.4-3.2-14.5-11.3-14.5
						C385-83.1,381.5-75.7,381.5-68.5z"/>
				</g>
				<g>
					<path class="st5" d="M304-43.4h1.7l1.1,3.3c0.1,0.3,0.2,0.6,0.2,1h0c0-0.4,0.1-0.7,0.2-1l1.1-3.3h1.7l-2.5,6.6
						c-0.2,0.6-0.5,1.1-1,1.4c-0.4,0.3-0.9,0.5-1.5,0.5c-0.3,0-0.5,0-0.8-0.1v-1.3c0.2,0,0.4,0.1,0.6,0.1c0.3,0,0.5-0.1,0.7-0.3
						s0.4-0.4,0.5-0.8l0.1-0.3L304-43.4z"/>
					<path class="st5" d="M319.4-40.5c0,0.9-0.3,1.7-0.8,2.2s-1.2,0.8-2.1,0.8c-0.6,0-1.1-0.1-1.5-0.4c-0.4-0.2-0.8-0.6-1-1.1
						c-0.2-0.5-0.3-1-0.3-1.6c0-1,0.2-1.7,0.7-2.2c0.5-0.5,1.2-0.8,2.1-0.8c0.6,0,1.1,0.1,1.5,0.4c0.4,0.2,0.8,0.6,1,1
						C319.3-41.7,319.4-41.1,319.4-40.5z M315.4-40.5c0,0.6,0.1,1,0.3,1.3c0.2,0.3,0.5,0.4,0.9,0.4c0.4,0,0.7-0.1,0.9-0.4
						c0.2-0.3,0.3-0.7,0.3-1.3c0-0.6-0.1-1-0.3-1.3c-0.2-0.3-0.5-0.4-0.9-0.4c-0.4,0-0.7,0.1-0.9,0.4S315.4-41.1,315.4-40.5z"/>
					<path class="st5" d="M328-37.6l-0.2-0.7h-0.1c-0.2,0.3-0.4,0.5-0.7,0.6s-0.7,0.2-1.1,0.2c-0.7,0-1.2-0.2-1.5-0.5
						c-0.3-0.4-0.5-0.9-0.5-1.6v-3.8h1.6v3.4c0,0.4,0.1,0.7,0.2,0.9c0.1,0.2,0.4,0.3,0.7,0.3c0.4,0,0.8-0.1,1-0.4s0.3-0.8,0.3-1.5
						v-2.7h1.6v5.8H328z"/>
					<path class="st5" d="M337.4-43.5c0.2,0,0.4,0,0.5,0l-0.1,1.5c-0.1,0-0.3-0.1-0.5-0.1c-0.5,0-0.9,0.1-1.2,0.4
						c-0.3,0.3-0.4,0.6-0.4,1.1v3h-1.6v-5.8h1.2l0.2,1h0.1c0.2-0.3,0.4-0.6,0.7-0.8S337-43.5,337.4-43.5z"/>
					<path class="st5" d="M350.6-38.8c0.3,0,0.6-0.1,1-0.2v1.2c-0.4,0.2-0.9,0.3-1.5,0.3c-0.6,0-1.1-0.2-1.4-0.5
						c-0.3-0.3-0.4-0.8-0.4-1.4v-2.8h-0.8v-0.7l0.9-0.5l0.5-1.2h1v1.2h1.6v1.2h-1.6v2.8c0,0.2,0.1,0.4,0.2,0.5
						C350.2-38.8,350.4-38.8,350.6-38.8z"/>
					<path class="st5" d="M358.6-37.5c-0.9,0-1.7-0.3-2.2-0.8c-0.5-0.5-0.8-1.3-0.8-2.2c0-1,0.2-1.7,0.7-2.3c0.5-0.5,1.2-0.8,2-0.8
						c0.8,0,1.5,0.2,1.9,0.7c0.5,0.5,0.7,1.1,0.7,1.9v0.8h-3.8c0,0.5,0.2,0.8,0.4,1.1c0.3,0.3,0.6,0.4,1.1,0.4c0.4,0,0.7,0,1-0.1
						s0.6-0.2,1-0.3v1.2c-0.3,0.1-0.6,0.2-0.9,0.3C359.4-37.5,359.1-37.5,358.6-37.5z M358.4-42.4c-0.3,0-0.6,0.1-0.8,0.3
						c-0.2,0.2-0.3,0.5-0.3,0.9h2.2c0-0.4-0.1-0.7-0.3-0.9C359-42.3,358.7-42.4,358.4-42.4z"/>
					<path class="st5" d="M366.7-40.6l-1.9-2.8h1.8l1.1,1.9l1.1-1.9h1.8l-1.9,2.8l2,3h-1.8l-1.2-2l-1.2,2h-1.8L366.7-40.6z"/>
					<path class="st5" d="M377.3-38.8c0.3,0,0.6-0.1,1-0.2v1.2c-0.4,0.2-0.9,0.3-1.5,0.3c-0.6,0-1.1-0.2-1.4-0.5
						c-0.3-0.3-0.4-0.8-0.4-1.4v-2.8h-0.8v-0.7l0.9-0.5l0.5-1.2h1v1.2h1.6v1.2h-1.6v2.8c0,0.2,0.1,0.4,0.2,0.5
						C376.9-38.8,377.1-38.8,377.3-38.8z"/>
				</g>
			</g>
			<path class="st13" d="M355.7-97.7c-1.2-5.2-4.3-6.9-6.1-8.1c-0.6-0.4,0.4-1-0.2-1.5c-0.5-0.4-2.6-0.7-3.1-1.2
				c-0.5-0.5,0.4-1.2,0-1.7c-0.4-0.5-2.2-0.7-2.6-1.2l0,0c0.2-0.3,0.1-0.6,0-0.9c0.1-0.3,0.2-0.6,0-0.9c0,0,0,0,0,0
				c0.4-0.5,2-1.2,2.2-1.7c0.4-0.9-0.6-1.4-0.3-2.3c0.2-0.7,1.8-2,2-2.7c0.2-0.9-0.8-0.7-0.7-1.5c0.1-0.7,1.2-2.6,1.3-3.3
				c0-0.9-1.2-0.2-1.3-1.1c0-0.6,1.1-2.9,1-3.6c-0.1-0.8-1.3-0.6-1.5-1.4c-0.2-0.8,0.7-2.8,0.5-3.6c-0.3-0.9-1.9,0.1-2.2-0.8
				c-0.3-0.9,0.7-3.8,0.3-4.6c-0.2-0.6-0.9-0.3-1.4-0.3c0.2,0,0.4-0.1,0.5-0.3c0.3-0.7-0.3-3.2,0.1-3.8c0.4-0.8,1.5,0.4,1.9-0.4
				c0.3-0.7,0-3.3,0.3-3.9c0.3-0.6,1.4,0.7,1.7,0.1c0.3-0.5-0.1-2.9,0.2-3.4c0.4-0.6,1.4,0.8,1.8,0.2c0.3-0.6,0-3.1,0.3-3.6
				c0.3-0.5,1.3,0.9,1.6,0.5c0.3-0.5,0-2.8,0.3-3.3c0.2-0.4,0.7,0.9,0.9,0.5c0.2-0.3,0.3-2.2,0.5-2.5c0.5-0.8,1.1,0.8,1.9-3
				c0.8,3.8,1.4,2.2,1.9,3c0.2,0.3,0.2,2.2,0.5,2.5c0.2,0.3,0.6-0.9,0.9-0.5c0.3,0.5,0,2.8,0.3,3.3c0.3,0.4,1.3-0.9,1.6-0.5
				c0.3,0.5,0,3,0.3,3.6c0.4,0.6,1.4-0.8,1.8-0.2c0.3,0.5-0.1,2.9,0.2,3.4c0.3,0.6,1.4-0.7,1.7-0.1c0.4,0.6,0,3.3,0.3,3.9
				c0.4,0.8,1.5-0.4,1.9,0.4c0.3,0.7-0.2,3.1,0.1,3.8c0.4,0.8,1.6-0.2,1.9,0.6c0.3,0.9-0.6,3.7-0.3,4.6c0.3,0.9,1.9-0.1,2.2,0.8
				c0.2,0.8-0.6,2.7-0.5,3.6c0.2,0.8,1.4,0.6,1.5,1.4c0.1,0.6-1.1,2.9-1,3.6c0.1,0.9,1.3,0.2,1.3,1.1c0,0.7-1.2,2.6-1.3,3.3
				c-0.1,0.9,0.9,0.7,0.7,1.5c-0.2,0.7-1.8,2-2,2.7c-0.3,0.9,0.7,1.4,0.3,2.3c-0.2,0.5-2,1.3-2.3,1.8c-0.4,0.7,0.5,1.2,0,1.9
				c-0.4,0.5-2.1,0.7-2.6,1.2c-0.4,0.5,0.5,1.2,0,1.7c-0.5,0.5-2.5,0.8-3.1,1.2c-0.6,0.5,0.4,1.1-0.2,1.5
				C360-104.5,356.9-102.9,355.7-97.7"/>
			<path class="st10" d="M328.9-97.9c-1.2-5.2-4.3-6.9-6.1-8.1c-0.6-0.4,0.4-1.1-0.2-1.5c-0.5-0.4-2.6-0.7-3.1-1.2
				c-0.5-0.5,0.4-1.2,0-1.7c-0.4-0.5-2.2-0.7-2.6-1.2c-0.5-0.7,0.4-1.1,0-1.9c-0.3-0.5-2-1.3-2.3-1.8c-0.4-0.9,0.6-1.4,0.3-2.3
				c-0.2-0.7-1.8-2-2-2.7c-0.2-0.9,0.8-0.7,0.7-1.5c-0.1-0.7-1.2-2.6-1.3-3.3c0-0.9,1.2-0.2,1.3-1.1c0-0.6-1.1-2.9-1-3.6
				c0.1-0.8,1.3-0.6,1.5-1.4c0.2-0.8-0.7-2.8-0.5-3.6c0.3-0.9,1.8,0.1,2.2-0.8c0.3-0.9-0.7-3.8-0.3-4.6c0.3-0.8,1.5,0.2,1.9-0.6
				c0.3-0.7-0.3-3.2,0.1-3.8c0.4-0.8,1.5,0.4,1.9-0.4c0.3-0.7,0-3.3,0.3-3.9c0.3-0.6,1.4,0.7,1.7,0.1c0.3-0.5-0.1-2.9,0.2-3.4
				c0.4-0.6,1.4,0.8,1.8,0.2c0.3-0.6,0-3.1,0.4-3.6c0.3-0.5,1.3,0.9,1.6,0.5c0.3-0.5,0-2.8,0.3-3.3c0.3-0.4,0.7,0.9,0.9,0.5
				c0.2-0.3,0.3-2.2,0.5-2.5c0.5-0.8,1.1,0.8,1.9-3c0.8,3.8,1.4,2.2,1.9,3c0.2,0.3,0.2,2.2,0.5,2.5c0.2,0.3,0.6-0.9,0.9-0.5
				c0.3,0.5,0,2.8,0.3,3.3c0.3,0.4,1.3-0.9,1.6-0.5c0.3,0.5,0,3,0.4,3.6c0.4,0.6,1.4-0.8,1.8-0.2c0.3,0.5-0.1,2.9,0.2,3.4
				c0.3,0.6,1.4-0.7,1.7-0.1c0.4,0.6,0,3.3,0.3,3.9c0.4,0.8,1.5-0.4,1.9,0.4c0.3,0.7-0.2,3.1,0.1,3.8c0.4,0.8,1.6-0.2,1.9,0.6
				c0.3,0.9-0.6,3.7-0.3,4.6c0.3,0.9,1.9-0.1,2.2,0.8c0.2,0.8-0.6,2.7-0.5,3.6c0.2,0.8,1.4,0.6,1.5,1.4c0.1,0.6-1.1,2.9-1,3.6
				c0.1,0.9,1.3,0.2,1.3,1.1c0,0.7-1.2,2.6-1.2,3.3c-0.1,0.9,0.9,0.7,0.7,1.5c-0.2,0.7-1.8,2-2,2.7c-0.3,0.9,0.7,1.4,0.3,2.3
				c-0.2,0.5-2,1.3-2.3,1.8c-0.4,0.7,0.5,1.2,0,1.9c-0.4,0.5-2.1,0.7-2.6,1.2c-0.4,0.5,0.5,1.2,0,1.7c-0.5,0.5-2.5,0.8-3.1,1.2
				c-0.6,0.5,0.4,1.1-0.2,1.5C333.2-104.7,330-103.1,328.9-97.9"/>
		</g>
		<g>
			<g>
				<g>
					<path class="st5" d="M-173.3,340.9c0.2,9.3,6.1,13.1,12.9,13.1c4.9,0,7.9-0.9,10.4-1.9l1.2,4.9c-2.4,1.1-6.5,2.3-12.5,2.3
						c-11.6,0-18.5-7.6-18.5-19s6.7-20.3,17.7-20.3c12.3,0,15.6,10.8,15.6,17.8c0,1.4-0.2,2.5-0.2,3.2H-173.3z M-153.2,335.9
						c0.1-4.4-1.8-11.1-9.5-11.1c-6.9,0-10,6.4-10.5,11.1H-153.2z"/>
					<path class="st5" d="M-111.3,357.1c-1.8,0.9-5.8,2.2-10.8,2.2c-11.4,0-18.8-7.7-18.8-19.2c0-11.6,7.9-20,20.3-20
						c4.1,0,7.6,1,9.5,1.9l-1.6,5.3c-1.6-0.9-4.2-1.8-7.9-1.8c-8.6,0-13.3,6.4-13.3,14.3c0,8.7,5.6,14.1,13.1,14.1
						c3.9,0,6.5-1,8.4-1.9L-111.3,357.1z"/>
					<path class="st5" d="M-69.6,339.3c0,13.9-9.7,20-18.8,20c-10.2,0-18.1-7.5-18.1-19.4c0-12.6,8.3-20,18.7-20
						C-76.9,319.9-69.6,327.8-69.6,339.3z M-99.5,339.7c0,8.3,4.8,14.5,11.5,14.5c6.5,0,11.5-6.2,11.5-14.6
						c0-6.4-3.2-14.5-11.3-14.5C-96,325-99.5,332.5-99.5,339.7z"/>
				</g>
				<g>
					<path class="st5" d="M-177,364.7h1.7l1.1,3.3c0.1,0.3,0.2,0.6,0.2,1h0c0-0.4,0.1-0.7,0.2-1l1.1-3.3h1.7l-2.5,6.6
						c-0.2,0.6-0.5,1.1-1,1.4s-0.9,0.5-1.5,0.5c-0.3,0-0.5,0-0.8-0.1v-1.3c0.2,0,0.4,0.1,0.6,0.1c0.3,0,0.5-0.1,0.7-0.3
						s0.4-0.4,0.5-0.8l0.1-0.3L-177,364.7z"/>
					<path class="st5" d="M-161.6,367.6c0,0.9-0.3,1.7-0.8,2.2c-0.5,0.5-1.2,0.8-2.1,0.8c-0.6,0-1.1-0.1-1.5-0.4
						c-0.4-0.2-0.8-0.6-1-1.1c-0.2-0.5-0.3-1-0.3-1.6c0-1,0.2-1.7,0.7-2.2c0.5-0.5,1.2-0.8,2.1-0.8c0.6,0,1.1,0.1,1.5,0.4
						c0.4,0.2,0.8,0.6,1,1C-161.7,366.5-161.6,367-161.6,367.6z M-165.6,367.6c0,0.6,0.1,1,0.3,1.3c0.2,0.3,0.5,0.4,0.9,0.4
						c0.4,0,0.7-0.1,0.9-0.4c0.2-0.3,0.3-0.7,0.3-1.3c0-0.6-0.1-1-0.3-1.3s-0.5-0.4-0.9-0.4c-0.4,0-0.7,0.1-0.9,0.4
						S-165.6,367.1-165.6,367.6z"/>
					<path class="st5" d="M-152.9,370.6l-0.2-0.7h-0.1c-0.2,0.3-0.4,0.5-0.7,0.6c-0.3,0.1-0.7,0.2-1.1,0.2c-0.7,0-1.2-0.2-1.5-0.5
						c-0.3-0.4-0.5-0.9-0.5-1.6v-3.8h1.6v3.4c0,0.4,0.1,0.7,0.2,0.9s0.4,0.3,0.7,0.3c0.4,0,0.8-0.1,1-0.4s0.3-0.8,0.3-1.5v-2.7h1.6
						v5.8H-152.9z"/>
					<path class="st5" d="M-143.6,364.6c0.2,0,0.4,0,0.5,0l-0.1,1.5c-0.1,0-0.3-0.1-0.5-0.1c-0.5,0-0.9,0.1-1.2,0.4
						c-0.3,0.3-0.4,0.6-0.4,1.1v3h-1.6v-5.8h1.2l0.2,1h0.1c0.2-0.3,0.4-0.6,0.7-0.8C-144.3,364.7-144,364.6-143.6,364.6z"/>
					<path class="st5" d="M-130.4,369.4c0.3,0,0.6-0.1,1-0.2v1.2c-0.4,0.2-0.9,0.3-1.5,0.3c-0.6,0-1.1-0.2-1.4-0.5
						c-0.3-0.3-0.4-0.8-0.4-1.4v-2.8h-0.8v-0.7l0.9-0.5l0.5-1.2h1v1.2h1.6v1.2h-1.6v2.8c0,0.2,0.1,0.4,0.2,0.5
						C-130.8,369.4-130.6,369.4-130.4,369.4z"/>
					<path class="st5" d="M-122.4,370.7c-0.9,0-1.7-0.3-2.2-0.8s-0.8-1.3-0.8-2.2c0-1,0.2-1.7,0.7-2.3s1.2-0.8,2-0.8
						c0.8,0,1.5,0.2,1.9,0.7c0.5,0.5,0.7,1.1,0.7,1.9v0.8h-3.8c0,0.5,0.2,0.8,0.4,1.1c0.3,0.3,0.6,0.4,1.1,0.4c0.4,0,0.7,0,1-0.1
						s0.6-0.2,1-0.3v1.2c-0.3,0.1-0.6,0.2-0.9,0.3C-121.5,370.6-121.9,370.7-122.4,370.7z M-122.6,365.8c-0.3,0-0.6,0.1-0.8,0.3
						c-0.2,0.2-0.3,0.5-0.3,0.9h2.2c0-0.4-0.1-0.7-0.3-0.9C-122,365.9-122.3,365.8-122.6,365.8z"/>
					<path class="st5" d="M-114.3,367.6l-1.9-2.8h1.8l1.1,1.9l1.1-1.9h1.8l-1.9,2.8l2,3h-1.8l-1.2-2l-1.2,2h-1.8L-114.3,367.6z"/>
					<path class="st5" d="M-103.7,369.4c0.3,0,0.6-0.1,1-0.2v1.2c-0.4,0.2-0.9,0.3-1.5,0.3c-0.6,0-1.1-0.2-1.4-0.5
						c-0.3-0.3-0.4-0.8-0.4-1.4v-2.8h-0.8v-0.7l0.9-0.5l0.5-1.2h1v1.2h1.6v1.2h-1.6v2.8c0,0.2,0.1,0.4,0.2,0.5
						C-104.1,369.4-103.9,369.4-103.7,369.4z"/>
				</g>
			</g>
			<path class="st8" d="M-178,305.9c35.1,6.9,39.5-22.9,80.6-29.1c-43.4,4.5-45.5,33.4-78.7,27.1L-178,305.9"/>
			<path class="st9" d="M-84.2,278.5c-19.7,1.1-29.3,23.8-48,13.7c14.3-10,27.3-15.4,43.8-14.2c-10.2-7.1-29-11.4-38.4,2.1
				c5-2.9,17.1-6.1,27.1-3.8c-17.2,1.5-29,8.5-36,13.7C-131.4,266.3-104.1,261.4-84.2,278.5"/>
			<g>
				<path class="st6" d="M-92,379h-92c-1.8,0-3-1.1-3-3v-80c0-1.8,1.2-5,3-5h38v2h-38c-1.1,0-2,1.9-2,3v80c0,1.1,0.9,2,2,2h92
					c1.1,0,3-0.9,3-2v-80c0-1.1-1.9-3-3-3h-6v-2h6c1.8,0,4,3.2,4,5v80C-88,377.9-90.1,379-92,379z"/>
			</g>
		</g>
		<g class="st14">
			<g class="st15">
				<ellipse class="st16" cx="350.2" cy="205.4" rx="78.3" ry="17.9"/>
				<ellipse class="st17" cx="350.2" cy="205.4" rx="75" ry="17.1"/>
				<ellipse class="st18" cx="350.2" cy="205.4" rx="71.7" ry="16.4"/>
				<ellipse class="st19" cx="350.2" cy="205.4" rx="68.4" ry="15.6"/>
				<ellipse class="st20" cx="350.2" cy="205.4" rx="65.1" ry="14.8"/>
				<ellipse class="st21" cx="350.2" cy="205.4" rx="61.8" ry="14.1"/>
				<ellipse class="st22" cx="350.2" cy="205.4" rx="58.5" ry="13.3"/>
				<ellipse class="st23" cx="350.2" cy="205.4" rx="55.2" ry="12.6"/>
				<ellipse class="st24" cx="350.2" cy="205.4" rx="51.9" ry="11.8"/>
				<ellipse class="st25" cx="350.2" cy="205.4" rx="48.6" ry="11.1"/>
				<ellipse class="st26" cx="350.2" cy="205.4" rx="45.2" ry="10.3"/>
				<ellipse class="st27" cx="350.2" cy="205.4" rx="41.9" ry="9.6"/>
				<ellipse class="st28" cx="350.2" cy="205.4" rx="38.6" ry="8.8"/>
				<ellipse class="st29" cx="350.2" cy="205.4" rx="35.3" ry="8.1"/>
				<ellipse class="st30" cx="350.2" cy="205.4" rx="32" ry="7.3"/>
				<ellipse class="st31" cx="350.2" cy="205.4" rx="28.7" ry="6.6"/>
				<ellipse class="st32" cx="350.2" cy="205.4" rx="25.4" ry="5.8"/>
				<ellipse class="st33" cx="350.2" cy="205.4" rx="22.1" ry="5.1"/>
				<ellipse class="st34" cx="350.2" cy="205.4" rx="18.8" ry="4.3"/>
				<ellipse class="st35" cx="350.2" cy="205.4" rx="15.5" ry="3.5"/>
				<ellipse class="st36" cx="350.2" cy="205.4" rx="12.2" ry="2.8"/>
				<ellipse class="st5" cx="350.2" cy="205.4" rx="8.9" ry="2"/>
			</g>
			<g class="st15">
				<ellipse class="st16" cx="112.8" cy="205.4" rx="78.3" ry="17.9"/>
				<ellipse class="st17" cx="112.8" cy="205.4" rx="75" ry="17.1"/>
				<ellipse class="st18" cx="112.8" cy="205.4" rx="71.7" ry="16.4"/>
				<ellipse class="st19" cx="112.8" cy="205.4" rx="68.4" ry="15.6"/>
				<ellipse class="st20" cx="112.8" cy="205.4" rx="65.1" ry="14.8"/>
				<ellipse class="st21" cx="112.8" cy="205.4" rx="61.8" ry="14.1"/>
				<ellipse class="st22" cx="112.8" cy="205.4" rx="58.5" ry="13.3"/>
				<ellipse class="st23" cx="112.8" cy="205.4" rx="55.2" ry="12.6"/>
				<ellipse class="st24" cx="112.8" cy="205.4" rx="51.9" ry="11.8"/>
				<ellipse class="st25" cx="112.8" cy="205.4" rx="48.6" ry="11.1"/>
				<ellipse class="st26" cx="112.8" cy="205.4" rx="45.2" ry="10.3"/>
				<ellipse class="st27" cx="112.8" cy="205.4" rx="41.9" ry="9.6"/>
				<ellipse class="st28" cx="112.8" cy="205.4" rx="38.6" ry="8.8"/>
				<ellipse class="st29" cx="112.8" cy="205.4" rx="35.3" ry="8.1"/>
				<ellipse class="st30" cx="112.8" cy="205.4" rx="32" ry="7.3"/>
				<ellipse class="st31" cx="112.8" cy="205.4" rx="28.7" ry="6.6"/>
				<ellipse class="st32" cx="112.8" cy="205.4" rx="25.4" ry="5.8"/>
				<ellipse class="st33" cx="112.8" cy="205.4" rx="22.1" ry="5.1"/>
				<ellipse class="st34" cx="112.8" cy="205.4" rx="18.8" ry="4.3"/>
				<ellipse class="st35" cx="112.8" cy="205.4" rx="15.5" ry="3.5"/>
				<ellipse class="st36" cx="112.8" cy="205.4" rx="12.2" ry="2.8"/>
				<ellipse class="st5" cx="112.8" cy="205.4" rx="8.9" ry="2"/>
			</g>
			<g class="st15">
				<ellipse class="st16" cx="-136.2" cy="205.4" rx="78.3" ry="17.9"/>
				<ellipse class="st17" cx="-136.2" cy="205.4" rx="75" ry="17.1"/>
				<ellipse class="st18" cx="-136.2" cy="205.4" rx="71.7" ry="16.4"/>
				<ellipse class="st19" cx="-136.2" cy="205.4" rx="68.4" ry="15.6"/>
				<ellipse class="st20" cx="-136.2" cy="205.4" rx="65.1" ry="14.8"/>
				<ellipse class="st21" cx="-136.2" cy="205.4" rx="61.8" ry="14.1"/>
				<ellipse class="st22" cx="-136.2" cy="205.4" rx="58.5" ry="13.3"/>
				<ellipse class="st23" cx="-136.2" cy="205.4" rx="55.2" ry="12.6"/>
				<ellipse class="st24" cx="-136.2" cy="205.4" rx="51.9" ry="11.8"/>
				<ellipse class="st25" cx="-136.2" cy="205.4" rx="48.6" ry="11.1"/>
				<ellipse class="st26" cx="-136.2" cy="205.4" rx="45.2" ry="10.3"/>
				<ellipse class="st27" cx="-136.2" cy="205.4" rx="41.9" ry="9.6"/>
				<ellipse class="st28" cx="-136.2" cy="205.4" rx="38.6" ry="8.8"/>
				<ellipse class="st29" cx="-136.2" cy="205.4" rx="35.3" ry="8.1"/>
				<ellipse class="st30" cx="-136.2" cy="205.4" rx="32" ry="7.3"/>
				<ellipse class="st31" cx="-136.2" cy="205.4" rx="28.7" ry="6.6"/>
				<ellipse class="st32" cx="-136.2" cy="205.4" rx="25.4" ry="5.8"/>
				<ellipse class="st33" cx="-136.2" cy="205.4" rx="22.1" ry="5.1"/>
				<ellipse class="st34" cx="-136.2" cy="205.4" rx="18.8" ry="4.3"/>
				<ellipse class="st35" cx="-136.2" cy="205.4" rx="15.5" ry="3.5"/>
				<ellipse class="st36" cx="-136.2" cy="205.4" rx="12.2" ry="2.8"/>
				<ellipse class="st5" cx="-136.2" cy="205.4" rx="8.9" ry="2"/>
			</g>
		</g>
		<g class="st14">
			<g class="st15">
				<ellipse class="st16" cx="350.2" cy="-6.8" rx="78.3" ry="17.9"/>
				<ellipse class="st17" cx="350.2" cy="-6.8" rx="75" ry="17.1"/>
				<ellipse class="st18" cx="350.2" cy="-6.8" rx="71.7" ry="16.4"/>
				<ellipse class="st19" cx="350.2" cy="-6.8" rx="68.4" ry="15.6"/>
				<ellipse class="st20" cx="350.2" cy="-6.8" rx="65.1" ry="14.8"/>
				<ellipse class="st21" cx="350.2" cy="-6.8" rx="61.8" ry="14.1"/>
				<ellipse class="st22" cx="350.2" cy="-6.8" rx="58.5" ry="13.3"/>
				<ellipse class="st23" cx="350.2" cy="-6.8" rx="55.2" ry="12.6"/>
				<ellipse class="st24" cx="350.2" cy="-6.8" rx="51.9" ry="11.8"/>
				<ellipse class="st25" cx="350.2" cy="-6.8" rx="48.6" ry="11.1"/>
				<ellipse class="st26" cx="350.2" cy="-6.8" rx="45.2" ry="10.3"/>
				<ellipse class="st27" cx="350.2" cy="-6.8" rx="41.9" ry="9.6"/>
				<ellipse class="st28" cx="350.2" cy="-6.8" rx="38.6" ry="8.8"/>
				<ellipse class="st29" cx="350.2" cy="-6.8" rx="35.3" ry="8.1"/>
				<ellipse class="st30" cx="350.2" cy="-6.8" rx="32" ry="7.3"/>
				<ellipse class="st31" cx="350.2" cy="-6.8" rx="28.7" ry="6.6"/>
				<ellipse class="st32" cx="350.2" cy="-6.8" rx="25.4" ry="5.8"/>
				<ellipse class="st33" cx="350.2" cy="-6.8" rx="22.1" ry="5.1"/>
				<ellipse class="st34" cx="350.2" cy="-6.8" rx="18.8" ry="4.3"/>
				<ellipse class="st35" cx="350.2" cy="-6.8" rx="15.5" ry="3.5"/>
				<ellipse class="st36" cx="350.2" cy="-6.8" rx="12.2" ry="2.8"/>
				<ellipse class="st5" cx="350.2" cy="-6.8" rx="8.9" ry="2"/>
			</g>
			<g class="st15">
				<ellipse class="st16" cx="112.8" cy="-6.8" rx="78.3" ry="17.9"/>
				<ellipse class="st17" cx="112.8" cy="-6.8" rx="75" ry="17.1"/>
				<ellipse class="st18" cx="112.8" cy="-6.8" rx="71.7" ry="16.4"/>
				<ellipse class="st19" cx="112.8" cy="-6.8" rx="68.4" ry="15.6"/>
				<ellipse class="st20" cx="112.8" cy="-6.8" rx="65.1" ry="14.8"/>
				<ellipse class="st21" cx="112.8" cy="-6.8" rx="61.8" ry="14.1"/>
				<ellipse class="st22" cx="112.8" cy="-6.8" rx="58.5" ry="13.3"/>
				<ellipse class="st23" cx="112.8" cy="-6.8" rx="55.2" ry="12.6"/>
				<ellipse class="st24" cx="112.8" cy="-6.8" rx="51.9" ry="11.8"/>
				<ellipse class="st25" cx="112.8" cy="-6.8" rx="48.6" ry="11.1"/>
				<ellipse class="st26" cx="112.8" cy="-6.8" rx="45.2" ry="10.3"/>
				<ellipse class="st27" cx="112.8" cy="-6.8" rx="41.9" ry="9.6"/>
				<ellipse class="st28" cx="112.8" cy="-6.8" rx="38.6" ry="8.8"/>
				<ellipse class="st29" cx="112.8" cy="-6.8" rx="35.3" ry="8.1"/>
				<ellipse class="st30" cx="112.8" cy="-6.8" rx="32" ry="7.3"/>
				<ellipse class="st31" cx="112.8" cy="-6.8" rx="28.7" ry="6.6"/>
				<ellipse class="st32" cx="112.8" cy="-6.8" rx="25.4" ry="5.8"/>
				<ellipse class="st33" cx="112.8" cy="-6.8" rx="22.1" ry="5.1"/>
				<ellipse class="st34" cx="112.8" cy="-6.8" rx="18.8" ry="4.3"/>
				<ellipse class="st35" cx="112.8" cy="-6.8" rx="15.5" ry="3.5"/>
				<ellipse class="st36" cx="112.8" cy="-6.8" rx="12.2" ry="2.8"/>
				<ellipse class="st5" cx="112.8" cy="-6.8" rx="8.9" ry="2"/>
			</g>
			<g class="st15">
				<ellipse class="st16" cx="-136.2" cy="-6.8" rx="78.3" ry="17.9"/>
				<ellipse class="st17" cx="-136.2" cy="-6.8" rx="75" ry="17.1"/>
				<ellipse class="st18" cx="-136.2" cy="-6.8" rx="71.7" ry="16.4"/>
				<ellipse class="st19" cx="-136.2" cy="-6.8" rx="68.4" ry="15.6"/>
				<ellipse class="st20" cx="-136.2" cy="-6.8" rx="65.1" ry="14.8"/>
				<ellipse class="st21" cx="-136.2" cy="-6.8" rx="61.8" ry="14.1"/>
				<ellipse class="st22" cx="-136.2" cy="-6.8" rx="58.5" ry="13.3"/>
				<ellipse class="st23" cx="-136.2" cy="-6.8" rx="55.2" ry="12.6"/>
				<ellipse class="st24" cx="-136.2" cy="-6.8" rx="51.9" ry="11.8"/>
				<ellipse class="st25" cx="-136.2" cy="-6.8" rx="48.6" ry="11.1"/>
				<ellipse class="st26" cx="-136.2" cy="-6.8" rx="45.2" ry="10.3"/>
				<ellipse class="st27" cx="-136.2" cy="-6.8" rx="41.9" ry="9.6"/>
				<ellipse class="st28" cx="-136.2" cy="-6.8" rx="38.6" ry="8.8"/>
				<ellipse class="st29" cx="-136.2" cy="-6.8" rx="35.3" ry="8.1"/>
				<ellipse class="st30" cx="-136.2" cy="-6.8" rx="32" ry="7.3"/>
				<ellipse class="st31" cx="-136.2" cy="-6.8" rx="28.7" ry="6.6"/>
				<ellipse class="st32" cx="-136.2" cy="-6.8" rx="25.4" ry="5.8"/>
				<ellipse class="st33" cx="-136.2" cy="-6.8" rx="22.1" ry="5.1"/>
				<ellipse class="st34" cx="-136.2" cy="-6.8" rx="18.8" ry="4.3"/>
				<ellipse class="st35" cx="-136.2" cy="-6.8" rx="15.5" ry="3.5"/>
				<ellipse class="st36" cx="-136.2" cy="-6.8" rx="12.2" ry="2.8"/>
				<ellipse class="st5" cx="-136.2" cy="-6.8" rx="8.9" ry="2"/>
			</g>
		</g>
		<g class="st14">
			<g class="st15">
				<ellipse class="st16" cx="350.2" cy="409.2" rx="78.3" ry="17.9"/>
				<ellipse class="st17" cx="350.2" cy="409.2" rx="75" ry="17.1"/>
				<ellipse class="st18" cx="350.2" cy="409.2" rx="71.7" ry="16.4"/>
				<ellipse class="st19" cx="350.2" cy="409.2" rx="68.4" ry="15.6"/>
				<ellipse class="st20" cx="350.2" cy="409.2" rx="65.1" ry="14.8"/>
				<ellipse class="st21" cx="350.2" cy="409.2" rx="61.8" ry="14.1"/>
				<ellipse class="st22" cx="350.2" cy="409.2" rx="58.5" ry="13.3"/>
				<ellipse class="st23" cx="350.2" cy="409.2" rx="55.2" ry="12.6"/>
				<ellipse class="st24" cx="350.2" cy="409.2" rx="51.9" ry="11.8"/>
				<ellipse class="st25" cx="350.2" cy="409.2" rx="48.6" ry="11.1"/>
				<ellipse class="st26" cx="350.2" cy="409.2" rx="45.2" ry="10.3"/>
				<ellipse class="st27" cx="350.2" cy="409.2" rx="41.9" ry="9.6"/>
				<ellipse class="st28" cx="350.2" cy="409.2" rx="38.6" ry="8.8"/>
				<ellipse class="st29" cx="350.2" cy="409.2" rx="35.3" ry="8.1"/>
				<ellipse class="st30" cx="350.2" cy="409.2" rx="32" ry="7.3"/>
				<ellipse class="st31" cx="350.2" cy="409.2" rx="28.7" ry="6.6"/>
				<ellipse class="st32" cx="350.2" cy="409.2" rx="25.4" ry="5.8"/>
				<ellipse class="st33" cx="350.2" cy="409.2" rx="22.1" ry="5.1"/>
				<ellipse class="st34" cx="350.2" cy="409.2" rx="18.8" ry="4.3"/>
				<ellipse class="st35" cx="350.2" cy="409.2" rx="15.5" ry="3.5"/>
				<ellipse class="st36" cx="350.2" cy="409.2" rx="12.2" ry="2.8"/>
				<ellipse class="st5" cx="350.2" cy="409.2" rx="8.9" ry="2"/>
			</g>
			<g class="st15">
				<ellipse class="st16" cx="112.8" cy="409.2" rx="78.3" ry="17.9"/>
				<ellipse class="st17" cx="112.8" cy="409.2" rx="75" ry="17.1"/>
				<ellipse class="st18" cx="112.8" cy="409.2" rx="71.7" ry="16.4"/>
				<ellipse class="st19" cx="112.8" cy="409.2" rx="68.4" ry="15.6"/>
				<ellipse class="st20" cx="112.8" cy="409.2" rx="65.1" ry="14.8"/>
				<ellipse class="st21" cx="112.8" cy="409.2" rx="61.8" ry="14.1"/>
				<ellipse class="st22" cx="112.8" cy="409.2" rx="58.5" ry="13.3"/>
				<ellipse class="st23" cx="112.8" cy="409.2" rx="55.2" ry="12.6"/>
				<ellipse class="st24" cx="112.8" cy="409.2" rx="51.9" ry="11.8"/>
				<ellipse class="st25" cx="112.8" cy="409.2" rx="48.6" ry="11.1"/>
				<ellipse class="st26" cx="112.8" cy="409.2" rx="45.2" ry="10.3"/>
				<ellipse class="st27" cx="112.8" cy="409.2" rx="41.9" ry="9.6"/>
				<ellipse class="st28" cx="112.8" cy="409.2" rx="38.6" ry="8.8"/>
				<ellipse class="st29" cx="112.8" cy="409.2" rx="35.3" ry="8.1"/>
				<ellipse class="st30" cx="112.8" cy="409.2" rx="32" ry="7.3"/>
				<ellipse class="st31" cx="112.8" cy="409.2" rx="28.7" ry="6.6"/>
				<ellipse class="st32" cx="112.8" cy="409.2" rx="25.4" ry="5.8"/>
				<ellipse class="st33" cx="112.8" cy="409.2" rx="22.1" ry="5.1"/>
				<ellipse class="st34" cx="112.8" cy="409.2" rx="18.8" ry="4.3"/>
				<ellipse class="st35" cx="112.8" cy="409.2" rx="15.5" ry="3.5"/>
				<ellipse class="st36" cx="112.8" cy="409.2" rx="12.2" ry="2.8"/>
				<ellipse class="st5" cx="112.8" cy="409.2" rx="8.9" ry="2"/>
			</g>
			<g class="st15">
				<ellipse class="st16" cx="-136.2" cy="409.2" rx="78.3" ry="17.9"/>
				<ellipse class="st17" cx="-136.2" cy="409.2" rx="75" ry="17.1"/>
				<ellipse class="st18" cx="-136.2" cy="409.2" rx="71.7" ry="16.4"/>
				<ellipse class="st19" cx="-136.2" cy="409.2" rx="68.4" ry="15.6"/>
				<ellipse class="st20" cx="-136.2" cy="409.2" rx="65.1" ry="14.8"/>
				<ellipse class="st21" cx="-136.2" cy="409.2" rx="61.8" ry="14.1"/>
				<ellipse class="st22" cx="-136.2" cy="409.2" rx="58.5" ry="13.3"/>
				<ellipse class="st23" cx="-136.2" cy="409.2" rx="55.2" ry="12.6"/>
				<ellipse class="st24" cx="-136.2" cy="409.2" rx="51.9" ry="11.8"/>
				<ellipse class="st25" cx="-136.2" cy="409.2" rx="48.6" ry="11.1"/>
				<ellipse class="st26" cx="-136.2" cy="409.2" rx="45.2" ry="10.3"/>
				<ellipse class="st27" cx="-136.2" cy="409.2" rx="41.9" ry="9.6"/>
				<ellipse class="st28" cx="-136.2" cy="409.2" rx="38.6" ry="8.8"/>
				<ellipse class="st29" cx="-136.2" cy="409.2" rx="35.3" ry="8.1"/>
				<ellipse class="st30" cx="-136.2" cy="409.2" rx="32" ry="7.3"/>
				<ellipse class="st31" cx="-136.2" cy="409.2" rx="28.7" ry="6.6"/>
				<ellipse class="st32" cx="-136.2" cy="409.2" rx="25.4" ry="5.8"/>
				<ellipse class="st33" cx="-136.2" cy="409.2" rx="22.1" ry="5.1"/>
				<ellipse class="st34" cx="-136.2" cy="409.2" rx="18.8" ry="4.3"/>
				<ellipse class="st35" cx="-136.2" cy="409.2" rx="15.5" ry="3.5"/>
				<ellipse class="st36" cx="-136.2" cy="409.2" rx="12.2" ry="2.8"/>
				<ellipse class="st5" cx="-136.2" cy="409.2" rx="8.9" ry="2"/>
			</g>
		</g>
	</g>
	<g>
	</g>
	<g>
	</g>
	<g>
	</g>
	<g>
	</g>
	<g>
	</g>
	<g>
	</g>
	<g>
	</g>
	<g>
	</g>
	<g>
	</g>
	<g>
	</g>
	<g>
	</g>
	<g>
	</g>
	<g>
	</g>
	<g>
	</g>
	<g>
	</g>
	<g>
	</g>
	<g>
	</g>
	<g>
	</g>
</g>
</svg>
