<?xml version="1.0" encoding="utf-8"?>
<!-- Generator: Adobe Illustrator 19.0.0, SVG Export Plug-In . SVG Version: 6.00 Build 0)  -->
<svg version="1.1" xmlns="http://www.w3.org/2000/svg" xmlns:xlink="http://www.w3.org/1999/xlink" x="0px" y="0px"
	 viewBox="0 0 251.3 302.6" style="enable-background:new 0 0 251.3 302.6;" xml:space="preserve">
<style type="text/css">
	.st0{display:none;}
	.st1{display:inline;fill:url(#SVGID_1_);}
	.st2{display:inline;}
	.st3{fill:#596A72;}
	.st4{fill:#323534;}
	.st5{fill:#A5CD39;}
	.st6{fill:#FFFFFF;}
	.st7{fill-rule:evenodd;clip-rule:evenodd;fill:#323534;}
	.st8{fill-rule:evenodd;clip-rule:evenodd;fill:#9CC33B;}
	.st9{fill-rule:evenodd;clip-rule:evenodd;fill:#A5CD39;}
	.st10{fill-rule:evenodd;clip-rule:evenodd;fill:#93BC3D;}
	.st11{fill-rule:evenodd;clip-rule:evenodd;fill:#8FB73C;}
	.st12{fill-rule:evenodd;clip-rule:evenodd;fill:#87B13D;}
	.st13{display:none;opacity:0.5;}
	.st14{display:inline;opacity:0.2;}
	.st15{opacity:0;fill:#FFFFFF;}
	.st16{opacity:4.761905e-002;fill:#F5F5F5;}
	.st17{opacity:9.523810e-002;fill:#EBECEC;}
	.st18{opacity:0.1429;fill:#E2E2E2;}
	.st19{opacity:0.1905;fill:#D8D9D8;}
	.st20{opacity:0.2381;fill:#CECFCF;}
	.st21{opacity:0.2857;fill:#C4C5C5;}
	.st22{opacity:0.3333;fill:#BBBCBB;}
	.st23{opacity:0.381;fill:#B1B2B2;}
	.st24{opacity:0.4286;fill:#A7A8A8;}
	.st25{opacity:0.4762;fill:#9D9F9E;}
	.st26{opacity:0.5238;fill:#949595;}
	.st27{opacity:0.5714;fill:#8A8C8B;}
	.st28{opacity:0.619;fill:#808281;}
	.st29{opacity:0.6667;fill:#767878;}
	.st30{opacity:0.7143;fill:#6D6F6E;}
	.st31{opacity:0.7619;fill:#636564;}
	.st32{opacity:0.8095;fill:#595B5B;}
	.st33{opacity:0.8571;fill:#4F5251;}
	.st34{opacity:0.9048;fill:#464847;}
	.st35{opacity:0.9524;fill:#3C3F3E;}
	.st36{opacity:0.5;}
	.st37{opacity:0.2;}
	.st38{fill:#39B54A;}
	.st39{fill:#3A3A3A;}
</style>
<g id="Background" class="st0">
	<radialGradient id="SVGID_1_" cx="102.5888" cy="126.0944" r="694.4823" gradientUnits="userSpaceOnUse">
		<stop  offset="0" style="stop-color:#FFFFFF"/>
		<stop  offset="0.2187" style="stop-color:#F8FAFB;stop-opacity:0.9344"/>
		<stop  offset="0.529" style="stop-color:#E6ECEF;stop-opacity:0.8413"/>
		<stop  offset="0.8923" style="stop-color:#C7D4DB;stop-opacity:0.7323"/>
		<stop  offset="1" style="stop-color:#BDCCD4;stop-opacity:0.7"/>
	</radialGradient>
	<rect x="-285" y="-243" class="st1" width="800" height="800"/>
	<g class="st2">
		<path class="st3" d="M3.5,530.7v-0.3c-0.3,0.4-0.7,0.7-1,1c-0.3,0.3-0.7,0.4-1.1,0.6c-0.4,0.1-0.8,0.2-1.3,0.2
			c-0.6,0-1.2-0.1-1.7-0.4c-0.5-0.3-1-0.6-1.4-1.1c-0.4-0.5-0.7-1.1-0.9-1.7c-0.2-0.7-0.3-1.4-0.3-2.1c0-1.6,0.4-2.9,1.2-3.8
			c0.8-0.9,1.8-1.4,3.1-1.4c0.7,0,1.4,0.1,1.9,0.4c0.5,0.3,1,0.7,1.5,1.2v-3.8c0-0.5,0.1-0.9,0.3-1.2c0.2-0.3,0.5-0.4,0.9-0.4
			c0.4,0,0.7,0.1,0.9,0.4c0.2,0.3,0.3,0.6,0.3,1.1v11.4c0,0.5-0.1,0.9-0.3,1.1c-0.2,0.2-0.5,0.4-0.9,0.4c-0.4,0-0.6-0.1-0.9-0.4
			C3.6,531.5,3.5,531.2,3.5,530.7 M-1.6,526.9c0,0.7,0.1,1.3,0.3,1.8c0.2,0.5,0.5,0.9,0.9,1.1c0.4,0.3,0.8,0.4,1.2,0.4
			c0.5,0,0.9-0.1,1.3-0.4c0.4-0.2,0.7-0.6,0.9-1.1c0.2-0.5,0.3-1.1,0.3-1.8c0-0.7-0.1-1.3-0.3-1.8c-0.2-0.5-0.5-0.9-0.9-1.1
			c-0.4-0.3-0.8-0.4-1.3-0.4c-0.5,0-0.9,0.1-1.3,0.4c-0.4,0.3-0.7,0.7-0.9,1.2C-1.5,525.6-1.6,526.2-1.6,526.9"/>
		<path class="st3" d="M14.9,527.5H9.9c0,0.6,0.1,1.1,0.4,1.6c0.2,0.5,0.5,0.8,0.9,1c0.4,0.2,0.8,0.3,1.3,0.3c0.3,0,0.6,0,0.9-0.1
			c0.3-0.1,0.5-0.2,0.7-0.3c0.2-0.2,0.5-0.3,0.7-0.5c0.2-0.2,0.5-0.4,0.8-0.7c0.1-0.1,0.3-0.2,0.6-0.2c0.3,0,0.5,0.1,0.6,0.2
			c0.2,0.1,0.2,0.3,0.2,0.6c0,0.2-0.1,0.5-0.3,0.8c-0.2,0.3-0.5,0.6-0.8,0.9c-0.4,0.3-0.8,0.5-1.4,0.7c-0.6,0.2-1.2,0.3-1.9,0.3
			c-1.7,0-3-0.5-3.9-1.4c-0.9-1-1.4-2.2-1.4-3.9c0-0.8,0.1-1.5,0.3-2.1c0.2-0.7,0.6-1.2,1-1.7c0.4-0.5,1-0.8,1.6-1.1
			c0.6-0.3,1.3-0.4,2.1-0.4c1,0,1.9,0.2,2.6,0.6c0.7,0.4,1.3,1,1.6,1.7c0.4,0.7,0.5,1.4,0.5,2.1c0,0.7-0.2,1.1-0.6,1.3
			C16.1,527.4,15.6,527.5,14.9,527.5 M9.9,526.1h4.7c-0.1-0.9-0.3-1.6-0.7-2c-0.4-0.4-1-0.7-1.6-0.7c-0.6,0-1.2,0.2-1.6,0.7
			C10.2,524.5,9.9,525.2,9.9,526.1"/>
		<path class="st3" d="M26.7,528.8c0,0.7-0.2,1.3-0.5,1.8c-0.3,0.5-0.9,0.9-1.5,1.2c-0.7,0.3-1.5,0.4-2.5,0.4
			c-0.9,0-1.7-0.1-2.4-0.4c-0.7-0.3-1.2-0.6-1.5-1.1c-0.3-0.4-0.5-0.9-0.5-1.3c0-0.3,0.1-0.5,0.3-0.7c0.2-0.2,0.5-0.3,0.8-0.3
			c0.3,0,0.5,0.1,0.6,0.2c0.1,0.1,0.3,0.3,0.4,0.6c0.3,0.5,0.6,0.8,1,1c0.4,0.2,0.9,0.3,1.5,0.3c0.5,0,0.9-0.1,1.3-0.3
			c0.3-0.2,0.5-0.5,0.5-0.8c0-0.5-0.2-0.8-0.5-1c-0.3-0.2-0.9-0.4-1.7-0.6c-0.9-0.2-1.6-0.5-2.2-0.7c-0.6-0.2-1-0.6-1.3-1
			c-0.3-0.4-0.5-0.9-0.5-1.5c0-0.5,0.2-1,0.5-1.5c0.3-0.5,0.8-0.8,1.4-1.1c0.6-0.3,1.3-0.4,2.2-0.4c0.7,0,1.3,0.1,1.8,0.2
			c0.5,0.1,1,0.3,1.3,0.6c0.4,0.2,0.6,0.5,0.8,0.8c0.2,0.3,0.3,0.6,0.3,0.8c0,0.3-0.1,0.5-0.3,0.7c-0.2,0.2-0.5,0.3-0.9,0.3
			c-0.3,0-0.5-0.1-0.7-0.2c-0.2-0.2-0.4-0.4-0.6-0.7c-0.2-0.3-0.4-0.5-0.7-0.6c-0.3-0.2-0.6-0.2-1.1-0.2c-0.5,0-0.9,0.1-1.2,0.3
			c-0.3,0.2-0.5,0.4-0.5,0.7c0,0.3,0.1,0.5,0.3,0.7c0.2,0.2,0.5,0.3,0.9,0.4c0.4,0.1,0.9,0.3,1.6,0.4c0.8,0.2,1.5,0.4,2,0.7
			c0.5,0.3,0.9,0.6,1.2,1C26.6,527.9,26.7,528.3,26.7,528.8"/>
		<path class="st3" d="M29.4,520.4c-0.4,0-0.7-0.1-0.9-0.3c-0.3-0.2-0.4-0.5-0.4-0.9c0-0.4,0.1-0.7,0.4-0.9c0.3-0.2,0.6-0.4,0.9-0.4
			c0.3,0,0.6,0.1,0.9,0.3c0.3,0.2,0.4,0.5,0.4,0.9c0,0.4-0.1,0.7-0.4,0.9C30,520.3,29.7,520.4,29.4,520.4 M30.7,523.1v7.5
			c0,0.5-0.1,0.9-0.4,1.2c-0.2,0.3-0.6,0.4-0.9,0.4s-0.7-0.1-0.9-0.4c-0.2-0.3-0.4-0.7-0.4-1.2v-7.4c0-0.5,0.1-0.9,0.4-1.2
			c0.2-0.3,0.5-0.4,0.9-0.4s0.7,0.1,0.9,0.4C30.5,522.3,30.7,522.6,30.7,523.1"/>
		<path class="st3" d="M42,523.5v7.5c0,0.9-0.1,1.6-0.3,2.2c-0.2,0.6-0.5,1.1-0.9,1.5c-0.4,0.4-0.9,0.7-1.6,0.9
			c-0.7,0.2-1.5,0.3-2.4,0.3c-0.9,0-1.7-0.1-2.4-0.4c-0.7-0.3-1.2-0.6-1.6-1c-0.4-0.4-0.6-0.8-0.6-1.2c0-0.3,0.1-0.6,0.3-0.8
			c0.2-0.2,0.5-0.3,0.8-0.3c0.4,0,0.7,0.2,1,0.5c0.1,0.2,0.3,0.3,0.4,0.5c0.1,0.2,0.3,0.3,0.5,0.4c0.2,0.1,0.4,0.2,0.7,0.3
			c0.3,0.1,0.5,0.1,0.9,0.1c0.7,0,1.2-0.1,1.6-0.3c0.4-0.2,0.6-0.4,0.8-0.8c0.1-0.3,0.2-0.7,0.3-1.1c0-0.4,0-1,0.1-1.8
			c-0.4,0.6-0.9,1-1.4,1.3c-0.5,0.3-1.1,0.4-1.9,0.4c-0.9,0-1.6-0.2-2.3-0.7c-0.6-0.4-1.1-1.1-1.5-1.9c-0.3-0.8-0.5-1.7-0.5-2.8
			c0-0.8,0.1-1.5,0.3-2.1c0.2-0.6,0.5-1.2,0.9-1.6c0.4-0.4,0.8-0.8,1.4-1c0.5-0.2,1.1-0.3,1.7-0.3c0.7,0,1.4,0.1,1.9,0.4
			c0.5,0.3,1,0.7,1.5,1.3v-0.4c0-0.5,0.1-0.8,0.3-1c0.2-0.2,0.5-0.4,0.9-0.4c0.5,0,0.8,0.2,1,0.5C41.9,522.5,42,522.9,42,523.5
			 M34.5,526.8c0,1.1,0.2,1.8,0.7,2.4c0.5,0.5,1.1,0.8,1.8,0.8c0.4,0,0.8-0.1,1.2-0.3c0.4-0.2,0.7-0.6,0.9-1c0.2-0.5,0.4-1,0.4-1.7
			c0-1.1-0.2-1.9-0.7-2.5c-0.5-0.6-1.1-0.9-1.8-0.9c-0.7,0-1.3,0.3-1.8,0.8C34.7,525,34.5,525.8,34.5,526.8"/>
		<path class="st3" d="M46.2,523.1v0.3c0.5-0.6,1-1,1.5-1.3c0.5-0.3,1.2-0.4,1.9-0.4c0.7,0,1.3,0.2,1.8,0.4c0.5,0.3,0.9,0.7,1.2,1.3
			c0.2,0.3,0.3,0.7,0.3,1c0.1,0.4,0.1,0.8,0.1,1.4v4.8c0,0.5-0.1,0.9-0.4,1.2c-0.2,0.3-0.5,0.4-0.9,0.4c-0.4,0-0.7-0.1-0.9-0.4
			c-0.2-0.3-0.4-0.7-0.4-1.2v-4.3c0-0.9-0.1-1.5-0.4-2c-0.2-0.5-0.7-0.7-1.4-0.7c-0.5,0-0.9,0.1-1.3,0.4c-0.4,0.3-0.7,0.7-0.8,1.1
			c-0.1,0.4-0.2,1.1-0.2,2.2v3.2c0,0.5-0.1,0.9-0.4,1.2c-0.2,0.3-0.6,0.4-0.9,0.4c-0.4,0-0.7-0.1-0.9-0.4c-0.2-0.3-0.4-0.7-0.4-1.2
			v-7.5c0-0.5,0.1-0.9,0.3-1.1c0.2-0.2,0.5-0.4,0.9-0.4c0.2,0,0.4,0.1,0.6,0.2c0.2,0.1,0.3,0.3,0.4,0.5
			C46.1,522.5,46.2,522.8,46.2,523.1"/>
		<path class="st3" d="M61.9,527.5h-5.1c0,0.6,0.1,1.1,0.4,1.6c0.2,0.5,0.5,0.8,0.9,1c0.4,0.2,0.8,0.3,1.3,0.3c0.3,0,0.6,0,0.9-0.1
			c0.3-0.1,0.5-0.2,0.7-0.3c0.2-0.2,0.5-0.3,0.7-0.5c0.2-0.2,0.5-0.4,0.8-0.7c0.1-0.1,0.3-0.2,0.6-0.2c0.3,0,0.5,0.1,0.6,0.2
			c0.2,0.1,0.2,0.3,0.2,0.6c0,0.2-0.1,0.5-0.3,0.8c-0.2,0.3-0.5,0.6-0.8,0.9c-0.4,0.3-0.8,0.5-1.4,0.7c-0.6,0.2-1.2,0.3-1.9,0.3
			c-1.7,0-3-0.5-3.9-1.4c-0.9-1-1.4-2.2-1.4-3.9c0-0.8,0.1-1.5,0.3-2.1c0.2-0.7,0.6-1.2,1-1.7c0.4-0.5,1-0.8,1.6-1.1
			c0.6-0.3,1.3-0.4,2.1-0.4c1,0,1.9,0.2,2.6,0.6c0.7,0.4,1.3,1,1.6,1.7c0.4,0.7,0.5,1.4,0.5,2.1c0,0.7-0.2,1.1-0.6,1.3
			C63.1,527.4,62.6,527.5,61.9,527.5 M56.9,526.1h4.7c-0.1-0.9-0.3-1.6-0.7-2c-0.4-0.4-1-0.7-1.6-0.7c-0.6,0-1.2,0.2-1.6,0.7
			C57.2,524.5,56.9,525.2,56.9,526.1"/>
		<path class="st3" d="M72.5,530.7v-0.3c-0.3,0.4-0.7,0.7-1,1c-0.3,0.3-0.7,0.4-1.1,0.6c-0.4,0.1-0.8,0.2-1.3,0.2
			c-0.6,0-1.2-0.1-1.7-0.4c-0.5-0.3-1-0.6-1.4-1.1c-0.4-0.5-0.7-1.1-0.9-1.7c-0.2-0.7-0.3-1.4-0.3-2.1c0-1.6,0.4-2.9,1.2-3.8
			c0.8-0.9,1.8-1.4,3.1-1.4c0.7,0,1.4,0.1,1.9,0.4c0.5,0.3,1,0.7,1.5,1.2v-3.8c0-0.5,0.1-0.9,0.3-1.2c0.2-0.3,0.5-0.4,0.9-0.4
			c0.4,0,0.7,0.1,0.9,0.4c0.2,0.3,0.3,0.6,0.3,1.1v11.4c0,0.5-0.1,0.9-0.3,1.1c-0.2,0.2-0.5,0.4-0.9,0.4c-0.4,0-0.6-0.1-0.9-0.4
			C72.6,531.5,72.5,531.2,72.5,530.7 M67.4,526.9c0,0.7,0.1,1.3,0.3,1.8c0.2,0.5,0.5,0.9,0.9,1.1c0.4,0.3,0.8,0.4,1.2,0.4
			c0.5,0,0.9-0.1,1.2-0.4c0.4-0.2,0.7-0.6,0.9-1.1c0.2-0.5,0.3-1.1,0.3-1.8c0-0.7-0.1-1.3-0.3-1.8c-0.2-0.5-0.5-0.9-0.9-1.1
			c-0.4-0.3-0.8-0.4-1.3-0.4c-0.5,0-0.9,0.1-1.3,0.4c-0.4,0.3-0.7,0.7-0.9,1.2C67.5,525.6,67.4,526.2,67.4,526.9"/>
		<path class="st3" d="M83.1,519.3v4c0.5-0.5,1-0.9,1.5-1.2c0.5-0.3,1.1-0.4,1.9-0.4c0.9,0,1.6,0.2,2.3,0.6c0.6,0.4,1.2,1,1.5,1.8
			c0.4,0.8,0.5,1.7,0.5,2.8c0,0.8-0.1,1.5-0.3,2.2c-0.2,0.7-0.5,1.2-0.9,1.7c-0.4,0.5-0.8,0.9-1.4,1.1c-0.5,0.3-1.1,0.4-1.8,0.4
			c-0.4,0-0.8,0-1.1-0.1c-0.4-0.1-0.7-0.2-0.9-0.4c-0.2-0.2-0.5-0.3-0.6-0.5c-0.2-0.2-0.4-0.4-0.7-0.7v0.3c0,0.5-0.1,0.9-0.4,1.1
			c-0.2,0.3-0.5,0.4-0.9,0.4c-0.4,0-0.7-0.1-0.9-0.4c-0.2-0.3-0.3-0.6-0.3-1.1v-11.3c0-0.5,0.1-0.9,0.3-1.2c0.2-0.3,0.5-0.4,0.9-0.4
			c0.4,0,0.7,0.1,0.9,0.4C83,518.4,83.1,518.8,83.1,519.3 M83.2,527c0,1,0.2,1.8,0.7,2.4c0.5,0.6,1.1,0.8,1.9,0.8
			c0.7,0,1.2-0.3,1.7-0.9c0.5-0.6,0.7-1.4,0.7-2.4c0-0.7-0.1-1.3-0.3-1.8c-0.2-0.5-0.5-0.9-0.8-1.1c-0.4-0.3-0.8-0.4-1.3-0.4
			c-0.5,0-0.9,0.1-1.3,0.4c-0.4,0.3-0.7,0.7-0.9,1.2C83.3,525.7,83.2,526.3,83.2,527"/>
		<path class="st3" d="M94.1,532.5l0.2-0.6l-3.2-8c-0.2-0.5-0.3-0.8-0.3-1c0-0.2,0.1-0.4,0.2-0.6c0.1-0.2,0.3-0.3,0.5-0.5
			c0.2-0.1,0.4-0.2,0.6-0.2c0.4,0,0.7,0.1,0.8,0.4c0.2,0.2,0.4,0.6,0.5,1l2.2,6.4l2.1-5.9c0.2-0.5,0.3-0.9,0.4-1.1
			c0.1-0.3,0.3-0.5,0.4-0.5c0.1-0.1,0.4-0.1,0.6-0.1c0.2,0,0.4,0.1,0.6,0.2c0.2,0.1,0.3,0.2,0.4,0.4c0.1,0.2,0.1,0.4,0.1,0.6
			c0,0.1-0.1,0.3-0.1,0.5c-0.1,0.2-0.1,0.4-0.2,0.7l-3.4,8.9c-0.3,0.8-0.6,1.4-0.9,1.8c-0.3,0.4-0.6,0.8-1.1,1
			c-0.5,0.2-1.1,0.4-1.9,0.4c-0.8,0-1.3-0.1-1.7-0.2c-0.4-0.2-0.6-0.5-0.6-0.9c0-0.3,0.1-0.5,0.3-0.7c0.2-0.2,0.4-0.2,0.8-0.2
			c0.1,0,0.3,0,0.4,0.1c0.2,0,0.3,0.1,0.4,0.1c0.3,0,0.5,0,0.7-0.1c0.2-0.1,0.3-0.2,0.5-0.5C93.8,533.2,94,532.9,94.1,532.5"/>
		<path class="st3" d="M131.7,521.9h0.6v-0.8c0-0.8,0.1-1.5,0.3-1.9c0.2-0.5,0.6-0.8,1-1c0.5-0.2,1.2-0.3,2-0.3
			c1.5,0,2.3,0.4,2.3,1.1c0,0.2-0.1,0.4-0.2,0.6c-0.2,0.2-0.3,0.3-0.6,0.3c-0.1,0-0.3,0-0.5-0.1c-0.2,0-0.5-0.1-0.6-0.1
			c-0.5,0-0.8,0.1-0.9,0.4c-0.1,0.3-0.2,0.7-0.2,1.2v0.6h0.6c1,0,1.5,0.3,1.5,0.9c0,0.4-0.1,0.7-0.4,0.8c-0.3,0.1-0.6,0.2-1.1,0.2
			h-0.6v6.9c0,0.5-0.1,0.9-0.4,1.2c-0.2,0.3-0.6,0.4-0.9,0.4c-0.4,0-0.7-0.1-0.9-0.4c-0.2-0.3-0.4-0.7-0.4-1.2v-6.9h-0.7
			c-0.4,0-0.7-0.1-0.9-0.3c-0.2-0.2-0.3-0.4-0.3-0.7C130.4,522.2,130.8,521.9,131.7,521.9"/>
		<path class="st3" d="M140.2,528.4v2.2c0,0.5-0.1,0.9-0.4,1.2c-0.2,0.3-0.6,0.4-0.9,0.4c-0.4,0-0.7-0.1-0.9-0.4
			c-0.2-0.3-0.4-0.7-0.4-1.2v-7.2c0-1.2,0.4-1.7,1.3-1.7c0.4,0,0.7,0.1,0.9,0.4c0.2,0.3,0.3,0.7,0.3,1.2c0.3-0.5,0.6-0.9,0.9-1.2
			c0.3-0.3,0.8-0.4,1.3-0.4c0.5,0,1.1,0.1,1.6,0.4c0.5,0.3,0.8,0.6,0.8,1.1c0,0.3-0.1,0.6-0.3,0.8c-0.2,0.2-0.5,0.3-0.7,0.3
			c-0.1,0-0.3-0.1-0.7-0.2c-0.4-0.1-0.7-0.2-1-0.2c-0.4,0-0.7,0.1-0.9,0.3c-0.2,0.2-0.4,0.5-0.6,0.9c-0.1,0.4-0.2,0.9-0.3,1.4
			C140.2,527,140.2,527.7,140.2,528.4"/>
		<path class="st3" d="M152.1,527.5H147c0,0.6,0.1,1.1,0.4,1.6c0.2,0.4,0.5,0.8,0.9,1c0.4,0.2,0.8,0.3,1.3,0.3c0.3,0,0.6,0,0.8-0.1
			c0.3-0.1,0.5-0.2,0.7-0.3c0.2-0.2,0.5-0.3,0.7-0.5c0.2-0.2,0.5-0.4,0.8-0.7c0.1-0.1,0.3-0.2,0.6-0.2c0.3,0,0.5,0.1,0.6,0.2
			c0.2,0.1,0.2,0.3,0.2,0.6c0,0.2-0.1,0.5-0.3,0.8c-0.2,0.3-0.5,0.6-0.8,0.9c-0.4,0.3-0.8,0.5-1.4,0.7c-0.6,0.2-1.2,0.3-1.9,0.3
			c-1.7,0-3-0.5-3.9-1.4c-0.9-1-1.4-2.2-1.4-3.9c0-0.8,0.1-1.5,0.3-2.1c0.2-0.7,0.6-1.2,1-1.7c0.4-0.5,1-0.8,1.6-1.1
			c0.6-0.2,1.3-0.4,2.1-0.4c1,0,1.9,0.2,2.6,0.6c0.7,0.4,1.3,1,1.6,1.7c0.4,0.7,0.5,1.4,0.5,2.1c0,0.6-0.2,1.1-0.6,1.3
			C153.3,527.4,152.8,527.5,152.1,527.5 M147,526.1h4.7c-0.1-0.9-0.3-1.6-0.7-2c-0.4-0.4-1-0.7-1.6-0.7c-0.6,0-1.2,0.2-1.6,0.7
			C147.4,524.5,147.1,525.2,147,526.1"/>
		<path class="st3" d="M162.9,527.5h-5.1c0,0.6,0.1,1.1,0.4,1.6c0.2,0.4,0.5,0.8,0.9,1c0.4,0.2,0.8,0.3,1.3,0.3c0.3,0,0.6,0,0.8-0.1
			c0.3-0.1,0.5-0.2,0.8-0.3c0.2-0.2,0.5-0.3,0.7-0.5c0.2-0.2,0.5-0.4,0.8-0.7c0.1-0.1,0.3-0.2,0.6-0.2c0.3,0,0.5,0.1,0.7,0.2
			c0.2,0.1,0.2,0.3,0.2,0.6c0,0.2-0.1,0.5-0.3,0.8c-0.2,0.3-0.5,0.6-0.8,0.9c-0.4,0.3-0.8,0.5-1.4,0.7c-0.6,0.2-1.2,0.3-1.9,0.3
			c-1.7,0-3-0.5-3.9-1.4c-0.9-1-1.4-2.2-1.4-3.9c0-0.8,0.1-1.5,0.3-2.1c0.2-0.7,0.6-1.2,1-1.7c0.4-0.5,1-0.8,1.6-1.1
			c0.6-0.2,1.3-0.4,2.1-0.4c1,0,1.9,0.2,2.6,0.6c0.7,0.4,1.3,1,1.6,1.7c0.4,0.7,0.5,1.4,0.5,2.1c0,0.6-0.2,1.1-0.6,1.3
			C164.1,527.4,163.6,527.5,162.9,527.5 M157.8,526.1h4.7c-0.1-0.9-0.3-1.6-0.7-2c-0.4-0.4-1-0.7-1.6-0.7c-0.6,0-1.2,0.2-1.6,0.7
			C158.2,524.5,157.9,525.2,157.8,526.1"/>
		<path class="st3" d="M168.6,523.1v0.3c0.5-0.6,1-1,1.5-1.3c0.5-0.3,1.1-0.4,1.8-0.4c0.8,0,1.5,0.2,2.2,0.6c0.7,0.4,1.2,1,1.6,1.8
			c0.4,0.8,0.6,1.7,0.6,2.8c0,0.8-0.1,1.5-0.3,2.2c-0.2,0.7-0.5,1.2-0.9,1.7c-0.4,0.5-0.9,0.8-1.4,1c-0.5,0.2-1.1,0.4-1.7,0.4
			c-0.7,0-1.4-0.1-1.9-0.4c-0.5-0.3-1-0.7-1.4-1.3v3.9c0,1.1-0.4,1.7-1.2,1.7c-0.5,0-0.8-0.1-1-0.4c-0.2-0.3-0.2-0.7-0.2-1.3v-11.2
			c0-0.5,0.1-0.9,0.3-1.1c0.2-0.2,0.5-0.4,0.9-0.4c0.4,0,0.7,0.1,0.9,0.4C168.5,522.3,168.6,522.6,168.6,523.1 M173.7,526.9
			c0-0.7-0.1-1.3-0.3-1.8c-0.2-0.5-0.5-0.9-0.9-1.1c-0.4-0.3-0.8-0.4-1.2-0.4c-0.7,0-1.3,0.3-1.8,0.8c-0.5,0.6-0.7,1.4-0.7,2.5
			c0,1,0.2,1.8,0.7,2.4c0.5,0.6,1.1,0.9,1.8,0.9c0.4,0,0.8-0.1,1.2-0.4c0.4-0.3,0.7-0.6,0.9-1.1
			C173.6,528.2,173.7,527.6,173.7,526.9"/>
		<path class="st3" d="M178.9,520.4c-0.4,0-0.7-0.1-0.9-0.3c-0.3-0.2-0.4-0.5-0.4-0.9c0-0.4,0.1-0.7,0.4-0.9
			c0.3-0.2,0.6-0.4,0.9-0.4c0.3,0,0.6,0.1,0.9,0.3c0.3,0.2,0.4,0.5,0.4,0.9c0,0.4-0.1,0.7-0.4,0.9
			C179.5,520.3,179.2,520.4,178.9,520.4 M180.2,523.1v7.5c0,0.5-0.1,0.9-0.4,1.2c-0.3,0.3-0.6,0.4-0.9,0.4c-0.4,0-0.7-0.1-0.9-0.4
			c-0.2-0.3-0.4-0.7-0.4-1.2v-7.4c0-0.5,0.1-0.9,0.4-1.2c0.2-0.3,0.5-0.4,0.9-0.4c0.4,0,0.7,0.1,0.9,0.4
			C180,522.3,180.2,522.6,180.2,523.1"/>
		<path class="st3" d="M188.5,531l-2.3-3.8l-1.4,1.3v2.1c0,0.5-0.1,0.9-0.4,1.1c-0.3,0.3-0.6,0.4-0.9,0.4c-0.4,0-0.7-0.1-0.9-0.4
			c-0.2-0.3-0.3-0.7-0.3-1.2v-11.1c0-0.6,0.1-1,0.3-1.3c0.2-0.3,0.5-0.5,1-0.5c0.4,0,0.7,0.1,0.9,0.4c0.2,0.3,0.4,0.7,0.4,1.2v6.3
			l2.9-3.1c0.4-0.4,0.6-0.6,0.8-0.8c0.2-0.1,0.4-0.2,0.7-0.2c0.3,0,0.6,0.1,0.8,0.3c0.2,0.2,0.3,0.5,0.3,0.8c0,0.4-0.4,0.9-1.1,1.5
			l-1.4,1.3l2.7,4.2c0.2,0.3,0.3,0.5,0.4,0.7c0.1,0.2,0.1,0.3,0.1,0.5c0,0.4-0.1,0.7-0.3,1c-0.2,0.2-0.5,0.4-0.9,0.4
			c-0.3,0-0.6-0.1-0.7-0.3C189.1,531.7,188.8,531.4,188.5,531"/>
		<path class="st3" d="M194.2,532.2c-0.4,0-0.7-0.1-1-0.4c-0.3-0.2-0.4-0.6-0.4-1.1c0-0.4,0.1-0.7,0.4-1c0.3-0.3,0.6-0.4,1-0.4
			c0.4,0,0.7,0.1,1,0.4c0.3,0.3,0.4,0.6,0.4,1c0,0.5-0.1,0.8-0.4,1.1C194.9,532.1,194.5,532.2,194.2,532.2"/>
		<path class="st3" d="M207.1,529c0,0.3-0.1,0.7-0.3,1c-0.2,0.4-0.5,0.7-0.9,1.1c-0.4,0.3-0.9,0.6-1.5,0.8c-0.6,0.2-1.3,0.3-2,0.3
			c-1.6,0-2.9-0.5-3.8-1.4c-0.9-0.9-1.3-2.2-1.3-3.8c0-1.1,0.2-2,0.6-2.8c0.4-0.8,1-1.4,1.8-1.9c0.8-0.4,1.7-0.7,2.8-0.7
			c0.7,0,1.3,0.1,1.9,0.3c0.6,0.2,1,0.5,1.4,0.8c0.4,0.3,0.7,0.6,0.9,1c0.2,0.4,0.3,0.7,0.3,1c0,0.3-0.1,0.6-0.3,0.8
			c-0.2,0.2-0.5,0.3-0.8,0.3c-0.2,0-0.4-0.1-0.5-0.2c-0.1-0.1-0.3-0.3-0.5-0.5c-0.3-0.5-0.6-0.8-1-1.1c-0.3-0.2-0.8-0.4-1.3-0.4
			c-0.8,0-1.4,0.3-1.9,0.9c-0.5,0.6-0.7,1.4-0.7,2.5c0,0.5,0.1,0.9,0.2,1.3c0.1,0.4,0.3,0.8,0.5,1c0.2,0.3,0.5,0.5,0.8,0.7
			c0.3,0.2,0.7,0.2,1.1,0.2c0.5,0,1-0.1,1.3-0.4c0.4-0.2,0.7-0.6,1-1.1c0.2-0.3,0.3-0.5,0.5-0.7c0.2-0.2,0.4-0.2,0.7-0.2
			c0.3,0,0.6,0.1,0.8,0.4C207,528.4,207.1,528.7,207.1,529"/>
		<path class="st3" d="M218.2,526.9c0,0.8-0.1,1.5-0.4,2.1c-0.2,0.7-0.6,1.2-1.1,1.7c-0.5,0.5-1,0.8-1.6,1.1
			c-0.6,0.2-1.3,0.4-2.1,0.4c-0.8,0-1.5-0.1-2.1-0.4c-0.6-0.2-1.2-0.6-1.6-1.1c-0.5-0.5-0.8-1-1.1-1.7c-0.2-0.6-0.4-1.4-0.4-2.1
			c0-0.8,0.1-1.5,0.4-2.2c0.2-0.7,0.6-1.2,1-1.7c0.5-0.5,1-0.8,1.6-1.1c0.6-0.2,1.3-0.4,2.1-0.4c0.8,0,1.5,0.1,2.1,0.4
			c0.6,0.3,1.2,0.6,1.6,1.1c0.5,0.5,0.8,1,1,1.7C218.1,525.4,218.2,526.1,218.2,526.9 M215.6,526.9c0-1.1-0.2-1.9-0.7-2.5
			c-0.5-0.6-1.1-0.9-1.9-0.9c-0.5,0-1,0.1-1.3,0.4c-0.4,0.3-0.7,0.7-0.9,1.2c-0.2,0.5-0.3,1.1-0.3,1.8c0,0.7,0.1,1.3,0.3,1.8
			c0.2,0.5,0.5,0.9,0.9,1.2c0.4,0.3,0.8,0.4,1.4,0.4c0.8,0,1.4-0.3,1.9-0.9C215.4,528.8,215.6,527.9,215.6,526.9"/>
		<path class="st3" d="M228.1,527.1v3.4c0,0.5-0.1,1-0.4,1.2c-0.3,0.3-0.6,0.4-1,0.4c-0.4,0-0.7-0.1-1-0.4c-0.2-0.3-0.4-0.7-0.4-1.2
			v-4.1c0-0.7,0-1.2-0.1-1.5c0-0.4-0.2-0.7-0.4-0.9c-0.2-0.2-0.5-0.4-0.9-0.4c-0.9,0-1.4,0.3-1.7,0.9c-0.3,0.6-0.4,1.4-0.4,2.5v3.5
			c0,0.5-0.1,0.9-0.4,1.2c-0.2,0.3-0.6,0.4-1,0.4c-0.4,0-0.7-0.1-1-0.4c-0.3-0.3-0.4-0.7-0.4-1.2v-7.4c0-0.5,0.1-0.9,0.3-1.1
			c0.2-0.3,0.5-0.4,0.9-0.4c0.4,0,0.7,0.1,0.9,0.4c0.2,0.2,0.4,0.6,0.4,1v0.2c0.5-0.5,0.9-0.9,1.4-1.2c0.5-0.3,1.1-0.4,1.7-0.4
			c0.7,0,1.2,0.1,1.7,0.4c0.5,0.3,0.9,0.7,1.2,1.2c0.4-0.5,0.9-0.9,1.4-1.2c0.5-0.3,1.1-0.4,1.7-0.4c0.7,0,1.3,0.1,1.8,0.4
			c0.5,0.3,0.9,0.7,1.1,1.2c0.2,0.5,0.3,1.2,0.3,2.2v5.1c0,0.5-0.1,1-0.4,1.2c-0.2,0.3-0.6,0.4-1,0.4c-0.4,0-0.7-0.1-1-0.4
			c-0.3-0.3-0.4-0.7-0.4-1.2v-4.4c0-0.6,0-1-0.1-1.3c0-0.3-0.2-0.6-0.4-0.8c-0.2-0.2-0.5-0.3-1-0.3c-0.3,0-0.7,0.1-1,0.3
			c-0.3,0.2-0.5,0.5-0.7,0.8C228.2,525.2,228.1,526,228.1,527.1"/>
		<path class="st3" d="M107.4,526.3C107.4,526.3,107.4,526.3,107.4,526.3C107.4,526.3,107.4,526.3,107.4,526.3"/>
		<path class="st3" d="M107.6,527.1L107.6,527.1c0-0.2-0.1-0.5-0.1-0.7C107.5,526.6,107.5,526.9,107.6,527.1"/>
		<path class="st3" d="M108.4,529.5C108.4,529.5,108.4,529.5,108.4,529.5C108.4,529.5,108.4,529.5,108.4,529.5"/>
		<path class="st3" d="M108.3,529.4c0,0,0-0.1-0.1-0.1C108.3,529.3,108.3,529.3,108.3,529.4"/>
		<path class="st3" d="M107.8,528c0.1,0.4,0.3,0.8,0.5,1.2C108.1,528.8,107.9,528.4,107.8,528L107.8,528z"/>
		<path class="st3" d="M108.4,520.2L108.4,520.2c0-0.1,0.1-0.1,0.1-0.2l-0.3-0.2l-0.5-0.4c0,0-0.8,0.7-1.4,2c0,0-0.1-0.1-0.1-0.1
			c-0.2-0.2-0.4-0.3-0.8-0.3h0c-0.2,0-0.3-0.1-0.4-0.1c0.1-0.1,0.1-0.3,0.1-0.4c0-0.4-0.3-0.7-0.7-0.7c-0.4,0-0.7,0.3-0.7,0.7
			c0,0.4,0.3,0.7,0.7,0.7c0.1,0,0.1,0,0.2,0c0.2,0.2,0.4,0.3,0.8,0.3c0.2,0,0.3,0,0.4,0.2c0.1,0.1,0.1,0.3,0.2,0.4c0,0,0,0,0,0
			c-0.4,1.2-0.3,2.7-0.3,2.7l1.1,0c0-0.5,0.1-1.5,0.4-2.2C107.7,521.1,108.4,520.2,108.4,520.2"/>
		<path class="st3" d="M126.7,517.2c-0.4,0-0.7,0.3-0.7,0.7c0,0.1,0,0.1,0,0.2c-0.2,0.2-0.3,0.4-0.3,0.8c0,0.2,0,0.3-0.2,0.4
			c-0.1,0.1-0.2,0.1-0.3,0.1c-0.8-1.1-1.8-1.8-1.8-1.8l-0.8,0.8c0.6,0.5,1.2,1.2,1.7,2c0.4,0.6,0.8,1.3,1.1,2l1-0.5
			c0,0-0.5-1.2-1.1-2.2c0.1,0,0.2-0.1,0.3-0.2c0.2-0.2,0.3-0.4,0.3-0.8c0-0.2,0.1-0.3,0.2-0.4c0.1,0.1,0.3,0.1,0.4,0.1
			c0.4,0,0.7-0.3,0.7-0.7C127.3,517.5,127,517.2,126.7,517.2"/>
		<path class="st3" d="M124,526.4c-1.4,0.7-3.7,1.6-6.8,2c-1.2,0.2-2.4,0.2-3.4,0.2c-1.4,0-2.6-0.1-3.6-0.2
			c-1.1-0.1-1.9-0.3-2.4-0.4c0.1,0.4,0.3,0.8,0.5,1.2c0,0,0,0,0,0c0,0,0,0.1,0.1,0.1c0,0,0,0.1,0.1,0.1c0,0,0,0,0,0
			c0.3,0.6,0.7,1.1,1.1,1.5c1.4,1.6,2.9,1.8,2.9,1.8l0,0l0,0c0,0,1.3,0.4,3.3,0.4c1.9,0,3.9-0.4,5.7-1.2c1.3-0.7,2.6-1.7,3.3-2.7
			c0.5-0.7,0.8-1.5,1-2.3c0.1-0.4,0.2-1.1,0.1-1.8C125.5,525.6,124.9,526,124,526.4"/>
		<path class="st3" d="M108.9,520.5c0,0.1-0.7,0.9-1.1,2.3c-0.4,1-0.3,2.4-0.3,2.5v0c0,0.3,0,0.7,0.1,1c0,0,0,0,0,0c0,0,0,0.1,0,0.1
			c0,0.2,0.1,0.5,0.1,0.7c0.7,0.2,4.9,1.2,9.5,0.5c2.9-0.4,5.1-1.3,6.5-1.9c1.1-0.5,1.8-1,2.1-1.2c-0.3-1-1-2.6-1.7-3.6
			c-2-2.9-4.2-3.6-5.3-3.8c-0.4-0.1-0.8-0.1-1.2-0.1c-0.4,0-1,0-1.7,0.1c-0.7,0.1-1.6,0.3-2.5,0.6c-1.3,0.5-2.6,1.2-3.5,2l0,0
			C109.5,519.8,109.2,520.1,108.9,520.5 M121.1,519.9c1,0,1.7,0.8,1.7,1.7c0,1-0.8,1.7-1.7,1.7c-1,0-1.7-0.8-1.7-1.7
			C119.4,520.6,120.2,519.9,121.1,519.9 M112.9,519.8c1.6,0,2.8,1.3,2.8,2.8c0,1.6-1.3,2.8-2.8,2.8c-1.6,0-2.8-1.3-2.8-2.8
			C110.1,521.1,111.3,519.8,112.9,519.8"/>
	</g>
</g>
<g id="Design">
	<path class="st4" d="M235.5,111.8c0,60.6-49.1,109.8-109.8,109.8c-41.1,0-77-22.6-95.8-56.1c-0.9-1.6-1.8-3.3-2.6-5
		c-0.5-1.1-1.1-2.2-1.6-3.3c-1.3-2.8-4.3-11-4.7-12.2c-3.3-10.5-5.1-21.6-5.1-33.2C16,51.2,65.1,2,125.8,2S235.5,51.2,235.5,111.8z"
		/>
	<polyline class="st4" points="23.3,148.5 131.1,299.3 229.2,148.5 	"/>
	<g>
		<g>
			<g>
				<path class="st5" d="M351,112.7c-0.4-0.4-0.7-0.9-1.1-1.3c-0.4-0.5-0.8-1-1.2-1.5c-0.4-0.5-0.8-1-1.3-1.6
					c-0.4-0.6-0.8-1.2-1.3-1.8c-0.2-0.3-0.4-0.6-0.7-0.9c-0.2-0.3-0.4-0.7-0.6-1c-0.4-0.7-0.9-1.3-1.3-2c-0.8-1.4-1.7-2.9-2.5-4.4
					c-0.8-1.5-1.5-3.1-2.2-4.7c-0.6-1.6-1.3-3.2-1.9-4.8c-0.6-1.6-1-3.2-1.5-4.7c-0.2-0.8-0.4-1.5-0.6-2.3c-0.1-0.4-0.2-0.7-0.3-1.1
					c-0.1-0.4-0.1-0.7-0.2-1.1c-0.1-0.7-0.3-1.4-0.4-2.1c-0.1-0.7-0.2-1.3-0.3-2c-0.1-0.6-0.2-1.2-0.3-1.8c-0.1-0.6-0.1-1.1-0.2-1.6
					c-0.1-0.5-0.1-1-0.1-1.4c0-0.4,0-0.9-0.1-1.2c0-0.9-0.1-1.5-0.1-1.9l-1.4-11.5c-1.3,3.1-19,46.5,7.6,59.1c0,0,6.3,2.5,12.5-0.1
					c0.2-0.1,0.4-0.2,0.6-0.2c0.1,0,0.2-0.1,0.4-0.2c-0.2-0.2-0.3-0.3-0.5-0.5C351.7,113.5,351.4,113.1,351,112.7"/>
				<path class="st5" d="M358.3,83.8c-1.8-1.9-4-3.8-6.5-5.8c-20.8-16-20.2-22.5-20.2-22.5l-0.1,0.2c0.4,2.9,1,7.8,1.4,11.4
					c0-0.2,0-0.3,0-0.3s0.1,0.8,0.4,2.3c0.1,0.4,0.1,0.8,0.2,1.2c0.1,0.4,0.2,0.9,0.3,1.4c0.1,0.5,0.2,1,0.4,1.6
					c0.1,0.6,0.3,1.1,0.5,1.7c0.2,0.6,0.3,1.2,0.5,1.9c0.2,0.6,0.4,1.3,0.7,2c0.1,0.3,0.2,0.7,0.3,1c0.1,0.3,0.3,0.7,0.4,1
					c0.3,0.7,0.5,1.4,0.8,2.2c0.6,1.4,1.2,2.9,2,4.4c0.7,1.5,1.5,2.9,2.3,4.4c0.9,1.4,1.7,2.8,2.7,4.2c0.9,1.4,1.9,2.6,2.8,3.8
					c0.5,0.6,1,1.2,1.4,1.7c0.2,0.3,0.5,0.6,0.7,0.8c0.2,0.3,0.5,0.5,0.7,0.8c0.5,0.5,0.9,1,1.4,1.5c0.5,0.5,0.9,0.9,1.3,1.4
					c0.4,0.4,0.8,0.9,1.2,1.2c0.4,0.4,0.8,0.7,1.1,1c0.4,0.3,0.7,0.6,1,0.9c0.3,0.3,0.7,0.5,0.9,0.8c0.3,0.3,0.6,0.5,0.9,0.7
					c0.9-0.8,1.7-1.7,2.4-2.6C355.4,101.2,354.4,91.8,358.3,83.8"/>
				<path class="st5" d="M400.3,40.8l-1.9,14.9c0,0.5-0.1,1.3-0.1,2.5c0,0.5,0,1-0.1,1.6c-0.1,0.6-0.1,1.2-0.2,1.9
					c-0.1,0.7-0.1,1.4-0.2,2.1c-0.1,0.7-0.2,1.5-0.3,2.3c-0.1,0.8-0.2,1.7-0.4,2.5c-0.2,0.9-0.4,1.8-0.5,2.7
					c-0.1,0.5-0.2,0.9-0.3,1.4c-0.1,0.5-0.2,1-0.4,1.4c-0.2,1-0.5,2-0.7,3c-0.6,2-1.2,4.1-1.9,6.1c-0.7,2.1-1.6,4.1-2.4,6.2
					c-0.9,2-1.8,4.1-2.9,6c-1,2-2.1,3.8-3.2,5.7c-0.6,0.9-1.1,1.8-1.7,2.6c-0.3,0.4-0.6,0.9-0.8,1.3c-0.3,0.4-0.6,0.8-0.9,1.2
					c-0.6,0.8-1.1,1.6-1.6,2.3c-0.5,0.7-1.1,1.4-1.6,2.1c-0.5,0.7-1,1.3-1.5,1.9c-0.5,0.6-1,1.2-1.5,1.7c-0.5,0.5-0.9,1-1.3,1.5
					c-0.2,0.3-0.5,0.5-0.7,0.7c0.2,0.1,0.3,0.1,0.5,0.2c0.3,0.1,0.5,0.2,0.8,0.3c8,3.2,16.1,0.1,16.1,0.1
					C424.8,100.8,401.9,44.7,400.3,40.8"/>
				<path class="st5" d="M374.5,104.2c0.6-0.6,1.2-1.3,1.8-1.9c0.3-0.3,0.6-0.7,0.9-1c0.3-0.4,0.6-0.7,0.9-1.1
					c0.6-0.7,1.2-1.5,1.9-2.3c1.2-1.6,2.5-3.2,3.6-5c1.2-1.7,2.3-3.6,3.4-5.4c1-1.9,2.1-3.7,3-5.6c1-1.9,1.8-3.8,2.6-5.7
					c0.4-0.9,0.7-1.9,1.1-2.8c0.2-0.5,0.3-0.9,0.5-1.4c0.2-0.5,0.3-0.9,0.4-1.3c0.3-0.9,0.6-1.7,0.8-2.6c0.3-0.8,0.5-1.7,0.7-2.4
					c0.2-0.8,0.4-1.5,0.6-2.3c0.2-0.7,0.3-1.4,0.5-2.1c0.1-0.6,0.3-1.3,0.4-1.8c0.1-0.6,0.2-1.1,0.3-1.6c0.3-1.9,0.5-3,0.5-3
					s0,0.2,0,0.4c0.6-4.7,1.4-11,1.9-14.8c-0.1-0.1-0.1-0.2-0.1-0.2s0.8,8.4-26.1,29.1c-3.7,2.9-6.9,5.7-9.4,8.5
					c-1.7,1.8-3,3.7-4,5.7c-3.9,8-2.9,17.4,2.1,24.4c1,1.3,2,2.6,3.3,3.7c0.3-0.3,0.7-0.6,1.1-0.9c0.4-0.3,0.8-0.6,1.2-1
					c0.4-0.4,0.8-0.8,1.3-1.2c0.5-0.4,1-0.9,1.5-1.3c0.5-0.5,1-1,1.6-1.6C373.3,105.4,373.9,104.8,374.5,104.2"/>
			</g>
			<g>
				<g>
					<path class="st4" d="M331.6,161.1c0.2,9.3,6.1,13.1,12.9,13.1c4.9,0,7.9-0.9,10.4-1.9l1.2,4.9c-2.4,1.1-6.5,2.3-12.5,2.3
						c-11.6,0-18.5-7.6-18.5-19s6.7-20.3,17.7-20.3c12.3,0,15.6,10.8,15.6,17.8c0,1.4-0.2,2.5-0.2,3.2H331.6z M351.7,156.2
						c0.1-4.4-1.8-11.1-9.5-11.1c-6.9,0-10,6.4-10.5,11.1H351.7z"/>
					<path class="st4" d="M393.7,177.3c-1.8,0.9-5.8,2.2-10.8,2.2c-11.4,0-18.8-7.7-18.8-19.2c0-11.6,7.9-20,20.3-20
						c4.1,0,7.6,1,9.5,1.9l-1.6,5.3c-1.6-0.9-4.2-1.8-7.9-1.8c-8.6,0-13.3,6.4-13.3,14.3c0,8.7,5.6,14.1,13.1,14.1
						c3.9,0,6.5-1,8.4-1.9L393.7,177.3z"/>
					<path class="st4" d="M435.4,159.5c0,13.9-9.7,20-18.8,20c-10.2,0-18.1-7.5-18.1-19.4c0-12.6,8.3-20,18.7-20
						C428.1,140.1,435.4,148,435.4,159.5z M405.5,159.9c0,8.3,4.8,14.5,11.5,14.5c6.5,0,11.5-6.2,11.5-14.6
						c0-6.4-3.2-14.5-11.3-14.5C409,145.3,405.5,152.8,405.5,159.9z"/>
				</g>
				<g>
					<path class="st4" d="M328,185h1.7l1.1,3.3c0.1,0.3,0.2,0.6,0.2,1h0c0-0.4,0.1-0.7,0.2-1l1.1-3.3h1.7l-2.5,6.6
						c-0.2,0.6-0.5,1.1-1,1.4c-0.4,0.3-0.9,0.5-1.5,0.5c-0.3,0-0.5,0-0.8-0.1V192c0.2,0,0.4,0.1,0.6,0.1c0.3,0,0.5-0.1,0.7-0.3
						s0.4-0.4,0.5-0.8l0.1-0.3L328,185z"/>
					<path class="st4" d="M343.4,187.9c0,0.9-0.3,1.7-0.8,2.2c-0.5,0.5-1.2,0.8-2.1,0.8c-0.6,0-1.1-0.1-1.5-0.4
						c-0.4-0.2-0.8-0.6-1-1.1c-0.2-0.5-0.3-1-0.3-1.6c0-1,0.2-1.7,0.7-2.2c0.5-0.5,1.2-0.8,2.1-0.8c0.6,0,1.1,0.1,1.5,0.4
						c0.4,0.2,0.8,0.6,1,1C343.3,186.7,343.4,187.3,343.4,187.9z M339.4,187.9c0,0.6,0.1,1,0.3,1.3c0.2,0.3,0.5,0.4,0.9,0.4
						c0.4,0,0.7-0.1,0.9-0.4c0.2-0.3,0.3-0.7,0.3-1.3c0-0.6-0.1-1-0.3-1.3s-0.5-0.4-0.9-0.4c-0.4,0-0.7,0.1-0.9,0.4
						S339.4,187.3,339.4,187.9z"/>
					<path class="st4" d="M352,190.8l-0.2-0.7h-0.1c-0.2,0.3-0.4,0.5-0.7,0.6s-0.7,0.2-1.1,0.2c-0.7,0-1.2-0.2-1.5-0.5
						c-0.3-0.4-0.5-0.9-0.5-1.6V185h1.6v3.4c0,0.4,0.1,0.7,0.2,0.9c0.1,0.2,0.4,0.3,0.7,0.3c0.4,0,0.8-0.1,1-0.4s0.3-0.8,0.3-1.5
						V185h1.6v5.8H352z"/>
					<path class="st4" d="M361.4,184.9c0.2,0,0.4,0,0.5,0l-0.1,1.5c-0.1,0-0.3-0.1-0.5-0.1c-0.5,0-0.9,0.1-1.2,0.4s-0.4,0.6-0.4,1.1
						v3h-1.6V185h1.2l0.2,1h0.1c0.2-0.3,0.4-0.6,0.7-0.8C360.7,185,361,184.9,361.4,184.9z"/>
					<path class="st4" d="M374.6,189.6c0.3,0,0.6-0.1,1-0.2v1.2c-0.4,0.2-0.9,0.3-1.5,0.3c-0.6,0-1.1-0.2-1.4-0.5s-0.4-0.8-0.4-1.4
						v-2.8h-0.8v-0.7l0.9-0.5l0.5-1.2h1v1.2h1.6v1.2h-1.6v2.8c0,0.2,0.1,0.4,0.2,0.5C374.2,189.6,374.4,189.6,374.6,189.6z"/>
					<path class="st4" d="M382.6,190.9c-0.9,0-1.7-0.3-2.2-0.8c-0.5-0.5-0.8-1.3-0.8-2.2c0-1,0.2-1.7,0.7-2.3s1.2-0.8,2-0.8
						c0.8,0,1.5,0.2,1.9,0.7c0.5,0.5,0.7,1.1,0.7,1.9v0.8h-3.8c0,0.5,0.2,0.8,0.4,1.1c0.3,0.3,0.6,0.4,1.1,0.4c0.4,0,0.7,0,1-0.1
						s0.6-0.2,1-0.3v1.2c-0.3,0.1-0.6,0.2-0.9,0.3C383.4,190.9,383.1,190.9,382.6,190.9z M382.4,186c-0.3,0-0.6,0.1-0.8,0.3
						c-0.2,0.2-0.3,0.5-0.3,0.9h2.2c0-0.4-0.1-0.7-0.3-0.9C383,186.1,382.7,186,382.4,186z"/>
					<path class="st4" d="M390.7,187.8l-1.9-2.8h1.8l1.1,1.9l1.1-1.9h1.8l-1.9,2.8l2,3h-1.8l-1.2-2l-1.2,2h-1.8L390.7,187.8z"/>
					<path class="st4" d="M401.3,189.6c0.3,0,0.6-0.1,1-0.2v1.2c-0.4,0.2-0.9,0.3-1.5,0.3c-0.6,0-1.1-0.2-1.4-0.5s-0.4-0.8-0.4-1.4
						v-2.8h-0.8v-0.7l0.9-0.5l0.5-1.2h1v1.2h1.6v1.2h-1.6v2.8c0,0.2,0.1,0.4,0.2,0.5C400.9,189.6,401.1,189.6,401.3,189.6z"/>
				</g>
			</g>
		</g>
		<g>
			<g>
				<path class="st5" d="M77.2-13.5l-3.9-2.1c-1.7-0.9-42.5-22.8-42.5-52.2c0-21.6,14.6-31.4,28.2-31.4c6.2,0,12.5,1.9,18.1,5.4
					c5.4-3.4,11.6-5.2,17.7-5.2c13.8,0,28.7,9.8,28.7,31.2c0,29.4-40.7,51.3-42.5,52.2L77.2-13.5z"/>
				<g>
					<path class="st6" d="M113.9-70c-2,1.2-5.4,3-7.9,4.5c0.2-0.1,0.2-0.1,0.2-0.1s-0.6,0.4-1.6,1c-0.2,0.2-0.5,0.3-0.8,0.5
						c-0.3,0.2-0.6,0.4-0.9,0.7c-0.3,0.2-0.7,0.5-1.1,0.7c-0.4,0.3-0.7,0.6-1.1,0.9c-0.4,0.3-0.8,0.6-1.2,1
						c-0.4,0.3-0.8,0.7-1.3,1.1c-0.2,0.2-0.4,0.4-0.7,0.6c-0.2,0.2-0.4,0.4-0.6,0.6c-0.4,0.4-0.9,0.8-1.3,1.3
						c-0.9,0.9-1.8,1.8-2.6,2.8c-0.9,1-1.7,2-2.5,3c-0.8,1.1-1.6,2.1-2.3,3.2c-0.7,1.1-1.3,2.2-2,3.2c-0.3,0.5-0.6,1.1-0.8,1.6
						c-0.1,0.3-0.3,0.5-0.4,0.8c-0.1,0.3-0.2,0.5-0.4,0.8c-0.2,0.5-0.5,1-0.7,1.5c-0.2,0.5-0.4,0.9-0.6,1.4
						c-0.2,0.4-0.4,0.9-0.5,1.3c-0.1,0.4-0.3,0.8-0.4,1.1c-0.1,0.4-0.3,0.7-0.4,1c-0.1,0.3-0.2,0.6-0.3,0.9
						c-0.1,0.3-0.2,0.6-0.3,0.9c7.1,3.3,16,0.6,19.5-7.1c1-2.1,1.9-4.5,2.6-7.3c5.5-20,10.4-21.5,10.4-21.5S114-70,113.9-70"/>
					<path class="st6" d="M71.5-49.8c0.2-0.9,0.4-1.7,0.7-2.5c0.2-0.6,0.4-1.2,0.7-1.7c-6.7-13-30.5-13-32.5-12.9l6.7,3.8
						c0.2,0.1,0.6,0.3,1.1,0.5c0.2,0.1,0.5,0.2,0.7,0.4c0.3,0.1,0.5,0.3,0.8,0.4c0.3,0.2,0.6,0.3,1,0.5c0.3,0.2,0.7,0.4,1,0.6
						c0.4,0.2,0.7,0.4,1.1,0.7c0.4,0.2,0.8,0.5,1.2,0.8c0.2,0.1,0.4,0.3,0.6,0.4c0.2,0.1,0.4,0.3,0.6,0.4c0.4,0.3,0.8,0.6,1.3,0.9
						c0.8,0.7,1.7,1.3,2.5,2.1c0.9,0.7,1.6,1.5,2.5,2.3c0.8,0.8,1.6,1.7,2.3,2.5c0.8,0.8,1.4,1.7,2.1,2.6c0.3,0.4,0.6,0.9,0.9,1.3
						c0.2,0.2,0.3,0.4,0.4,0.6c0.1,0.2,0.3,0.4,0.4,0.6c0.3,0.4,0.5,0.8,0.8,1.2c0.2,0.4,0.5,0.8,0.7,1.2c0.2,0.4,0.4,0.7,0.6,1.1
						c0.2,0.4,0.4,0.7,0.5,1c0.2,0.3,0.3,0.6,0.5,0.9c0.1,0.2,0.1,0.3,0.2,0.4c0.1-0.1,0.1-0.1,0.2-0.2c0.1-0.1,0.2-0.2,0.3-0.3
						c0.4-0.4,0.8-0.8,1.1-1.3c-1.3-2.9-1.4-5.6-1.4-5.6C71.2-47.9,71.4-48.8,71.5-49.8"/>
					<path class="st6" d="M74.7-54c-0.3,0.6-0.5,1.1-0.7,1.7c-0.3,0.8-0.5,1.6-0.7,2.5c-0.2,0.9-0.3,1.9-0.4,3c0,0,0,2.7,1.4,5.6
						c0.6,1.2,1.3,2.5,2.4,3.6c0.1,0.1,0.2,0.2,0.4,0.4c0.1,0.1,0.1,0.1,0.2,0.2c0.1-0.2,0.2-0.3,0.2-0.5c0.2-0.3,0.4-0.7,0.5-1.1
						c0.2-0.4,0.4-0.8,0.6-1.2c0.2-0.4,0.5-0.9,0.7-1.3c0.3-0.5,0.5-0.9,0.8-1.4c0.3-0.5,0.6-1,0.9-1.5c0.2-0.3,0.3-0.5,0.5-0.8
						c0.2-0.2,0.4-0.5,0.5-0.8c0.4-0.5,0.7-1,1.1-1.6c0.8-1,1.6-2.1,2.5-3.1c0.9-1,1.8-2,2.8-3c1-1,1.9-1.9,3-2.8c1-0.9,2-1.7,3-2.5
						c0.5-0.4,1-0.7,1.5-1.1c0.2-0.2,0.5-0.4,0.7-0.5c0.2-0.2,0.5-0.3,0.7-0.5c0.5-0.3,1-0.6,1.4-0.9c0.5-0.3,0.9-0.6,1.4-0.8
						c0.4-0.3,0.8-0.5,1.2-0.7c0.4-0.2,0.8-0.4,1.2-0.6c0.4-0.2,0.7-0.4,1-0.5c0.3-0.2,0.6-0.3,0.9-0.4c0.6-0.3,1.1-0.5,1.4-0.6
						l8-4.5C111.6-70.1,82.3-70.1,74.7-54"/>
					<path class="st6" d="M67-38.5c-0.1-0.3-0.2-0.5-0.3-0.8c-0.1-0.3-0.2-0.6-0.3-1c-0.1-0.3-0.3-0.7-0.4-1.1
						c-0.2-0.4-0.3-0.8-0.5-1.2c-0.2-0.4-0.4-0.8-0.6-1.2c-0.1-0.2-0.2-0.4-0.3-0.6c-0.1-0.2-0.2-0.4-0.3-0.6
						c-0.2-0.4-0.5-0.9-0.7-1.3c-0.5-0.9-1-1.8-1.6-2.7c-0.6-0.9-1.2-1.8-1.9-2.7c-0.7-0.8-1.4-1.7-2.1-2.5
						c-0.7-0.8-1.5-1.6-2.2-2.3c-0.4-0.4-0.7-0.7-1.1-1c-0.2-0.2-0.4-0.3-0.5-0.5c-0.2-0.2-0.4-0.3-0.5-0.5
						c-0.4-0.3-0.7-0.6-1.1-0.9c-0.3-0.3-0.7-0.5-1-0.8c-0.3-0.3-0.6-0.5-0.9-0.7c-0.3-0.2-0.6-0.4-0.9-0.6
						c-0.3-0.2-0.5-0.4-0.8-0.5c-0.2-0.2-0.5-0.3-0.7-0.4c-0.8-0.5-1.3-0.8-1.3-0.8s0.1,0,0.2,0.1c-2.1-1.2-4.9-2.8-6.6-3.7
						c-0.1,0-0.1,0-0.1,0S44.4-65.7,49-49c0.6,2.3,1.4,4.3,2.2,6.1c2.9,6.4,10.4,8.6,16.3,5.9c-0.1-0.2-0.1-0.4-0.2-0.7
						C67.2-38,67.1-38.3,67-38.5"/>
					<path class="st6" d="M74.3-79.9c-4.4,0-8,3.6-8,8c0,1.6,0.5,3,1.2,4.3c1.4,2.3,3.9,3.8,6.8,3.8c2.9,0,5.4-1.5,6.8-3.8
						c0.8-1.2,1.2-2.7,1.2-4.3C82.3-76.3,78.7-79.9,74.3-79.9"/>
				</g>
			</g>
			<g>
				<g>
					<path class="st4" d="M160.4-56.3c-0.1,1.8-0.2,3.9-0.2,7v14.8c0,5.8-1.2,9.4-3.6,11.6c-2.5,2.3-6,3-9.2,3c-3,0-6.4-0.7-8.5-2.1
						l1.2-3.5c1.7,1.1,4.3,2,7.5,2c4.7,0,8.2-2.5,8.2-8.9v-2.8h-0.1c-1.4,2.4-4.1,4.3-8.1,4.3c-6.3,0-10.8-5.4-10.8-12.4
						c0-8.6,5.6-13.5,11.4-13.5c4.4,0,6.8,2.3,7.9,4.4h0.1l0.2-3.8H160.4z M155.6-46.2c0-0.8-0.1-1.5-0.3-2.1
						c-0.8-2.7-3.1-4.9-6.5-4.9c-4.4,0-7.6,3.7-7.6,9.6c0,5,2.5,9.1,7.5,9.1c2.8,0,5.4-1.8,6.4-4.7c0.3-0.8,0.4-1.7,0.4-2.5V-46.2z"
						/>
					<path class="st4" d="M167.5-48.3c0-3-0.1-5.6-0.2-7.9h4l0.2,5h0.2c1.2-3.4,3.9-5.6,7-5.6c0.5,0,0.9,0.1,1.3,0.2v4.4
						c-0.5-0.1-0.9-0.2-1.6-0.2c-3.3,0-5.6,2.5-6.2,5.9c-0.1,0.6-0.2,1.4-0.2,2.2v13.6h-4.6V-48.3z"/>
					<path class="st4" d="M186.8-42.7c0.1,6.3,4.1,8.8,8.7,8.8c3.3,0,5.3-0.6,7-1.3l0.8,3.3c-1.6,0.7-4.4,1.6-8.5,1.6
						c-7.8,0-12.5-5.1-12.5-12.8s4.5-13.7,11.9-13.7c8.3,0,10.5,7.3,10.5,12c0,0.9-0.1,1.7-0.2,2.2H186.8z M200.3-46
						c0.1-2.9-1.2-7.5-6.4-7.5c-4.7,0-6.7,4.3-7.1,7.5H200.3z"/>
					<path class="st4" d="M213.1-42.7c0.1,6.3,4.1,8.8,8.7,8.8c3.3,0,5.3-0.6,7-1.3l0.8,3.3c-1.6,0.7-4.4,1.6-8.5,1.6
						c-7.8,0-12.5-5.1-12.5-12.8s4.5-13.7,11.9-13.7c8.3,0,10.5,7.3,10.5,12c0,0.9-0.1,1.7-0.2,2.2H213.1z M226.6-46
						c0.1-2.9-1.2-7.5-6.4-7.5c-4.7,0-6.7,4.3-7.1,7.5H226.6z"/>
					<path class="st4" d="M236.8-49.4c0-2.6-0.1-4.8-0.2-6.9h4.1l0.3,4.2h0.1c1.3-2.4,4.2-4.8,8.4-4.8c3.5,0,9,2.1,9,10.8v15.2h-4.6
						v-14.7c0-4.1-1.5-7.5-5.9-7.5c-3,0-5.4,2.2-6.2,4.7c-0.2,0.6-0.3,1.4-0.3,2.2v15.3h-4.6V-49.4z"/>
				</g>
				<g>
					<path class="st4" d="M140.5-24.6h1.7l1.1,3.3c0.1,0.3,0.2,0.6,0.2,1h0c0-0.4,0.1-0.7,0.2-1l1.1-3.3h1.7l-2.5,6.6
						c-0.2,0.6-0.5,1.1-1,1.4c-0.4,0.3-0.9,0.5-1.5,0.5c-0.3,0-0.5,0-0.8-0.1v-1.3c0.2,0,0.4,0.1,0.6,0.1c0.3,0,0.5-0.1,0.7-0.3
						s0.4-0.4,0.5-0.8l0.1-0.3L140.5-24.6z"/>
					<path class="st4" d="M155.9-21.7c0,0.9-0.3,1.7-0.8,2.2s-1.2,0.8-2.1,0.8c-0.6,0-1.1-0.1-1.5-0.4c-0.4-0.2-0.8-0.6-1-1.1
						c-0.2-0.5-0.3-1-0.3-1.6c0-1,0.2-1.7,0.7-2.2c0.5-0.5,1.2-0.8,2.1-0.8c0.6,0,1.1,0.1,1.5,0.4c0.4,0.2,0.8,0.6,1,1
						C155.8-22.8,155.9-22.3,155.9-21.7z M151.9-21.7c0,0.6,0.1,1,0.3,1.3c0.2,0.3,0.5,0.4,0.9,0.4c0.4,0,0.7-0.1,0.9-0.4
						c0.2-0.3,0.3-0.7,0.3-1.3c0-0.6-0.1-1-0.3-1.3c-0.2-0.3-0.5-0.4-0.9-0.4c-0.4,0-0.7,0.1-0.9,0.4S151.9-22.2,151.9-21.7z"/>
					<path class="st4" d="M164.6-18.7l-0.2-0.7h-0.1c-0.2,0.3-0.4,0.5-0.7,0.6s-0.7,0.2-1.1,0.2c-0.7,0-1.2-0.2-1.5-0.5
						c-0.3-0.4-0.5-0.9-0.5-1.6v-3.8h1.6v3.4c0,0.4,0.1,0.7,0.2,0.9c0.1,0.2,0.4,0.3,0.7,0.3c0.4,0,0.8-0.1,1-0.4s0.3-0.8,0.3-1.5
						v-2.7h1.6v5.8H164.6z"/>
					<path class="st4" d="M173.9-24.7c0.2,0,0.4,0,0.5,0l-0.1,1.5c-0.1,0-0.3-0.1-0.5-0.1c-0.5,0-0.9,0.1-1.2,0.4
						c-0.3,0.3-0.4,0.6-0.4,1.1v3h-1.6v-5.8h1.2l0.2,1h0.1c0.2-0.3,0.4-0.6,0.7-0.8S173.5-24.7,173.9-24.7z"/>
					<path class="st4" d="M187.1-19.9c0.3,0,0.6-0.1,1-0.2v1.2c-0.4,0.2-0.9,0.3-1.5,0.3c-0.6,0-1.1-0.2-1.4-0.5
						c-0.3-0.3-0.4-0.8-0.4-1.4v-2.8h-0.8V-24l0.9-0.5l0.5-1.2h1v1.2h1.6v1.2h-1.6v2.8c0,0.2,0.1,0.4,0.2,0.5
						C186.7-20,186.9-19.9,187.1-19.9z"/>
					<path class="st4" d="M195.1-18.6c-0.9,0-1.7-0.3-2.2-0.8c-0.5-0.5-0.8-1.3-0.8-2.2c0-1,0.2-1.7,0.7-2.3c0.5-0.5,1.2-0.8,2-0.8
						c0.8,0,1.5,0.2,1.9,0.7c0.5,0.5,0.7,1.1,0.7,1.9v0.8h-3.8c0,0.5,0.2,0.8,0.4,1.1c0.3,0.3,0.6,0.4,1.1,0.4c0.4,0,0.7,0,1-0.1
						s0.6-0.2,1-0.3v1.2c-0.3,0.1-0.6,0.2-0.9,0.3C196-18.7,195.6-18.6,195.1-18.6z M194.9-23.5c-0.3,0-0.6,0.1-0.8,0.3
						c-0.2,0.2-0.3,0.5-0.3,0.9h2.2c0-0.4-0.1-0.7-0.3-0.9C195.5-23.4,195.2-23.5,194.9-23.5z"/>
					<path class="st4" d="M203.2-21.7l-1.9-2.8h1.8l1.1,1.9l1.1-1.9h1.8l-1.9,2.8l2,3h-1.8l-1.2-2l-1.2,2h-1.8L203.2-21.7z"/>
					<path class="st4" d="M213.8-19.9c0.3,0,0.6-0.1,1-0.2v1.2c-0.4,0.2-0.9,0.3-1.5,0.3c-0.6,0-1.1-0.2-1.4-0.5
						c-0.3-0.3-0.4-0.8-0.4-1.4v-2.8h-0.8V-24l0.9-0.5l0.5-1.2h1v1.2h1.6v1.2h-1.6v2.8c0,0.2,0.1,0.4,0.2,0.5
						C213.4-20,213.6-19.9,213.8-19.9z"/>
				</g>
			</g>
		</g>
		<g>
			<g>
				<g>
					<g>
						<path class="st4" d="M-125.4,167.1c-2,0.7-6.1,1.9-10.9,1.9c-5.4,0-9.8-1.4-13.2-4.7c-3-2.9-4.9-7.7-4.9-13.2
							c0.1-10.6,7.3-18.3,19.2-18.3c4.1,0,7.3,0.9,8.8,1.6l-1.1,3.7c-1.9-0.8-4.3-1.5-7.8-1.5c-8.6,0-14.2,5.4-14.2,14.2
							c0,9,5.4,14.3,13.7,14.3c3,0,5-0.4,6.1-0.9v-10.6h-7.2v-3.7h11.7V167.1z"/>
						<path class="st4" d="M-118.4,133.8c2.3-0.5,5.6-0.7,8.8-0.7c4.9,0,8,0.9,10.2,2.9c1.8,1.6,2.8,4,2.8,6.7c0,4.7-2.9,7.8-6.7,9
							v0.2c2.7,0.9,4.4,3.5,5.2,7.1c1.2,4.9,2,8.4,2.7,9.7h-4.7c-0.6-1-1.4-4-2.4-8.5c-1.1-4.9-2.9-6.7-7.1-6.9h-4.3v15.3h-4.6
							V133.8z M-113.9,149.9h4.7c4.9,0,8-2.7,8-6.7c0-4.6-3.3-6.6-8.1-6.6c-2.2,0-3.8,0.2-4.5,0.4V149.9z"/>
						<path class="st4" d="M-71.8,152.1h-13.8v12.8h15.3v3.8h-19.9v-35.4H-71v3.8h-14.5v11.2h13.8V152.1z"/>
						<path class="st4" d="M-46,152.1h-13.8v12.8h15.3v3.8h-19.9v-35.4h19.1v3.8h-14.5v11.2H-46V152.1z"/>
						<path class="st4" d="M-38.5,168.7v-35.4h5l11.3,17.9c2.6,4.1,4.7,7.9,6.4,11.5l0.1-0.1c-0.4-4.7-0.5-9-0.5-14.5v-14.8h4.3
							v35.4h-4.6l-11.2-18c-2.5-3.9-4.8-8-6.6-11.8l-0.2,0.1c0.3,4.5,0.4,8.7,0.4,14.6v15.1H-38.5z"/>
					</g>
				</g>
				<g>
					<path class="st4" d="M-146.4,180.9c-0.7,0-1.2-0.2-1.6-0.7h-0.1c0.1,0.5,0.1,0.8,0.1,0.8v2.4h-1.6V175h1.3l0.2,0.8h0.1
						c0.4-0.6,0.9-0.9,1.7-0.9c0.7,0,1.2,0.3,1.6,0.8c0.4,0.5,0.6,1.3,0.6,2.2c0,0.6-0.1,1.2-0.3,1.6c-0.2,0.5-0.4,0.8-0.8,1
						C-145.6,180.8-146,180.9-146.4,180.9z M-146.9,176.1c-0.4,0-0.7,0.1-0.9,0.4s-0.3,0.6-0.3,1.2v0.2c0,0.6,0.1,1.1,0.3,1.3
						c0.2,0.3,0.5,0.4,0.9,0.4c0.7,0,1.1-0.6,1.1-1.8c0-0.6-0.1-1-0.3-1.3C-146.3,176.3-146.5,176.1-146.9,176.1z"/>
					<path class="st4" d="M-136.4,174.9c0.2,0,0.4,0,0.5,0l-0.1,1.5c-0.1,0-0.3-0.1-0.5-0.1c-0.5,0-0.9,0.1-1.2,0.4
						c-0.3,0.3-0.4,0.6-0.4,1.1v3h-1.6V175h1.2l0.2,1h0.1c0.2-0.3,0.4-0.6,0.7-0.8C-137.1,175-136.8,174.9-136.4,174.9z"/>
					<path class="st4" d="M-126.4,177.9c0,0.9-0.3,1.7-0.8,2.2c-0.5,0.5-1.2,0.8-2.1,0.8c-0.6,0-1.1-0.1-1.5-0.4
						c-0.4-0.2-0.8-0.6-1-1.1c-0.2-0.5-0.3-1-0.3-1.6c0-1,0.2-1.7,0.7-2.2c0.5-0.5,1.2-0.8,2.1-0.8c0.6,0,1.1,0.1,1.5,0.4
						c0.4,0.2,0.8,0.6,1,1C-126.5,176.7-126.4,177.3-126.4,177.9z M-130.4,177.9c0,0.6,0.1,1,0.3,1.3c0.2,0.3,0.5,0.4,0.9,0.4
						c0.4,0,0.7-0.1,0.9-0.4c0.2-0.3,0.3-0.7,0.3-1.3c0-0.6-0.1-1-0.3-1.3s-0.5-0.4-0.9-0.4c-0.4,0-0.7,0.1-0.9,0.4
						S-130.4,177.3-130.4,177.9z"/>
					<path class="st4" d="M-120,180.9c-0.7,0-1.2-0.3-1.6-0.8c-0.4-0.5-0.6-1.3-0.6-2.2c0-1,0.2-1.7,0.6-2.2
						c0.4-0.5,0.9-0.8,1.6-0.8c0.7,0,1.3,0.3,1.7,0.9h0.1c-0.1-0.4-0.1-0.8-0.1-1.2v-1.9h1.6v8.1h-1.2l-0.3-0.8h-0.1
						C-118.7,180.6-119.3,180.9-120,180.9z M-119.4,179.6c0.4,0,0.7-0.1,0.9-0.4c0.2-0.2,0.3-0.6,0.3-1.2v-0.2
						c0-0.6-0.1-1.1-0.3-1.3c-0.2-0.3-0.5-0.4-0.9-0.4c-0.4,0-0.6,0.2-0.8,0.5c-0.2,0.3-0.3,0.7-0.3,1.3c0,0.6,0.1,1,0.3,1.3
						C-120.1,179.5-119.8,179.6-119.4,179.6z"/>
					<path class="st4" d="M-107.8,180.8l-0.2-0.7h-0.1c-0.2,0.3-0.4,0.5-0.7,0.6c-0.3,0.1-0.7,0.2-1.1,0.2c-0.7,0-1.2-0.2-1.5-0.5
						c-0.3-0.4-0.5-0.9-0.5-1.6V175h1.6v3.4c0,0.4,0.1,0.7,0.2,0.9s0.4,0.3,0.7,0.3c0.4,0,0.8-0.1,1-0.4s0.3-0.8,0.3-1.5V175h1.6
						v5.8H-107.8z"/>
					<path class="st4" d="M-99.3,180.9c-1.8,0-2.7-1-2.7-3c0-1,0.2-1.7,0.7-2.3s1.2-0.8,2.1-0.8c0.7,0,1.3,0.1,1.8,0.4l-0.5,1.2
						c-0.3-0.1-0.5-0.2-0.7-0.2s-0.4-0.1-0.6-0.1c-0.8,0-1.2,0.6-1.2,1.8c0,1.1,0.4,1.7,1.2,1.7c0.3,0,0.6,0,0.8-0.1
						c0.3-0.1,0.5-0.2,0.8-0.4v1.4c-0.3,0.2-0.5,0.3-0.8,0.3S-98.9,180.9-99.3,180.9z"/>
					<path class="st4" d="M-90.5,179.6c0.3,0,0.6-0.1,1-0.2v1.2c-0.4,0.2-0.9,0.3-1.5,0.3c-0.6,0-1.1-0.2-1.4-0.5
						c-0.3-0.3-0.4-0.8-0.4-1.4v-2.8h-0.8v-0.7l0.9-0.5l0.5-1.2h1v1.2h1.6v1.2h-1.6v2.8c0,0.2,0.1,0.4,0.2,0.5
						C-90.9,179.6-90.8,179.6-90.5,179.6z"/>
					<path class="st4" d="M-81.1,179.1c0,0.6-0.2,1.1-0.6,1.4c-0.4,0.3-1,0.5-1.9,0.5c-0.4,0-0.8,0-1.1-0.1
						c-0.3-0.1-0.6-0.1-0.8-0.3v-1.3c0.3,0.1,0.6,0.3,1,0.3c0.4,0.1,0.7,0.1,1,0.1c0.6,0,0.9-0.2,0.9-0.5c0-0.1,0-0.2-0.1-0.3
						c-0.1-0.1-0.2-0.2-0.4-0.3c-0.2-0.1-0.4-0.2-0.8-0.3c-0.4-0.2-0.8-0.4-1-0.5c-0.2-0.2-0.4-0.3-0.5-0.5
						c-0.1-0.2-0.1-0.5-0.1-0.8c0-0.5,0.2-0.9,0.6-1.2c0.4-0.3,1-0.4,1.7-0.4c0.7,0,1.4,0.2,2,0.5l-0.5,1.1
						c-0.3-0.1-0.6-0.2-0.8-0.3s-0.5-0.1-0.8-0.1c-0.5,0-0.7,0.1-0.7,0.4c0,0.1,0.1,0.3,0.2,0.4c0.2,0.1,0.5,0.3,1,0.5
						c0.5,0.2,0.8,0.4,1,0.5c0.2,0.2,0.4,0.3,0.5,0.6C-81.2,178.5-81.1,178.8-81.1,179.1z"/>
				</g>
			</g>
			<path class="st7" d="M-173.4,149.6c-5.3-4.5-6.8-10.3-6.1-17.1c2.9-29.7,55.3-53.8,109.6-50.3c-59.2-6.9-108,18.8-113.1,49.6
				c-1.3,7.6,1,15.5,7.1,20.5L-173.4,149.6"/>
			<path class="st8" d="M-40.4,83.6c-40.4,8.6-68.8,46.5-101.2,11C-97.2,110-83.5,83.4-49,80.8c-19.4-19.6-59.5-29.1-83-2.8
				c12-3.7,32.2-12.8,68.9,1.3c-37.2-6.9-65,2.1-83.3,11.6C-132.9,38.7-77.5,38.1-40.4,83.6"/>
		</g>
		<g class="st0">
			<g class="st2">
				<g>
					<g>
						<path class="st4" d="M-133.8-60.9c-2,0.7-6.1,1.9-10.9,1.9c-5.4,0-9.8-1.4-13.2-4.7c-3-2.9-4.9-7.7-4.9-13.2
							c0.1-10.6,7.3-18.3,19.2-18.3c4.1,0,7.3,0.9,8.8,1.6l-1.1,3.7c-1.9-0.8-4.3-1.5-7.8-1.5c-8.6,0-14.2,5.4-14.2,14.2
							c0,9,5.4,14.3,13.7,14.3c3,0,5-0.4,6.1-0.9v-10.6h-7.2v-3.7h11.7V-60.9z"/>
						<path class="st4" d="M-126.8-94.2c2.3-0.5,5.6-0.7,8.8-0.7c4.9,0,8,0.9,10.2,2.9c1.8,1.6,2.8,4,2.8,6.7c0,4.7-2.9,7.8-6.7,9
							v0.2c2.7,0.9,4.4,3.5,5.2,7.1c1.2,4.9,2,8.4,2.7,9.7h-4.7c-0.6-1-1.4-4-2.4-8.5c-1.1-4.9-2.9-6.7-7.1-6.9h-4.3v15.3h-4.6
							V-94.2z M-122.2-78.1h4.7c4.9,0,8-2.7,8-6.7c0-4.6-3.3-6.6-8.1-6.6c-2.2,0-3.8,0.2-4.5,0.4V-78.1z"/>
						<path class="st4" d="M-80.2-75.9H-94v12.8h15.3v3.8h-19.9v-35.4h19.1v3.8H-94v11.2h13.8V-75.9z"/>
						<path class="st4" d="M-54.4-75.9h-13.8v12.8h15.3v3.8h-19.9v-35.4h19.1v3.8h-14.5v11.2h13.8V-75.9z"/>
						<path class="st4" d="M-46.8-59.3v-35.4h5l11.3,17.9c2.6,4.1,4.7,7.9,6.4,11.5l0.1-0.1c-0.4-4.7-0.5-9-0.5-14.5v-14.8h4.3v35.4
							h-4.6l-11.2-18c-2.5-3.9-4.8-8-6.6-11.8l-0.2,0.1c0.3,4.5,0.4,8.7,0.4,14.6v15.1H-46.8z"/>
					</g>
				</g>
				<g>
					<path class="st4" d="M-158.8-53h1.7l1.1,3.3c0.1,0.3,0.2,0.6,0.2,1h0c0-0.4,0.1-0.7,0.2-1l1.1-3.3h1.7l-2.5,6.6
						c-0.2,0.6-0.5,1.1-1,1.4c-0.4,0.3-0.9,0.5-1.5,0.5c-0.3,0-0.5,0-0.8-0.1V-46c0.2,0,0.4,0.1,0.6,0.1c0.3,0,0.5-0.1,0.7-0.3
						s0.4-0.4,0.5-0.8l0.1-0.3L-158.8-53z"/>
					<path class="st4" d="M-143.4-50.1c0,0.9-0.3,1.7-0.8,2.2s-1.2,0.8-2.1,0.8c-0.6,0-1.1-0.1-1.5-0.4c-0.4-0.2-0.8-0.6-1-1.1
						c-0.2-0.5-0.3-1-0.3-1.6c0-1,0.2-1.7,0.7-2.2s1.2-0.8,2.1-0.8c0.6,0,1.1,0.1,1.5,0.4c0.4,0.2,0.8,0.6,1,1
						C-143.6-51.2-143.4-50.7-143.4-50.1z M-147.5-50.1c0,0.6,0.1,1,0.3,1.3c0.2,0.3,0.5,0.4,0.9,0.4c0.4,0,0.7-0.1,0.9-0.4
						c0.2-0.3,0.3-0.7,0.3-1.3c0-0.6-0.1-1-0.3-1.3c-0.2-0.3-0.5-0.4-0.9-0.4c-0.4,0-0.7,0.1-0.9,0.4S-147.5-50.7-147.5-50.1z"/>
					<path class="st4" d="M-134.8-47.2l-0.2-0.7h-0.1c-0.2,0.3-0.4,0.5-0.7,0.6c-0.3,0.1-0.7,0.2-1.1,0.2c-0.7,0-1.2-0.2-1.5-0.5
						c-0.3-0.4-0.5-0.9-0.5-1.6V-53h1.6v3.4c0,0.4,0.1,0.7,0.2,0.9s0.4,0.3,0.7,0.3c0.4,0,0.8-0.1,1-0.4s0.3-0.8,0.3-1.5V-53h1.6
						v5.8H-134.8z"/>
					<path class="st4" d="M-125.5-53.1c0.2,0,0.4,0,0.5,0l-0.1,1.5c-0.1,0-0.3-0.1-0.5-0.1c-0.5,0-0.9,0.1-1.2,0.4
						c-0.3,0.3-0.4,0.6-0.4,1.1v3h-1.6V-53h1.2l0.2,1h0.1c0.2-0.3,0.4-0.6,0.7-0.8C-126.2-53-125.8-53.1-125.5-53.1z"/>
					<path class="st4" d="M-112.3-48.3c0.3,0,0.6-0.1,1-0.2v1.2c-0.4,0.2-0.9,0.3-1.5,0.3c-0.6,0-1.1-0.2-1.4-0.5
						c-0.3-0.3-0.4-0.8-0.4-1.4v-2.8h-0.8v-0.7l0.9-0.5l0.5-1.2h1v1.2h1.6v1.2h-1.6v2.8c0,0.2,0.1,0.4,0.2,0.5
						C-112.6-48.4-112.5-48.3-112.3-48.3z"/>
					<path class="st4" d="M-104.2-47.1c-0.9,0-1.7-0.3-2.2-0.8s-0.8-1.3-0.8-2.2c0-1,0.2-1.7,0.7-2.3c0.5-0.5,1.2-0.8,2-0.8
						c0.8,0,1.5,0.2,1.9,0.7c0.5,0.5,0.7,1.1,0.7,1.9v0.8h-3.8c0,0.5,0.2,0.8,0.4,1.1s0.6,0.4,1.1,0.4c0.4,0,0.7,0,1-0.1
						s0.6-0.2,1-0.3v1.2c-0.3,0.1-0.6,0.2-0.9,0.3C-103.4-47.1-103.8-47.1-104.2-47.1z M-104.5-52c-0.3,0-0.6,0.1-0.8,0.3
						c-0.2,0.2-0.3,0.5-0.3,0.9h2.2c0-0.4-0.1-0.7-0.3-0.9C-103.9-51.9-104.1-52-104.5-52z"/>
					<path class="st4" d="M-96.2-50.1l-1.9-2.8h1.8l1.1,1.9L-94-53h1.8l-1.9,2.8l2,3h-1.8l-1.2-2l-1.2,2h-1.8L-96.2-50.1z"/>
					<path class="st4" d="M-85.6-48.3c0.3,0,0.6-0.1,1-0.2v1.2c-0.4,0.2-0.9,0.3-1.5,0.3c-0.6,0-1.1-0.2-1.4-0.5
						c-0.3-0.3-0.4-0.8-0.4-1.4v-2.8h-0.8v-0.7l0.9-0.5l0.5-1.2h1v1.2h1.6v1.2h-1.6v2.8c0,0.2,0.1,0.4,0.2,0.5
						C-85.9-48.4-85.8-48.3-85.6-48.3z"/>
				</g>
			</g>
			<g class="st2">
				<path class="st7" d="M-111.9-154c38.8,0,70.3,31.5,70.3,70.3c0,38.8-31.5,70.3-70.3,70.3c-38.8,0-70.3-31.5-70.3-70.3
					c0-0.4,0-0.8,0-1.2c0.7,36.2,30.2,65.4,66.6,65.4c36.8,0,66.6-29.8,66.6-66.6c0-36.8-29.8-66.6-66.6-66.6c-8,0-15.6,1.4-22.7,4
					C-130.1-152.2-121.2-154-111.9-154"/>
				<path class="st9" d="M-66.7-137.5c-7.8-10.1-42.2-27.6-75.5-11.8c-17,8.6-30.2,23.7-36.4,42C-151.1-133.3-86-92.2-66.7-137.5"/>
				<path class="st10" d="M-66.7-137.5c-38.3-7.4-95.1-0.7-112,30.2C-151.1-133.3-86-92.2-66.7-137.5"/>
			</g>
		</g>
		<g>
			<g>
				<g>
					<path class="st4" d="M331.6,361.9c0.2,9.3,6.1,13.1,12.9,13.1c4.9,0,7.9-0.9,10.4-1.9l1.2,4.9c-2.4,1.1-6.5,2.3-12.5,2.3
						c-11.6,0-18.5-7.6-18.5-19s6.7-20.3,17.7-20.3c12.3,0,15.6,10.8,15.6,17.8c0,1.4-0.2,2.5-0.2,3.2H331.6z M351.7,356.9
						c0.1-4.4-1.8-11.1-9.5-11.1c-6.9,0-10,6.4-10.5,11.1H351.7z"/>
					<path class="st4" d="M393.7,378.1c-1.8,0.9-5.8,2.2-10.8,2.2c-11.4,0-18.8-7.7-18.8-19.2c0-11.6,7.9-20,20.3-20
						c4.1,0,7.6,1,9.5,1.9l-1.6,5.3c-1.6-0.9-4.2-1.8-7.9-1.8c-8.6,0-13.3,6.4-13.3,14.3c0,8.7,5.6,14.1,13.1,14.1
						c3.9,0,6.5-1,8.4-1.9L393.7,378.1z"/>
					<path class="st4" d="M435.4,360.3c0,13.9-9.7,20-18.8,20c-10.2,0-18.1-7.5-18.1-19.4c0-12.6,8.3-20,18.7-20
						C428.1,340.9,435.4,348.8,435.4,360.3z M405.5,360.7c0,8.3,4.8,14.5,11.5,14.5c6.5,0,11.5-6.2,11.5-14.6
						c0-6.4-3.2-14.5-11.3-14.5C409,346,405.5,353.5,405.5,360.7z"/>
				</g>
				<g>
					<path class="st4" d="M328,385.7h1.7l1.1,3.3c0.1,0.3,0.2,0.6,0.2,1h0c0-0.4,0.1-0.7,0.2-1l1.1-3.3h1.7l-2.5,6.6
						c-0.2,0.6-0.5,1.1-1,1.4c-0.4,0.3-0.9,0.5-1.5,0.5c-0.3,0-0.5,0-0.8-0.1v-1.3c0.2,0,0.4,0.1,0.6,0.1c0.3,0,0.5-0.1,0.7-0.3
						s0.4-0.4,0.5-0.8l0.1-0.3L328,385.7z"/>
					<path class="st4" d="M343.4,388.6c0,0.9-0.3,1.7-0.8,2.2c-0.5,0.5-1.2,0.8-2.1,0.8c-0.6,0-1.1-0.1-1.5-0.4
						c-0.4-0.2-0.8-0.6-1-1.1c-0.2-0.5-0.3-1-0.3-1.6c0-1,0.2-1.7,0.7-2.2c0.5-0.5,1.2-0.8,2.1-0.8c0.6,0,1.1,0.1,1.5,0.4
						c0.4,0.2,0.8,0.6,1,1C343.3,387.5,343.4,388,343.4,388.6z M339.4,388.6c0,0.6,0.1,1,0.3,1.3c0.2,0.3,0.5,0.4,0.9,0.4
						c0.4,0,0.7-0.1,0.9-0.4c0.2-0.3,0.3-0.7,0.3-1.3c0-0.6-0.1-1-0.3-1.3s-0.5-0.4-0.9-0.4c-0.4,0-0.7,0.1-0.9,0.4
						S339.4,388.1,339.4,388.6z"/>
					<path class="st4" d="M352,391.6l-0.2-0.7h-0.1c-0.2,0.3-0.4,0.5-0.7,0.6s-0.7,0.2-1.1,0.2c-0.7,0-1.2-0.2-1.5-0.5
						c-0.3-0.4-0.5-0.9-0.5-1.6v-3.8h1.6v3.4c0,0.4,0.1,0.7,0.2,0.9c0.1,0.2,0.4,0.3,0.7,0.3c0.4,0,0.8-0.1,1-0.4s0.3-0.8,0.3-1.5
						v-2.7h1.6v5.8H352z"/>
					<path class="st4" d="M361.4,385.6c0.2,0,0.4,0,0.5,0l-0.1,1.5c-0.1,0-0.3-0.1-0.5-0.1c-0.5,0-0.9,0.1-1.2,0.4s-0.4,0.6-0.4,1.1
						v3h-1.6v-5.8h1.2l0.2,1h0.1c0.2-0.3,0.4-0.6,0.7-0.8C360.7,385.7,361,385.6,361.4,385.6z"/>
					<path class="st4" d="M374.6,390.4c0.3,0,0.6-0.1,1-0.2v1.2c-0.4,0.2-0.9,0.3-1.5,0.3c-0.6,0-1.1-0.2-1.4-0.5s-0.4-0.8-0.4-1.4
						v-2.8h-0.8v-0.7l0.9-0.5l0.5-1.2h1v1.2h1.6v1.2h-1.6v2.8c0,0.2,0.1,0.4,0.2,0.5C374.2,390.4,374.4,390.4,374.6,390.4z"/>
					<path class="st4" d="M382.6,391.7c-0.9,0-1.7-0.3-2.2-0.8c-0.5-0.5-0.8-1.3-0.8-2.2c0-1,0.2-1.7,0.7-2.3s1.2-0.8,2-0.8
						c0.8,0,1.5,0.2,1.9,0.7c0.5,0.5,0.7,1.1,0.7,1.9v0.8h-3.8c0,0.5,0.2,0.8,0.4,1.1c0.3,0.3,0.6,0.4,1.1,0.4c0.4,0,0.7,0,1-0.1
						s0.6-0.2,1-0.3v1.2c-0.3,0.1-0.6,0.2-0.9,0.3C383.4,391.6,383.1,391.7,382.6,391.7z M382.4,386.8c-0.3,0-0.6,0.1-0.8,0.3
						c-0.2,0.2-0.3,0.5-0.3,0.9h2.2c0-0.4-0.1-0.7-0.3-0.9C383,386.9,382.7,386.8,382.4,386.8z"/>
					<path class="st4" d="M390.7,388.6l-1.9-2.8h1.8l1.1,1.9l1.1-1.9h1.8l-1.9,2.8l2,3h-1.8l-1.2-2l-1.2,2h-1.8L390.7,388.6z"/>
					<path class="st4" d="M401.3,390.4c0.3,0,0.6-0.1,1-0.2v1.2c-0.4,0.2-0.9,0.3-1.5,0.3c-0.6,0-1.1-0.2-1.4-0.5s-0.4-0.8-0.4-1.4
						v-2.8h-0.8v-0.7l0.9-0.5l0.5-1.2h1v1.2h1.6v1.2h-1.6v2.8c0,0.2,0.1,0.4,0.2,0.5C400.9,390.4,401.1,390.4,401.3,390.4z"/>
				</g>
			</g>
			<path class="st9" d="M366.9,321.7c12.4-12.1,32.4-12.1,44.8,0H366.9 M366.9,321.7c17.3-0.2,31.5-14.4,31.7-31.7
				C381.3,290.2,367.1,304.4,366.9,321.7z M366.9,321.7c12.1-12.4,12.1-32.4,0-44.8C354.8,289.3,354.8,309.3,366.9,321.7z
				 M366.9,321.7c-0.2-17.3-14.4-31.5-31.7-31.7C335.5,307.3,349.6,321.5,366.9,321.7z M366.9,321.7c-12.4-12.1-32.4-12.1-44.8,0
				H366.9z"/>
			<rect x="324" y="396" class="st9" width="86" height="4"/>
		</g>
		<g>
			<g>
				<g>
					<g>
						<path class="st4" d="M118.2,335.1c-0.1,1.8-0.2,3.9-0.2,7v14.8c0,5.8-1.2,9.4-3.6,11.6c-2.5,2.3-6,3-9.2,3
							c-3,0-6.4-0.7-8.5-2.1l1.2-3.5c1.7,1,4.3,2,7.5,2c4.7,0,8.2-2.5,8.2-8.9v-2.8h-0.1c-1.4,2.4-4.1,4.3-8.1,4.3
							c-6.3,0-10.8-5.4-10.8-12.4c0-8.6,5.6-13.5,11.4-13.5c4.4,0,6.8,2.3,7.9,4.4h0.1l0.2-3.8H118.2z M113.4,345.2
							c0-0.8-0.1-1.5-0.3-2.1c-0.8-2.7-3.1-4.9-6.5-4.9c-4.4,0-7.6,3.7-7.6,9.6c0,5,2.5,9.1,7.5,9.1c2.8,0,5.4-1.8,6.4-4.7
							c0.3-0.8,0.4-1.7,0.4-2.5V345.2z"/>
						<path class="st4" d="M125.3,343.1c0-3-0.1-5.6-0.2-7.9h4l0.2,5h0.2c1.2-3.4,3.9-5.6,7-5.6c0.5,0,0.9,0.1,1.3,0.2v4.4
							c-0.5-0.1-0.9-0.2-1.6-0.2c-3.3,0-5.6,2.5-6.2,5.9c-0.1,0.6-0.2,1.4-0.2,2.2v13.6h-4.6V343.1z"/>
						<path class="st4" d="M144.5,348.7c0.1,6.3,4.1,8.8,8.7,8.8c3.3,0,5.3-0.6,7-1.3l0.8,3.3c-1.6,0.7-4.4,1.6-8.5,1.6
							c-7.8,0-12.5-5.1-12.5-12.8s4.5-13.7,11.9-13.7c8.3,0,10.5,7.3,10.5,12c0,0.9-0.1,1.7-0.2,2.2H144.5z M158.1,345.4
							c0.1-2.9-1.2-7.5-6.4-7.5c-4.7,0-6.7,4.3-7.1,7.5H158.1z"/>
						<path class="st4" d="M170.8,348.7c0.1,6.3,4.1,8.8,8.7,8.8c3.3,0,5.3-0.6,7-1.3l0.8,3.3c-1.6,0.7-4.4,1.6-8.5,1.6
							c-7.8,0-12.5-5.1-12.5-12.8s4.5-13.7,11.9-13.7c8.3,0,10.5,7.3,10.5,12c0,0.9-0.1,1.7-0.2,2.2H170.8z M184.4,345.4
							c0.1-2.9-1.2-7.5-6.4-7.5c-4.7,0-6.7,4.3-7.1,7.5H184.4z"/>
						<path class="st4" d="M194.6,342c0-2.6-0.1-4.8-0.2-6.9h4.1l0.3,4.2h0.1c1.3-2.4,4.2-4.8,8.4-4.8c3.5,0,9,2.1,9,10.8v15.2h-4.6
							v-14.7c0-4.1-1.5-7.5-5.9-7.5c-3,0-5.4,2.2-6.2,4.7c-0.2,0.6-0.3,1.4-0.3,2.2v15.3h-4.6V342z"/>
					</g>
				</g>
				<g>
					<path class="st4" d="M98.3,366.8h1.7l1.1,3.3c0.1,0.3,0.2,0.6,0.2,1h0c0-0.4,0.1-0.7,0.2-1l1.1-3.3h1.7l-2.5,6.6
						c-0.2,0.6-0.5,1.1-1,1.4s-0.9,0.5-1.5,0.5c-0.3,0-0.5,0-0.8-0.1v-1.3c0.2,0,0.4,0.1,0.6,0.1c0.3,0,0.5-0.1,0.7-0.3
						s0.4-0.4,0.5-0.8l0.1-0.3L98.3,366.8z"/>
					<path class="st4" d="M113.7,369.7c0,0.9-0.3,1.7-0.8,2.2c-0.5,0.5-1.2,0.8-2.1,0.8c-0.6,0-1.1-0.1-1.5-0.4
						c-0.4-0.2-0.8-0.6-1-1.1c-0.2-0.5-0.3-1-0.3-1.6c0-1,0.2-1.7,0.7-2.2c0.5-0.5,1.2-0.8,2.1-0.8c0.6,0,1.1,0.1,1.5,0.4
						c0.4,0.2,0.8,0.6,1,1C113.6,368.6,113.7,369.1,113.7,369.7z M109.7,369.7c0,0.6,0.1,1,0.3,1.3c0.2,0.3,0.5,0.4,0.9,0.4
						c0.4,0,0.7-0.1,0.9-0.4c0.2-0.3,0.3-0.7,0.3-1.3c0-0.6-0.1-1-0.3-1.3s-0.5-0.4-0.9-0.4c-0.4,0-0.7,0.1-0.9,0.4
						S109.7,369.1,109.7,369.7z"/>
					<path class="st4" d="M122.3,372.6l-0.2-0.7H122c-0.2,0.3-0.4,0.5-0.7,0.6s-0.7,0.2-1.1,0.2c-0.7,0-1.2-0.2-1.5-0.5
						c-0.3-0.4-0.5-0.9-0.5-1.6v-3.8h1.6v3.4c0,0.4,0.1,0.7,0.2,0.9c0.1,0.2,0.4,0.3,0.7,0.3c0.4,0,0.8-0.1,1-0.4s0.3-0.8,0.3-1.5
						v-2.7h1.6v5.8H122.3z"/>
					<path class="st4" d="M131.7,366.7c0.2,0,0.4,0,0.5,0l-0.1,1.5c-0.1,0-0.3-0.1-0.5-0.1c-0.5,0-0.9,0.1-1.2,0.4s-0.4,0.6-0.4,1.1
						v3h-1.6v-5.8h1.2l0.2,1h0.1c0.2-0.3,0.4-0.6,0.7-0.8C131,366.8,131.3,366.7,131.7,366.7z"/>
					<path class="st4" d="M144.9,371.5c0.3,0,0.6-0.1,1-0.2v1.2c-0.4,0.2-0.9,0.3-1.5,0.3c-0.6,0-1.1-0.2-1.4-0.5s-0.4-0.8-0.4-1.4
						V368h-0.8v-0.7l0.9-0.5l0.5-1.2h1v1.2h1.6v1.2h-1.6v2.8c0,0.2,0.1,0.4,0.2,0.5C144.5,371.4,144.7,371.5,144.9,371.5z"/>
					<path class="st4" d="M152.9,372.8c-0.9,0-1.7-0.3-2.2-0.8c-0.5-0.5-0.8-1.3-0.8-2.2c0-1,0.2-1.7,0.7-2.3s1.2-0.8,2-0.8
						c0.8,0,1.5,0.2,1.9,0.7c0.5,0.5,0.7,1.1,0.7,1.9v0.8h-3.8c0,0.5,0.2,0.8,0.4,1.1c0.3,0.3,0.6,0.4,1.1,0.4c0.4,0,0.7,0,1-0.1
						s0.6-0.2,1-0.3v1.2c-0.3,0.1-0.6,0.2-0.9,0.3C153.7,372.7,153.3,372.8,152.9,372.8z M152.7,367.8c-0.3,0-0.6,0.1-0.8,0.3
						c-0.2,0.2-0.3,0.5-0.3,0.9h2.2c0-0.4-0.1-0.7-0.3-0.9C153.3,368,153,367.8,152.7,367.8z"/>
					<path class="st4" d="M161,369.7l-1.9-2.8h1.8l1.1,1.9l1.1-1.9h1.8l-1.9,2.8l2,3h-1.8l-1.2-2l-1.2,2H159L161,369.7z"/>
					<path class="st4" d="M171.6,371.5c0.3,0,0.6-0.1,1-0.2v1.2c-0.4,0.2-0.9,0.3-1.5,0.3c-0.6,0-1.1-0.2-1.4-0.5s-0.4-0.8-0.4-1.4
						V368h-0.8v-0.7l0.9-0.5l0.5-1.2h1v1.2h1.6v1.2h-1.6v2.8c0,0.2,0.1,0.4,0.2,0.5C171.2,371.4,171.4,371.5,171.6,371.5z"/>
				</g>
			</g>
			<g>
				<path class="st7" d="M170.1,395.3c25.6-9.6,43.6-31.8,49.5-55.4l-8.9-2.1c-5.9,23.5-22.6,43.3-46.9,52.4
					c-38.7,14.5-81.8-4.9-97-43.2c0.2,0.4,0.3,1,0.5,1.4C82.7,389.7,128.7,410.7,170.1,395.3z"/>
				<g>
					<path class="st9" d="M35.5,326.7c14.9-2.5,29.1,7.5,31.7,22.4C52.3,351.7,38.1,341.7,35.5,326.7"/>
					<path class="st11" d="M35.5,326.7c14.9-2.5,29.1,7.5,31.7,22.4L35.5,326.7"/>
					<path class="st9" d="M89.7,317.5c-14.9,2.5-25,16.7-22.4,31.7C82.2,346.6,92.2,332.5,89.7,317.5"/>
					<path class="st11" d="M89.7,317.5l-22.4,31.7C82.2,346.6,92.2,332.5,89.7,317.5"/>
				</g>
			</g>
		</g>
		<g>
			<g>
				<g>
					<path class="st4" d="M331.6-46.3c0.2,9.3,6.1,13.1,12.9,13.1c4.9,0,7.9-0.9,10.4-1.9l1.2,4.9c-2.4,1.1-6.5,2.3-12.5,2.3
						c-11.6,0-18.5-7.6-18.5-19c0-11.4,6.7-20.3,17.7-20.3c12.3,0,15.6,10.8,15.6,17.8c0,1.4-0.2,2.5-0.2,3.2H331.6z M351.7-51.2
						c0.1-4.4-1.8-11.1-9.5-11.1c-6.9,0-10,6.4-10.5,11.1H351.7z"/>
					<path class="st4" d="M393.7-30.1c-1.8,0.9-5.8,2.2-10.8,2.2c-11.4,0-18.8-7.7-18.8-19.2c0-11.6,7.9-20,20.3-20
						c4.1,0,7.6,1,9.5,1.9l-1.6,5.3c-1.6-0.9-4.2-1.8-7.9-1.8c-8.6,0-13.3,6.4-13.3,14.3c0,8.7,5.6,14.1,13.1,14.1
						c3.9,0,6.5-1,8.4-1.9L393.7-30.1z"/>
					<path class="st4" d="M435.4-47.9c0,13.9-9.7,20-18.8,20c-10.2,0-18.1-7.5-18.1-19.4c0-12.6,8.3-20,18.7-20
						C428.1-67.3,435.4-59.4,435.4-47.9z M405.5-47.5c0,8.3,4.8,14.5,11.5,14.5c6.5,0,11.5-6.2,11.5-14.6c0-6.4-3.2-14.5-11.3-14.5
						C409-62.1,405.5-54.7,405.5-47.5z"/>
				</g>
				<g>
					<path class="st4" d="M328-22.4h1.7l1.1,3.3c0.1,0.3,0.2,0.6,0.2,1h0c0-0.4,0.1-0.7,0.2-1l1.1-3.3h1.7l-2.5,6.6
						c-0.2,0.6-0.5,1.1-1,1.4c-0.4,0.3-0.9,0.5-1.5,0.5c-0.3,0-0.5,0-0.8-0.1v-1.3c0.2,0,0.4,0.1,0.6,0.1c0.3,0,0.5-0.1,0.7-0.3
						s0.4-0.4,0.5-0.8l0.1-0.3L328-22.4z"/>
					<path class="st4" d="M343.4-19.5c0,0.9-0.3,1.7-0.8,2.2s-1.2,0.8-2.1,0.8c-0.6,0-1.1-0.1-1.5-0.4c-0.4-0.2-0.8-0.6-1-1.1
						c-0.2-0.5-0.3-1-0.3-1.6c0-1,0.2-1.7,0.7-2.2c0.5-0.5,1.2-0.8,2.1-0.8c0.6,0,1.1,0.1,1.5,0.4c0.4,0.2,0.8,0.6,1,1
						C343.3-20.7,343.4-20.1,343.4-19.5z M339.4-19.5c0,0.6,0.1,1,0.3,1.3c0.2,0.3,0.5,0.4,0.9,0.4c0.4,0,0.7-0.1,0.9-0.4
						c0.2-0.3,0.3-0.7,0.3-1.3c0-0.6-0.1-1-0.3-1.3c-0.2-0.3-0.5-0.4-0.9-0.4c-0.4,0-0.7,0.1-0.9,0.4S339.4-20.1,339.4-19.5z"/>
					<path class="st4" d="M352-16.6l-0.2-0.7h-0.1c-0.2,0.3-0.4,0.5-0.7,0.6s-0.7,0.2-1.1,0.2c-0.7,0-1.2-0.2-1.5-0.5
						c-0.3-0.4-0.5-0.9-0.5-1.6v-3.8h1.6v3.4c0,0.4,0.1,0.7,0.2,0.9c0.1,0.2,0.4,0.3,0.7,0.3c0.4,0,0.8-0.1,1-0.4s0.3-0.8,0.3-1.5
						v-2.7h1.6v5.8H352z"/>
					<path class="st4" d="M361.4-22.5c0.2,0,0.4,0,0.5,0l-0.1,1.5c-0.1,0-0.3-0.1-0.5-0.1c-0.5,0-0.9,0.1-1.2,0.4
						c-0.3,0.3-0.4,0.6-0.4,1.1v3h-1.6v-5.8h1.2l0.2,1h0.1c0.2-0.3,0.4-0.6,0.7-0.8S361-22.5,361.4-22.5z"/>
					<path class="st4" d="M374.6-17.8c0.3,0,0.6-0.1,1-0.2v1.2c-0.4,0.2-0.9,0.3-1.5,0.3c-0.6,0-1.1-0.2-1.4-0.5
						c-0.3-0.3-0.4-0.8-0.4-1.4v-2.8h-0.8v-0.7l0.9-0.5l0.5-1.2h1v1.2h1.6v1.2h-1.6v2.8c0,0.2,0.1,0.4,0.2,0.5
						C374.2-17.8,374.4-17.8,374.6-17.8z"/>
					<path class="st4" d="M382.6-16.5c-0.9,0-1.7-0.3-2.2-0.8c-0.5-0.5-0.8-1.3-0.8-2.2c0-1,0.2-1.7,0.7-2.3c0.5-0.5,1.2-0.8,2-0.8
						c0.8,0,1.5,0.2,1.9,0.7c0.5,0.5,0.7,1.1,0.7,1.9v0.8h-3.8c0,0.5,0.2,0.8,0.4,1.1c0.3,0.3,0.6,0.4,1.1,0.4c0.4,0,0.7,0,1-0.1
						s0.6-0.2,1-0.3v1.2c-0.3,0.1-0.6,0.2-0.9,0.3C383.4-16.5,383.1-16.5,382.6-16.5z M382.4-21.4c-0.3,0-0.6,0.1-0.8,0.3
						c-0.2,0.2-0.3,0.5-0.3,0.9h2.2c0-0.4-0.1-0.7-0.3-0.9C383-21.3,382.7-21.4,382.4-21.4z"/>
					<path class="st4" d="M390.7-19.6l-1.9-2.8h1.8l1.1,1.9l1.1-1.9h1.8l-1.9,2.8l2,3h-1.8l-1.2-2l-1.2,2h-1.8L390.7-19.6z"/>
					<path class="st4" d="M401.3-17.8c0.3,0,0.6-0.1,1-0.2v1.2c-0.4,0.2-0.9,0.3-1.5,0.3c-0.6,0-1.1-0.2-1.4-0.5
						c-0.3-0.3-0.4-0.8-0.4-1.4v-2.8h-0.8v-0.7l0.9-0.5l0.5-1.2h1v1.2h1.6v1.2h-1.6v2.8c0,0.2,0.1,0.4,0.2,0.5
						C400.9-17.8,401.1-17.8,401.3-17.8z"/>
				</g>
			</g>
			<path class="st12" d="M379.7-76.7c-1.2-5.2-4.3-6.9-6.1-8.1c-0.6-0.4,0.4-1-0.2-1.5c-0.5-0.4-2.6-0.7-3.1-1.2
				c-0.5-0.5,0.4-1.2,0-1.7c-0.4-0.5-2.2-0.7-2.6-1.2l0,0c0.2-0.3,0.1-0.6,0-0.9c0.1-0.3,0.2-0.6,0-0.9c0,0,0,0,0,0
				c0.4-0.5,2-1.2,2.2-1.7c0.4-0.9-0.6-1.4-0.3-2.3c0.2-0.7,1.8-2,2-2.7c0.2-0.9-0.8-0.7-0.7-1.5c0.1-0.7,1.2-2.6,1.3-3.3
				c0-0.9-1.2-0.2-1.3-1.1c0-0.6,1.1-2.9,1-3.6c-0.1-0.8-1.3-0.6-1.5-1.4c-0.2-0.8,0.7-2.8,0.5-3.6c-0.3-0.9-1.9,0.1-2.2-0.8
				c-0.3-0.9,0.7-3.8,0.3-4.6c-0.2-0.6-0.9-0.3-1.4-0.3c0.2,0,0.4-0.1,0.5-0.3c0.3-0.7-0.3-3.2,0.1-3.8c0.4-0.8,1.5,0.4,1.9-0.4
				c0.3-0.7,0-3.3,0.3-3.9c0.3-0.6,1.4,0.7,1.7,0.1c0.3-0.5-0.1-2.9,0.2-3.4c0.4-0.6,1.4,0.8,1.8,0.2c0.3-0.6,0-3.1,0.3-3.6
				c0.3-0.5,1.3,0.9,1.6,0.5c0.3-0.5,0-2.8,0.3-3.3c0.2-0.4,0.7,0.9,0.9,0.5c0.2-0.3,0.3-2.2,0.5-2.5c0.5-0.8,1.1,0.8,1.9-3
				c0.8,3.8,1.4,2.2,1.9,3c0.2,0.3,0.2,2.2,0.5,2.5c0.2,0.3,0.6-0.9,0.9-0.5c0.3,0.5,0,2.8,0.3,3.3c0.3,0.4,1.3-0.9,1.6-0.5
				c0.3,0.5,0,3,0.3,3.6c0.4,0.6,1.4-0.8,1.8-0.2c0.3,0.5-0.1,2.9,0.2,3.4c0.3,0.6,1.4-0.7,1.7-0.1c0.4,0.6,0,3.3,0.3,3.9
				c0.4,0.8,1.5-0.4,1.9,0.4c0.3,0.7-0.2,3.1,0.1,3.8c0.4,0.8,1.6-0.2,1.9,0.6c0.3,0.9-0.6,3.7-0.3,4.6c0.3,0.9,1.9-0.1,2.2,0.8
				c0.2,0.8-0.6,2.7-0.5,3.6c0.2,0.8,1.4,0.6,1.5,1.4c0.1,0.6-1.1,2.9-1,3.6c0.1,0.9,1.3,0.2,1.3,1.1c0,0.7-1.2,2.6-1.3,3.3
				c-0.1,0.9,0.9,0.7,0.7,1.5c-0.2,0.7-1.8,2-2,2.7c-0.3,0.9,0.7,1.4,0.3,2.3c-0.2,0.5-2,1.3-2.3,1.8c-0.4,0.7,0.5,1.2,0,1.9
				c-0.4,0.5-2.1,0.7-2.6,1.2c-0.4,0.5,0.5,1.2,0,1.7c-0.5,0.5-2.5,0.8-3.1,1.2c-0.6,0.5,0.4,1.1-0.2,1.5
				C384-83.5,380.9-81.9,379.7-76.7"/>
			<path class="st9" d="M352.9-76.9c-1.2-5.2-4.3-6.9-6.1-8.1c-0.6-0.4,0.4-1.1-0.2-1.5c-0.5-0.4-2.6-0.7-3.1-1.2
				c-0.5-0.5,0.4-1.2,0-1.7c-0.4-0.5-2.2-0.7-2.6-1.2c-0.5-0.7,0.4-1.1,0-1.9c-0.3-0.5-2-1.3-2.3-1.8c-0.4-0.9,0.6-1.4,0.3-2.3
				c-0.2-0.7-1.8-2-2-2.7c-0.2-0.9,0.8-0.7,0.7-1.5c-0.1-0.7-1.2-2.6-1.3-3.3c0-0.9,1.2-0.2,1.3-1.1c0-0.6-1.1-2.9-1-3.6
				c0.1-0.8,1.3-0.6,1.5-1.4c0.2-0.8-0.7-2.8-0.5-3.6c0.3-0.9,1.8,0.1,2.2-0.8c0.3-0.9-0.7-3.8-0.3-4.6c0.3-0.8,1.5,0.2,1.9-0.6
				c0.3-0.7-0.3-3.2,0.1-3.8c0.4-0.8,1.5,0.4,1.9-0.4c0.3-0.7,0-3.3,0.3-3.9c0.3-0.6,1.4,0.7,1.7,0.1c0.3-0.5-0.1-2.9,0.2-3.4
				c0.4-0.6,1.4,0.8,1.8,0.2c0.3-0.6,0-3.1,0.4-3.6c0.3-0.5,1.3,0.9,1.6,0.5c0.3-0.5,0-2.8,0.3-3.3c0.3-0.4,0.7,0.9,0.9,0.5
				c0.2-0.3,0.3-2.2,0.5-2.5c0.5-0.8,1.1,0.8,1.9-3c0.8,3.8,1.4,2.2,1.9,3c0.2,0.3,0.2,2.2,0.5,2.5c0.2,0.3,0.6-0.9,0.9-0.5
				c0.3,0.5,0,2.8,0.3,3.3c0.3,0.4,1.3-0.9,1.6-0.5c0.3,0.5,0,3,0.4,3.6c0.4,0.6,1.4-0.8,1.8-0.2c0.3,0.5-0.1,2.9,0.2,3.4
				c0.3,0.6,1.4-0.7,1.7-0.1c0.4,0.6,0,3.3,0.3,3.9c0.4,0.8,1.5-0.4,1.9,0.4c0.3,0.7-0.2,3.1,0.1,3.8c0.4,0.8,1.6-0.2,1.9,0.6
				c0.3,0.9-0.6,3.7-0.3,4.6c0.3,0.9,1.9-0.1,2.2,0.8c0.2,0.8-0.6,2.7-0.5,3.6c0.2,0.8,1.4,0.6,1.5,1.4c0.1,0.6-1.1,2.9-1,3.6
				c0.1,0.9,1.3,0.2,1.3,1.1c0,0.7-1.2,2.6-1.2,3.3c-0.1,0.9,0.9,0.7,0.7,1.5c-0.2,0.7-1.8,2-2,2.7c-0.3,0.9,0.7,1.4,0.3,2.3
				c-0.2,0.5-2,1.3-2.3,1.8c-0.4,0.7,0.5,1.2,0,1.9c-0.4,0.5-2.1,0.7-2.6,1.2c-0.4,0.5,0.5,1.2,0,1.7c-0.5,0.5-2.5,0.8-3.1,1.2
				c-0.6,0.5,0.4,1.1-0.2,1.5C357.2-83.7,354-82.1,352.9-76.9"/>
		</g>
		<g>
			<g>
				<g>
					<path class="st4" d="M-149.3,361.9c0.2,9.3,6.1,13.1,12.9,13.1c4.9,0,7.9-0.9,10.4-1.9l1.2,4.9c-2.4,1.1-6.5,2.3-12.5,2.3
						c-11.6,0-18.5-7.6-18.5-19s6.7-20.3,17.7-20.3c12.3,0,15.6,10.8,15.6,17.8c0,1.4-0.2,2.5-0.2,3.2H-149.3z M-129.2,356.9
						c0.1-4.4-1.8-11.1-9.5-11.1c-6.9,0-10,6.4-10.5,11.1H-129.2z"/>
					<path class="st4" d="M-87.3,378.1c-1.8,0.9-5.8,2.2-10.8,2.2c-11.4,0-18.8-7.7-18.8-19.2c0-11.6,7.9-20,20.3-20
						c4.1,0,7.6,1,9.5,1.9l-1.6,5.3c-1.6-0.9-4.2-1.8-7.9-1.8c-8.6,0-13.3,6.4-13.3,14.3c0,8.7,5.6,14.1,13.1,14.1
						c3.9,0,6.5-1,8.4-1.9L-87.3,378.1z"/>
					<path class="st4" d="M-45.6,360.3c0,13.9-9.7,20-18.8,20c-10.2,0-18.1-7.5-18.1-19.4c0-12.6,8.3-20,18.7-20
						C-52.9,340.9-45.6,348.8-45.6,360.3z M-75.5,360.7c0,8.3,4.8,14.5,11.5,14.5c6.5,0,11.5-6.2,11.5-14.6
						c0-6.4-3.2-14.5-11.3-14.5C-72,346-75.5,353.5-75.5,360.7z"/>
				</g>
				<g>
					<path class="st4" d="M-153,385.7h1.7l1.1,3.3c0.1,0.3,0.2,0.6,0.2,1h0c0-0.4,0.1-0.7,0.2-1l1.1-3.3h1.7l-2.5,6.6
						c-0.2,0.6-0.5,1.1-1,1.4s-0.9,0.5-1.5,0.5c-0.3,0-0.5,0-0.8-0.1v-1.3c0.2,0,0.4,0.1,0.6,0.1c0.3,0,0.5-0.1,0.7-0.3
						s0.4-0.4,0.5-0.8l0.1-0.3L-153,385.7z"/>
					<path class="st4" d="M-137.6,388.6c0,0.9-0.3,1.7-0.8,2.2c-0.5,0.5-1.2,0.8-2.1,0.8c-0.6,0-1.1-0.1-1.5-0.4
						c-0.4-0.2-0.8-0.6-1-1.1c-0.2-0.5-0.3-1-0.3-1.6c0-1,0.2-1.7,0.7-2.2c0.5-0.5,1.2-0.8,2.1-0.8c0.6,0,1.1,0.1,1.5,0.4
						c0.4,0.2,0.8,0.6,1,1C-137.7,387.5-137.6,388-137.6,388.6z M-141.6,388.6c0,0.6,0.1,1,0.3,1.3c0.2,0.3,0.5,0.4,0.9,0.4
						c0.4,0,0.7-0.1,0.9-0.4c0.2-0.3,0.3-0.7,0.3-1.3c0-0.6-0.1-1-0.3-1.3s-0.5-0.4-0.9-0.4c-0.4,0-0.7,0.1-0.9,0.4
						S-141.6,388.1-141.6,388.6z"/>
					<path class="st4" d="M-128.9,391.6l-0.2-0.7h-0.1c-0.2,0.3-0.4,0.5-0.7,0.6c-0.3,0.1-0.7,0.2-1.1,0.2c-0.7,0-1.2-0.2-1.5-0.5
						c-0.3-0.4-0.5-0.9-0.5-1.6v-3.8h1.6v3.4c0,0.4,0.1,0.7,0.2,0.9s0.4,0.3,0.7,0.3c0.4,0,0.8-0.1,1-0.4s0.3-0.8,0.3-1.5v-2.7h1.6
						v5.8H-128.9z"/>
					<path class="st4" d="M-119.6,385.6c0.2,0,0.4,0,0.5,0l-0.1,1.5c-0.1,0-0.3-0.1-0.5-0.1c-0.5,0-0.9,0.1-1.2,0.4
						c-0.3,0.3-0.4,0.6-0.4,1.1v3h-1.6v-5.8h1.2l0.2,1h0.1c0.2-0.3,0.4-0.6,0.7-0.8C-120.3,385.7-120,385.6-119.6,385.6z"/>
					<path class="st4" d="M-106.4,390.4c0.3,0,0.6-0.1,1-0.2v1.2c-0.4,0.2-0.9,0.3-1.5,0.3c-0.6,0-1.1-0.2-1.4-0.5
						c-0.3-0.3-0.4-0.8-0.4-1.4v-2.8h-0.8v-0.7l0.9-0.5l0.5-1.2h1v1.2h1.6v1.2h-1.6v2.8c0,0.2,0.1,0.4,0.2,0.5
						C-106.8,390.4-106.6,390.4-106.4,390.4z"/>
					<path class="st4" d="M-98.4,391.7c-0.9,0-1.7-0.3-2.2-0.8s-0.8-1.3-0.8-2.2c0-1,0.2-1.7,0.7-2.3s1.2-0.8,2-0.8
						c0.8,0,1.5,0.2,1.9,0.7c0.5,0.5,0.7,1.1,0.7,1.9v0.8h-3.8c0,0.5,0.2,0.8,0.4,1.1c0.3,0.3,0.6,0.4,1.1,0.4c0.4,0,0.7,0,1-0.1
						s0.6-0.2,1-0.3v1.2c-0.3,0.1-0.6,0.2-0.9,0.3C-97.5,391.6-97.9,391.7-98.4,391.7z M-98.6,386.8c-0.3,0-0.6,0.1-0.8,0.3
						c-0.2,0.2-0.3,0.5-0.3,0.9h2.2c0-0.4-0.1-0.7-0.3-0.9C-98,386.9-98.3,386.8-98.6,386.8z"/>
					<path class="st4" d="M-90.3,388.6l-1.9-2.8h1.8l1.1,1.9l1.1-1.9h1.8l-1.9,2.8l2,3H-88l-1.2-2l-1.2,2h-1.8L-90.3,388.6z"/>
					<path class="st4" d="M-79.7,390.4c0.3,0,0.6-0.1,1-0.2v1.2c-0.4,0.2-0.9,0.3-1.5,0.3c-0.6,0-1.1-0.2-1.4-0.5
						c-0.3-0.3-0.4-0.8-0.4-1.4v-2.8h-0.8v-0.7l0.9-0.5l0.5-1.2h1v1.2h1.6v1.2h-1.6v2.8c0,0.2,0.1,0.4,0.2,0.5
						C-80.1,390.4-79.9,390.4-79.7,390.4z"/>
				</g>
			</g>
			<path class="st7" d="M-154,326.9c35.1,6.9,39.5-22.9,80.6-29.1c-43.4,4.5-45.5,33.4-78.7,27.1L-154,326.9"/>
			<path class="st8" d="M-60.2,299.5c-19.7,1.1-29.3,23.8-48,13.7c14.3-10,27.3-15.4,43.8-14.2c-10.2-7.1-29-11.4-38.4,2.1
				c5-2.9,17.1-6.1,27.1-3.8c-17.2,1.5-29,8.5-36,13.7C-107.4,287.3-80.1,282.4-60.2,299.5"/>
			<g>
				<path class="st5" d="M-68,400h-92c-1.8,0-3-1.1-3-3v-80c0-1.8,1.2-5,3-5h38v2h-38c-1.1,0-2,1.9-2,3v80c0,1.1,0.9,2,2,2h92
					c1.1,0,3-0.9,3-2v-80c0-1.1-1.9-3-3-3h-6v-2h6c1.8,0,4,3.2,4,5v80C-64,398.9-66.1,400-68,400z"/>
			</g>
		</g>
		<g class="st13">
			<g class="st14">
				<ellipse class="st15" cx="374.2" cy="226.4" rx="78.3" ry="17.9"/>
				<ellipse class="st16" cx="374.2" cy="226.4" rx="75" ry="17.1"/>
				<ellipse class="st17" cx="374.2" cy="226.4" rx="71.7" ry="16.4"/>
				<ellipse class="st18" cx="374.2" cy="226.4" rx="68.4" ry="15.6"/>
				<ellipse class="st19" cx="374.2" cy="226.4" rx="65.1" ry="14.8"/>
				<ellipse class="st20" cx="374.2" cy="226.4" rx="61.8" ry="14.1"/>
				<ellipse class="st21" cx="374.2" cy="226.4" rx="58.5" ry="13.3"/>
				<ellipse class="st22" cx="374.2" cy="226.4" rx="55.2" ry="12.6"/>
				<ellipse class="st23" cx="374.2" cy="226.4" rx="51.9" ry="11.8"/>
				<ellipse class="st24" cx="374.2" cy="226.4" rx="48.6" ry="11.1"/>
				<ellipse class="st25" cx="374.2" cy="226.4" rx="45.2" ry="10.3"/>
				<ellipse class="st26" cx="374.2" cy="226.4" rx="41.9" ry="9.6"/>
				<ellipse class="st27" cx="374.2" cy="226.4" rx="38.6" ry="8.8"/>
				<ellipse class="st28" cx="374.2" cy="226.4" rx="35.3" ry="8.1"/>
				<ellipse class="st29" cx="374.2" cy="226.4" rx="32" ry="7.3"/>
				<ellipse class="st30" cx="374.2" cy="226.4" rx="28.7" ry="6.6"/>
				<ellipse class="st31" cx="374.2" cy="226.4" rx="25.4" ry="5.8"/>
				<ellipse class="st32" cx="374.2" cy="226.4" rx="22.1" ry="5.1"/>
				<ellipse class="st33" cx="374.2" cy="226.4" rx="18.8" ry="4.3"/>
				<ellipse class="st34" cx="374.2" cy="226.4" rx="15.5" ry="3.5"/>
				<ellipse class="st35" cx="374.2" cy="226.4" rx="12.2" ry="2.8"/>
				<ellipse class="st4" cx="374.2" cy="226.4" rx="8.9" ry="2"/>
			</g>
			<g class="st14">
				<ellipse class="st15" cx="136.8" cy="226.4" rx="78.3" ry="17.9"/>
				<ellipse class="st16" cx="136.8" cy="226.4" rx="75" ry="17.1"/>
				<ellipse class="st17" cx="136.8" cy="226.4" rx="71.7" ry="16.4"/>
				<ellipse class="st18" cx="136.8" cy="226.4" rx="68.4" ry="15.6"/>
				<ellipse class="st19" cx="136.8" cy="226.4" rx="65.1" ry="14.8"/>
				<ellipse class="st20" cx="136.8" cy="226.4" rx="61.8" ry="14.1"/>
				<ellipse class="st21" cx="136.8" cy="226.4" rx="58.5" ry="13.3"/>
				<ellipse class="st22" cx="136.8" cy="226.4" rx="55.2" ry="12.6"/>
				<ellipse class="st23" cx="136.8" cy="226.4" rx="51.9" ry="11.8"/>
				<ellipse class="st24" cx="136.8" cy="226.4" rx="48.6" ry="11.1"/>
				<ellipse class="st25" cx="136.8" cy="226.4" rx="45.2" ry="10.3"/>
				<ellipse class="st26" cx="136.8" cy="226.4" rx="41.9" ry="9.6"/>
				<ellipse class="st27" cx="136.8" cy="226.4" rx="38.6" ry="8.8"/>
				<ellipse class="st28" cx="136.8" cy="226.4" rx="35.3" ry="8.1"/>
				<ellipse class="st29" cx="136.8" cy="226.4" rx="32" ry="7.3"/>
				<ellipse class="st30" cx="136.8" cy="226.4" rx="28.7" ry="6.6"/>
				<ellipse class="st31" cx="136.8" cy="226.4" rx="25.4" ry="5.8"/>
				<ellipse class="st32" cx="136.8" cy="226.4" rx="22.1" ry="5.1"/>
				<ellipse class="st33" cx="136.8" cy="226.4" rx="18.8" ry="4.3"/>
				<ellipse class="st34" cx="136.8" cy="226.4" rx="15.5" ry="3.5"/>
				<ellipse class="st35" cx="136.8" cy="226.4" rx="12.2" ry="2.8"/>
				<ellipse class="st4" cx="136.8" cy="226.4" rx="8.9" ry="2"/>
			</g>
			<g class="st14">
				<ellipse class="st15" cx="-112.2" cy="226.4" rx="78.3" ry="17.9"/>
				<ellipse class="st16" cx="-112.2" cy="226.4" rx="75" ry="17.1"/>
				<ellipse class="st17" cx="-112.2" cy="226.4" rx="71.7" ry="16.4"/>
				<ellipse class="st18" cx="-112.2" cy="226.4" rx="68.4" ry="15.6"/>
				<ellipse class="st19" cx="-112.2" cy="226.4" rx="65.1" ry="14.8"/>
				<ellipse class="st20" cx="-112.2" cy="226.4" rx="61.8" ry="14.1"/>
				<ellipse class="st21" cx="-112.2" cy="226.4" rx="58.5" ry="13.3"/>
				<ellipse class="st22" cx="-112.2" cy="226.4" rx="55.2" ry="12.6"/>
				<ellipse class="st23" cx="-112.2" cy="226.4" rx="51.9" ry="11.8"/>
				<ellipse class="st24" cx="-112.2" cy="226.4" rx="48.6" ry="11.1"/>
				<ellipse class="st25" cx="-112.2" cy="226.4" rx="45.2" ry="10.3"/>
				<ellipse class="st26" cx="-112.2" cy="226.4" rx="41.9" ry="9.6"/>
				<ellipse class="st27" cx="-112.2" cy="226.4" rx="38.6" ry="8.8"/>
				<ellipse class="st28" cx="-112.2" cy="226.4" rx="35.3" ry="8.1"/>
				<ellipse class="st29" cx="-112.2" cy="226.4" rx="32" ry="7.3"/>
				<ellipse class="st30" cx="-112.2" cy="226.4" rx="28.7" ry="6.6"/>
				<ellipse class="st31" cx="-112.2" cy="226.4" rx="25.4" ry="5.8"/>
				<ellipse class="st32" cx="-112.2" cy="226.4" rx="22.1" ry="5.1"/>
				<ellipse class="st33" cx="-112.2" cy="226.4" rx="18.8" ry="4.3"/>
				<ellipse class="st34" cx="-112.2" cy="226.4" rx="15.5" ry="3.5"/>
				<ellipse class="st35" cx="-112.2" cy="226.4" rx="12.2" ry="2.8"/>
				<ellipse class="st4" cx="-112.2" cy="226.4" rx="8.9" ry="2"/>
			</g>
		</g>
		<g class="st13">
			<g class="st14">
				<ellipse class="st15" cx="374.2" cy="14.2" rx="78.3" ry="17.9"/>
				<ellipse class="st16" cx="374.2" cy="14.2" rx="75" ry="17.1"/>
				<ellipse class="st17" cx="374.2" cy="14.2" rx="71.7" ry="16.4"/>
				<ellipse class="st18" cx="374.2" cy="14.2" rx="68.4" ry="15.6"/>
				<ellipse class="st19" cx="374.2" cy="14.2" rx="65.1" ry="14.8"/>
				<ellipse class="st20" cx="374.2" cy="14.2" rx="61.8" ry="14.1"/>
				<ellipse class="st21" cx="374.2" cy="14.2" rx="58.5" ry="13.3"/>
				<ellipse class="st22" cx="374.2" cy="14.2" rx="55.2" ry="12.6"/>
				<ellipse class="st23" cx="374.2" cy="14.2" rx="51.9" ry="11.8"/>
				<ellipse class="st24" cx="374.2" cy="14.2" rx="48.6" ry="11.1"/>
				<ellipse class="st25" cx="374.2" cy="14.2" rx="45.2" ry="10.3"/>
				<ellipse class="st26" cx="374.2" cy="14.2" rx="41.9" ry="9.6"/>
				<ellipse class="st27" cx="374.2" cy="14.2" rx="38.6" ry="8.8"/>
				<ellipse class="st28" cx="374.2" cy="14.2" rx="35.3" ry="8.1"/>
				<ellipse class="st29" cx="374.2" cy="14.2" rx="32" ry="7.3"/>
				<ellipse class="st30" cx="374.2" cy="14.2" rx="28.7" ry="6.6"/>
				<ellipse class="st31" cx="374.2" cy="14.2" rx="25.4" ry="5.8"/>
				<ellipse class="st32" cx="374.2" cy="14.2" rx="22.1" ry="5.1"/>
				<ellipse class="st33" cx="374.2" cy="14.2" rx="18.8" ry="4.3"/>
				<ellipse class="st34" cx="374.2" cy="14.2" rx="15.5" ry="3.5"/>
				<ellipse class="st35" cx="374.2" cy="14.2" rx="12.2" ry="2.8"/>
				<ellipse class="st4" cx="374.2" cy="14.2" rx="8.9" ry="2"/>
			</g>
			<g class="st14">
				<ellipse class="st15" cx="136.8" cy="14.2" rx="78.3" ry="17.9"/>
				<ellipse class="st16" cx="136.8" cy="14.2" rx="75" ry="17.1"/>
				<ellipse class="st17" cx="136.8" cy="14.2" rx="71.7" ry="16.4"/>
				<ellipse class="st18" cx="136.8" cy="14.2" rx="68.4" ry="15.6"/>
				<ellipse class="st19" cx="136.8" cy="14.2" rx="65.1" ry="14.8"/>
				<ellipse class="st20" cx="136.8" cy="14.2" rx="61.8" ry="14.1"/>
				<ellipse class="st21" cx="136.8" cy="14.2" rx="58.5" ry="13.3"/>
				<ellipse class="st22" cx="136.8" cy="14.2" rx="55.2" ry="12.6"/>
				<ellipse class="st23" cx="136.8" cy="14.2" rx="51.9" ry="11.8"/>
				<ellipse class="st24" cx="136.8" cy="14.2" rx="48.6" ry="11.1"/>
				<ellipse class="st25" cx="136.8" cy="14.2" rx="45.2" ry="10.3"/>
				<ellipse class="st26" cx="136.8" cy="14.2" rx="41.9" ry="9.6"/>
				<ellipse class="st27" cx="136.8" cy="14.2" rx="38.6" ry="8.8"/>
				<ellipse class="st28" cx="136.8" cy="14.2" rx="35.3" ry="8.1"/>
				<ellipse class="st29" cx="136.8" cy="14.2" rx="32" ry="7.3"/>
				<ellipse class="st30" cx="136.8" cy="14.2" rx="28.7" ry="6.6"/>
				<ellipse class="st31" cx="136.8" cy="14.2" rx="25.4" ry="5.8"/>
				<ellipse class="st32" cx="136.8" cy="14.2" rx="22.1" ry="5.1"/>
				<ellipse class="st33" cx="136.8" cy="14.2" rx="18.8" ry="4.3"/>
				<ellipse class="st34" cx="136.8" cy="14.2" rx="15.5" ry="3.5"/>
				<ellipse class="st35" cx="136.8" cy="14.2" rx="12.2" ry="2.8"/>
				<ellipse class="st4" cx="136.8" cy="14.2" rx="8.9" ry="2"/>
			</g>
			<g class="st14">
				<ellipse class="st15" cx="-112.2" cy="14.2" rx="78.3" ry="17.9"/>
				<ellipse class="st16" cx="-112.2" cy="14.2" rx="75" ry="17.1"/>
				<ellipse class="st17" cx="-112.2" cy="14.2" rx="71.7" ry="16.4"/>
				<ellipse class="st18" cx="-112.2" cy="14.2" rx="68.4" ry="15.6"/>
				<ellipse class="st19" cx="-112.2" cy="14.2" rx="65.1" ry="14.8"/>
				<ellipse class="st20" cx="-112.2" cy="14.2" rx="61.8" ry="14.1"/>
				<ellipse class="st21" cx="-112.2" cy="14.2" rx="58.5" ry="13.3"/>
				<ellipse class="st22" cx="-112.2" cy="14.2" rx="55.2" ry="12.6"/>
				<ellipse class="st23" cx="-112.2" cy="14.2" rx="51.9" ry="11.8"/>
				<ellipse class="st24" cx="-112.2" cy="14.2" rx="48.6" ry="11.1"/>
				<ellipse class="st25" cx="-112.2" cy="14.2" rx="45.2" ry="10.3"/>
				<ellipse class="st26" cx="-112.2" cy="14.2" rx="41.9" ry="9.6"/>
				<ellipse class="st27" cx="-112.2" cy="14.2" rx="38.6" ry="8.8"/>
				<ellipse class="st28" cx="-112.2" cy="14.2" rx="35.3" ry="8.1"/>
				<ellipse class="st29" cx="-112.2" cy="14.2" rx="32" ry="7.3"/>
				<ellipse class="st30" cx="-112.2" cy="14.2" rx="28.7" ry="6.6"/>
				<ellipse class="st31" cx="-112.2" cy="14.2" rx="25.4" ry="5.8"/>
				<ellipse class="st32" cx="-112.2" cy="14.2" rx="22.1" ry="5.1"/>
				<ellipse class="st33" cx="-112.2" cy="14.2" rx="18.8" ry="4.3"/>
				<ellipse class="st34" cx="-112.2" cy="14.2" rx="15.5" ry="3.5"/>
				<ellipse class="st35" cx="-112.2" cy="14.2" rx="12.2" ry="2.8"/>
				<ellipse class="st4" cx="-112.2" cy="14.2" rx="8.9" ry="2"/>
			</g>
		</g>
		<g class="st36">
			<g class="st37">
				<ellipse class="st15" cx="374.2" cy="430.2" rx="78.3" ry="17.9"/>
				<ellipse class="st16" cx="374.2" cy="430.2" rx="75" ry="17.1"/>
				<ellipse class="st17" cx="374.2" cy="430.2" rx="71.7" ry="16.4"/>
				<ellipse class="st18" cx="374.2" cy="430.2" rx="68.4" ry="15.6"/>
				<ellipse class="st19" cx="374.2" cy="430.2" rx="65.1" ry="14.8"/>
				<ellipse class="st20" cx="374.2" cy="430.2" rx="61.8" ry="14.1"/>
				<ellipse class="st21" cx="374.2" cy="430.2" rx="58.5" ry="13.3"/>
				<ellipse class="st22" cx="374.2" cy="430.2" rx="55.2" ry="12.6"/>
				<ellipse class="st23" cx="374.2" cy="430.2" rx="51.9" ry="11.8"/>
				<ellipse class="st24" cx="374.2" cy="430.2" rx="48.6" ry="11.1"/>
				<ellipse class="st25" cx="374.2" cy="430.2" rx="45.2" ry="10.3"/>
				<ellipse class="st26" cx="374.2" cy="430.2" rx="41.9" ry="9.6"/>
				<ellipse class="st27" cx="374.2" cy="430.2" rx="38.6" ry="8.8"/>
				<ellipse class="st28" cx="374.2" cy="430.2" rx="35.3" ry="8.1"/>
				<ellipse class="st29" cx="374.2" cy="430.2" rx="32" ry="7.3"/>
				<ellipse class="st30" cx="374.2" cy="430.2" rx="28.7" ry="6.6"/>
				<ellipse class="st31" cx="374.2" cy="430.2" rx="25.4" ry="5.8"/>
				<ellipse class="st32" cx="374.2" cy="430.2" rx="22.1" ry="5.1"/>
				<ellipse class="st33" cx="374.2" cy="430.2" rx="18.8" ry="4.3"/>
				<ellipse class="st34" cx="374.2" cy="430.2" rx="15.5" ry="3.5"/>
				<ellipse class="st35" cx="374.2" cy="430.2" rx="12.2" ry="2.8"/>
				<ellipse class="st4" cx="374.2" cy="430.2" rx="8.9" ry="2"/>
			</g>
			<g class="st37">
				<ellipse class="st15" cx="136.8" cy="430.2" rx="78.3" ry="17.9"/>
				<ellipse class="st16" cx="136.8" cy="430.2" rx="75" ry="17.1"/>
				<ellipse class="st17" cx="136.8" cy="430.2" rx="71.7" ry="16.4"/>
				<ellipse class="st18" cx="136.8" cy="430.2" rx="68.4" ry="15.6"/>
				<ellipse class="st19" cx="136.8" cy="430.2" rx="65.1" ry="14.8"/>
				<ellipse class="st20" cx="136.8" cy="430.2" rx="61.8" ry="14.1"/>
				<ellipse class="st21" cx="136.8" cy="430.2" rx="58.5" ry="13.3"/>
				<ellipse class="st22" cx="136.8" cy="430.2" rx="55.2" ry="12.6"/>
				<ellipse class="st23" cx="136.8" cy="430.2" rx="51.9" ry="11.8"/>
				<ellipse class="st24" cx="136.8" cy="430.2" rx="48.6" ry="11.1"/>
				<ellipse class="st25" cx="136.8" cy="430.2" rx="45.2" ry="10.3"/>
				<ellipse class="st26" cx="136.8" cy="430.2" rx="41.9" ry="9.6"/>
				<ellipse class="st27" cx="136.8" cy="430.2" rx="38.6" ry="8.8"/>
				<ellipse class="st28" cx="136.8" cy="430.2" rx="35.3" ry="8.1"/>
				<ellipse class="st29" cx="136.8" cy="430.2" rx="32" ry="7.3"/>
				<ellipse class="st30" cx="136.8" cy="430.2" rx="28.7" ry="6.6"/>
				<ellipse class="st31" cx="136.8" cy="430.2" rx="25.4" ry="5.8"/>
				<ellipse class="st32" cx="136.8" cy="430.2" rx="22.1" ry="5.1"/>
				<ellipse class="st33" cx="136.8" cy="430.2" rx="18.8" ry="4.3"/>
				<ellipse class="st34" cx="136.8" cy="430.2" rx="15.5" ry="3.5"/>
				<ellipse class="st35" cx="136.8" cy="430.2" rx="12.2" ry="2.8"/>
				<ellipse class="st4" cx="136.8" cy="430.2" rx="8.9" ry="2"/>
			</g>
			<g class="st37">
				<ellipse class="st15" cx="-112.2" cy="430.2" rx="78.3" ry="17.9"/>
				<ellipse class="st16" cx="-112.2" cy="430.2" rx="75" ry="17.1"/>
				<ellipse class="st17" cx="-112.2" cy="430.2" rx="71.7" ry="16.4"/>
				<ellipse class="st18" cx="-112.2" cy="430.2" rx="68.4" ry="15.6"/>
				<ellipse class="st19" cx="-112.2" cy="430.2" rx="65.1" ry="14.8"/>
				<ellipse class="st20" cx="-112.2" cy="430.2" rx="61.8" ry="14.1"/>
				<ellipse class="st21" cx="-112.2" cy="430.2" rx="58.5" ry="13.3"/>
				<ellipse class="st22" cx="-112.2" cy="430.2" rx="55.2" ry="12.6"/>
				<ellipse class="st23" cx="-112.2" cy="430.2" rx="51.9" ry="11.8"/>
				<ellipse class="st24" cx="-112.2" cy="430.2" rx="48.6" ry="11.1"/>
				<ellipse class="st25" cx="-112.2" cy="430.2" rx="45.2" ry="10.3"/>
				<ellipse class="st26" cx="-112.2" cy="430.2" rx="41.9" ry="9.6"/>
				<ellipse class="st27" cx="-112.2" cy="430.2" rx="38.6" ry="8.8"/>
				<ellipse class="st28" cx="-112.2" cy="430.2" rx="35.3" ry="8.1"/>
				<ellipse class="st29" cx="-112.2" cy="430.2" rx="32" ry="7.3"/>
				<ellipse class="st30" cx="-112.2" cy="430.2" rx="28.7" ry="6.6"/>
				<ellipse class="st31" cx="-112.2" cy="430.2" rx="25.4" ry="5.8"/>
				<ellipse class="st32" cx="-112.2" cy="430.2" rx="22.1" ry="5.1"/>
				<ellipse class="st33" cx="-112.2" cy="430.2" rx="18.8" ry="4.3"/>
				<ellipse class="st34" cx="-112.2" cy="430.2" rx="15.5" ry="3.5"/>
				<ellipse class="st35" cx="-112.2" cy="430.2" rx="12.2" ry="2.8"/>
				<ellipse class="st4" cx="-112.2" cy="430.2" rx="8.9" ry="2"/>
			</g>
		</g>
		<g>
			<g>
				<g>
					<path class="st38" d="M110.7,15.7c0,0-7,5.7-8.3,14.5c0,0.3-0.1,0.6-0.1,0.8c0,0.2,0,0.3-0.1,0.5c0.3-0.1,0.6-0.1,1-0.2
						c0.6-0.1,1.3-0.3,2-0.4c0.7-0.1,1.5-0.3,2.3-0.4c0.8-0.1,1.6-0.2,2.5-0.4c0.9-0.1,1.8-0.3,2.7-0.4c0.9-0.1,1.9-0.2,2.9-0.3
						c0.5,0,1-0.1,1.5-0.1c0.5,0,1-0.1,1.6-0.1c1.1-0.1,2.1-0.1,3.2-0.2c2.2,0,4.4-0.1,6.7,0.1c2.3,0.1,4.6,0.3,6.9,0.5
						c2.3,0.3,4.6,0.6,6.8,1.1c2.2,0.4,4.4,0.9,6.5,1.4c1,0.3,2.1,0.6,3,0.9c0.5,0.1,1,0.3,1.5,0.4c0.5,0.2,1,0.3,1.4,0.5
						c0.9,0.3,1.8,0.6,2.7,0.9c0.9,0.3,1.7,0.7,2.5,1c0.8,0.3,1.6,0.6,2.3,0.9c0.7,0.3,1.4,0.6,2,0.9c0.6,0.3,1.2,0.5,1.8,0.8
						c0.5,0.3,1,0.5,1.5,0.7c1,0.5,1.8,0.9,2.3,1.2l14.3,6C181.5,42.8,143-6.7,110.7,15.7"/>
					<path class="st38" d="M132.4,59c3.8-0.9,8-2.2,12.5-4.1c32.4-13.4,39.5-8.4,39.5-8.4s-0.1-0.1-0.2-0.2c-3.7-1.5-9.7-4.1-14.2-6
						c0.3,0.1,0.4,0.2,0.4,0.2s-1.1-0.4-2.9-1.1c-0.5-0.2-1-0.4-1.5-0.5c-0.6-0.2-1.2-0.4-1.8-0.6c-0.7-0.2-1.4-0.4-2.1-0.6
						c-0.7-0.2-1.5-0.4-2.3-0.6c-0.8-0.2-1.7-0.4-2.5-0.6c-0.9-0.2-1.8-0.4-2.7-0.6c-0.5-0.1-0.9-0.2-1.4-0.3
						c-0.5-0.1-1-0.2-1.5-0.2c-1-0.2-2-0.3-3-0.5c-2.1-0.2-4.2-0.5-6.4-0.6c-2.2-0.2-4.4-0.2-6.6-0.2c-2.2,0.1-4.4,0.1-6.6,0.3
						c-2.2,0.1-4.3,0.4-6.3,0.7c-1,0.2-2,0.3-3,0.5c-0.5,0.1-1,0.2-1.4,0.2c-0.5,0.1-0.9,0.2-1.4,0.3c-0.9,0.2-1.8,0.4-2.7,0.6
						c-0.9,0.2-1.7,0.4-2.5,0.7c-0.8,0.2-1.5,0.4-2.2,0.6c-0.7,0.2-1.3,0.4-2,0.6c-0.6,0.2-1.2,0.4-1.7,0.6
						c-0.5,0.2-1.1,0.4-1.5,0.6c-0.5,0.2-1,0.4-1.4,0.5C105.6,53.1,118.5,62.2,132.4,59"/>
					<path class="st39" d="M130.9,34.3c0,0-1.3,0.4-3.5,1c-1.1,0.3-2.4,0.8-3.9,1.3c-1.5,0.5-3.2,1.1-5.1,1.7
						c-3.7,1.3-8,2.8-12.4,4.7c-1.1,0.5-2.2,0.9-3.4,1.4c-1.1,0.5-2.3,1-3.4,1.5c-2.3,1.1-4.6,2.2-6.9,3.4l-1.7,0.9l-1.7,0.9
						c-1.1,0.6-2.2,1.2-3.3,1.9c-0.5,0.3-1.1,0.6-1.6,1c-0.5,0.3-1.1,0.6-1.6,1c-1.1,0.6-2.1,1.3-3.1,2c-1,0.7-1.9,1.4-2.9,2
						c-1,0.7-1.8,1.4-2.7,2c-0.9,0.6-1.7,1.3-2.5,2c-0.8,0.6-1.6,1.3-2.3,1.9c-1.5,1.2-2.8,2.5-4,3.5c-1.1,1.1-2.1,2.1-3,2.9
						c-0.8,0.8-1.4,1.5-1.9,1.9c-0.4,0.4-0.7,0.7-0.7,0.7s0.2-0.3,0.4-0.8c0.3-0.5,0.7-1.4,1.3-2.4c0.6-1,1.4-2.2,2.3-3.5
						c1-1.3,2.1-2.8,3.4-4.3c1.3-1.5,2.8-3.1,4.5-4.7c0.8-0.8,1.7-1.6,2.6-2.4c0.9-0.8,1.9-1.6,2.9-2.4c2-1.5,4.1-3.1,6.3-4.5
						c1.1-0.7,2.2-1.4,3.4-2.1l1.7-1l1.8-0.9c2.4-1.2,4.8-2.3,7.2-3.4c2.4-1,4.9-1.9,7.2-2.7c2.4-0.8,4.7-1.4,6.9-2
						c2.2-0.5,4.3-1,6.3-1.3c3.9-0.7,7.2-1,9.5-1.2c1.2-0.1,2.1-0.1,2.7-0.1C130.5,34.3,130.9,34.3,130.9,34.3"/>
				</g>
				<path class="st38" d="M216.2,144.2c0,0-1.4-8.9-8.4-14.4c-0.2-0.2-0.4-0.3-0.7-0.5c-0.1-0.1-0.3-0.2-0.4-0.3
					c-0.1,0.3-0.2,0.6-0.3,1c-0.2,0.6-0.4,1.3-0.7,1.9c-0.2,0.7-0.5,1.4-0.8,2.2c-0.3,0.8-0.6,1.5-0.9,2.4c-0.3,0.8-0.7,1.7-1,2.5
					c-0.4,0.9-0.8,1.8-1.2,2.7c-0.2,0.5-0.4,0.9-0.6,1.4c-0.2,0.5-0.5,0.9-0.7,1.4c-0.5,0.9-1,1.9-1.5,2.9c-1.1,1.9-2.2,3.9-3.4,5.8
					c-1.2,2-2.6,3.8-3.9,5.7c-1.4,1.8-2.8,3.7-4.3,5.4c-1.4,1.7-3,3.3-4.5,4.9c-0.8,0.8-1.5,1.5-2.3,2.2c-0.4,0.4-0.7,0.7-1.1,1.1
					c-0.4,0.3-0.8,0.7-1.1,1c-0.7,0.6-1.5,1.3-2.1,1.9c-0.7,0.6-1.4,1.1-2.1,1.7c-0.7,0.5-1.3,1-1.9,1.5c-0.6,0.5-1.2,0.9-1.8,1.3
					c-0.6,0.4-1.1,0.8-1.6,1.1c-0.5,0.3-1,0.6-1.4,0.9c-1,0.6-1.7,1.1-2.1,1.4l-12.4,9.4C157.4,191.9,219.5,183.4,216.2,144.2"/>
				<path class="st38" d="M167.9,141.3c-1.1,3.8-2.1,8-2.7,12.9c-4.6,34.8-12.5,38.4-12.5,38.4s0.1,0,0.3,0
					c3.2-2.4,8.4-6.3,12.3-9.3c-0.2,0.2-0.4,0.2-0.4,0.2s0.9-0.7,2.4-2c0.4-0.3,0.8-0.7,1.2-1.1c0.4-0.4,0.9-0.8,1.4-1.3
					c0.5-0.5,1-1,1.6-1.5c0.6-0.5,1.1-1.1,1.7-1.7c0.6-0.6,1.2-1.2,1.8-1.9c0.6-0.7,1.2-1.4,1.9-2.1c0.3-0.4,0.6-0.7,1-1.1
					c0.3-0.4,0.6-0.8,0.9-1.2c0.6-0.8,1.3-1.6,1.9-2.4c1.2-1.7,2.6-3.4,3.7-5.2c1.3-1.8,2.3-3.7,3.5-5.6c1-2,2.1-3.9,3-5.8
					c1-1.9,1.8-3.9,2.6-5.8c0.4-1,0.7-1.9,1.1-2.8c0.2-0.5,0.3-0.9,0.5-1.4c0.1-0.5,0.3-0.9,0.4-1.4c0.3-0.9,0.6-1.8,0.8-2.6
					c0.3-0.8,0.5-1.7,0.7-2.5c0.2-0.8,0.4-1.5,0.6-2.3c0.2-0.7,0.3-1.4,0.4-2c0.1-0.6,0.3-1.2,0.4-1.8c0.1-0.6,0.2-1.1,0.3-1.6
					c0.1-0.6,0.2-1.1,0.3-1.5C186.4,121.1,172.1,127.7,167.9,141.3"/>
				<path class="st39" d="M190,152.4c0,0,0.3-1.3,0.8-3.5c0.3-1.1,0.5-2.5,0.9-4c0.3-1.6,0.7-3.3,1.1-5.2c0.8-3.8,1.5-8.3,2.2-13.1
					c0.2-1.2,0.3-2.4,0.5-3.7c0.2-1.2,0.3-2.5,0.4-3.7c0.2-2.5,0.4-5.1,0.5-7.6l0.1-1.9l0-1.9c0-1.3,0-2.5,0-3.8c0-0.6,0-1.3,0-1.9
					c0-0.6,0-1.2,0-1.9c0-1.2-0.1-2.5-0.2-3.7c-0.1-1.2-0.2-2.4-0.3-3.5c-0.1-1.2-0.3-2.3-0.4-3.4c-0.1-1.1-0.3-2.2-0.4-3.2
					c-0.1-1-0.3-2-0.5-3c-0.3-1.9-0.7-3.6-1.1-5.2c-0.4-1.5-0.7-2.9-1-4c-0.3-1.1-0.6-2-0.7-2.6c-0.2-0.6-0.2-0.9-0.2-0.9
					s0.2,0.3,0.5,0.8c0.3,0.5,0.8,1.3,1.4,2.3c0.5,1,1.2,2.3,1.9,3.8c0.6,1.5,1.4,3.2,2,5.1c0.7,1.9,1.3,4,1.8,6.2
					c0.3,1.1,0.5,2.3,0.8,3.5c0.2,1.2,0.4,2.4,0.6,3.7c0.3,2.5,0.6,5.1,0.7,7.7c0,1.3,0.1,2.7,0.1,4l0,2l-0.1,2
					c-0.1,2.7-0.4,5.3-0.7,8c-0.4,2.6-0.8,5.2-1.3,7.6c-0.5,2.4-1.1,4.8-1.7,7c-0.7,2.2-1.3,4.3-2,6.1c-1.4,3.8-2.7,6.8-3.8,8.8
					c-0.5,1-1,1.8-1.3,2.4C190.2,152.1,190,152.4,190,152.4"/>
				<path class="st38" d="M52.2,171.2c0,0,8.4,3.3,16.7-0.1c0.3-0.1,0.5-0.2,0.8-0.3c0.2-0.1,0.3-0.1,0.5-0.2
					c-0.2-0.2-0.4-0.5-0.7-0.7c-0.4-0.5-0.9-1-1.4-1.5c-0.5-0.6-1-1.1-1.5-1.8c-0.5-0.6-1-1.3-1.6-2c-0.5-0.7-1.1-1.4-1.7-2.2
					c-0.5-0.8-1.1-1.6-1.7-2.4c-0.3-0.4-0.6-0.8-0.9-1.2c-0.3-0.4-0.6-0.9-0.8-1.3c-0.6-0.9-1.2-1.8-1.7-2.7
					c-1.1-1.9-2.3-3.8-3.3-5.9c-1.1-2-2-4.1-3-6.2c-0.9-2.2-1.8-4.3-2.5-6.4c-0.8-2.1-1.4-4.3-2-6.3c-0.3-1-0.5-2.1-0.8-3.1
					c-0.1-0.5-0.2-1-0.4-1.5c-0.1-0.5-0.2-1-0.3-1.5c-0.2-1-0.4-1.9-0.6-2.8c-0.2-0.9-0.3-1.8-0.4-2.6c-0.1-0.8-0.3-1.7-0.4-2.4
					c-0.1-0.8-0.2-1.5-0.2-2.2c-0.1-0.7-0.1-1.3-0.2-1.9c0-0.6-0.1-1.1-0.1-1.6c-0.1-1.2-0.1-2-0.1-2.5L42,92.3
					C40.3,96.4,16.6,154.4,52.2,171.2"/>
				<path class="st38" d="M78.9,130.9c-2.7-2.9-5.9-5.8-9.8-8.8c-27.8-21.4-27-30.1-27-30.1s0,0.1-0.1,0.2
					c0.5,3.9,1.3,10.4,1.9,15.3c0-0.3,0-0.4,0-0.4s0.2,1.1,0.5,3.1c0.1,0.5,0.2,1,0.3,1.6c0.1,0.6,0.3,1.2,0.4,1.9
					c0.2,0.7,0.3,1.4,0.5,2.1c0.2,0.7,0.4,1.5,0.6,2.3c0.2,0.8,0.4,1.7,0.7,2.5c0.3,0.9,0.6,1.8,0.9,2.7c0.1,0.5,0.3,0.9,0.5,1.4
					c0.2,0.5,0.4,0.9,0.5,1.4c0.4,0.9,0.7,1.9,1.1,2.9c0.8,1.9,1.7,3.9,2.7,5.9c0.9,2,2,3.9,3.1,5.8c1.2,1.9,2.3,3.8,3.5,5.5
					c1.2,1.8,2.5,3.5,3.7,5.1c0.6,0.8,1.3,1.6,1.9,2.3c0.3,0.4,0.6,0.8,0.9,1.1c0.3,0.4,0.6,0.7,1,1.1c0.6,0.7,1.2,1.4,1.8,2
					c0.6,0.6,1.2,1.2,1.8,1.8c0.6,0.6,1.1,1.1,1.7,1.6c0.5,0.5,1.1,0.9,1.5,1.4c0.5,0.4,0.9,0.8,1.3,1.2c0.4,0.4,0.9,0.7,1.2,1
					c0.4,0.4,0.8,0.7,1.2,1C87.1,157,88.6,141.3,78.9,130.9"/>
				<path class="st39" d="M58.2,144.5c0,0,1,0.9,2.6,2.5c0.8,0.8,1.9,1.7,3.1,2.8c1.2,1.1,2.5,2.3,4,3.5c2.9,2.6,6.4,5.5,10.2,8.4
					c1,0.7,1.9,1.5,2.9,2.2c1,0.8,2,1.5,3,2.2c2.1,1.4,4.2,2.9,6.3,4.3l1.6,1l1.6,1c1.1,0.7,2.2,1.3,3.3,1.9
					c0.5,0.3,1.1,0.6,1.6,0.9c0.5,0.3,1.1,0.6,1.6,0.9c1.1,0.6,2.2,1.1,3.3,1.7c1.1,0.6,2.2,1,3.2,1.5c1,0.5,2.1,0.9,3.1,1.4
					c1,0.5,2,0.8,3,1.2c1,0.4,1.9,0.7,2.8,1.1c1.8,0.7,3.5,1.2,5,1.7c1.5,0.4,2.9,0.8,4,1.1c1.1,0.3,2,0.5,2.6,0.7
					c0.6,0.2,0.9,0.2,0.9,0.2s-0.3,0-1,0c-0.6,0-1.5,0-2.7,0c-1.2,0-2.6-0.1-4.2-0.2c-1.6-0.2-3.4-0.4-5.4-0.8
					c-2-0.4-4.1-0.9-6.3-1.5c-1.1-0.3-2.2-0.7-3.4-1.1c-1.1-0.4-2.3-0.8-3.5-1.3c-2.3-1-4.7-2-7-3.3c-1.2-0.6-2.4-1.2-3.5-1.9
					l-1.7-1l-1.7-1.1c-2.3-1.5-4.4-3-6.5-4.6c-2.1-1.6-4.1-3.3-5.9-5c-1.9-1.7-3.6-3.4-5.2-5c-1.6-1.7-3-3.3-4.3-4.8
					c-2.6-3-4.5-5.8-5.8-7.7c-0.6-1-1.1-1.8-1.4-2.3C58.4,144.8,58.2,144.5,58.2,144.5"/>
			</g>
			<g>
				<g>
					<path class="st6" d="M99.8,98.1H68.5c1.4,6.4,6.3,10.4,12.9,10.4c4.5,0,8.6-1.7,11.7-4.8l4.8,5.1c-4.1,4.4-10,7-17.1,7
						c-12.8,0-21.2-8.5-21.2-21c0-12.5,8.6-21,21-21.1C95,73.6,100.9,83.1,99.8,98.1z M92,91.5c-0.3-6.7-4.8-10.7-11.5-10.7
						c-6.5,0-11.1,4.1-12.2,10.7H92z"/>
					<path class="st6" d="M143.3,80.4l-4.9,5.8c-2.9-3-6.9-4.8-11.8-4.7c-7.2,0-12.3,5.4-12.3,13.2c0,7.9,5.1,13.2,12.3,13.2
						c5.2,0,9.4-1.7,12.2-5l5,5c-3.7,4.9-9.7,7.7-17.6,7.7c-12.3,0-20.9-8.5-20.9-21c0-12.5,8.6-21.1,20.9-21.1
						C133.6,73.6,139.5,76,143.3,80.4z"/>
					<path class="st6" d="M190.8,94.6c0,12.5-8.8,21-21.6,21c-12.9,0-21.7-8.6-21.7-21c0-12.5,8.8-21,21.7-21
						C182,73.6,190.8,82.1,190.8,94.6z M156.5,94.7c0,8,5.2,13.5,12.7,13.5c7.4,0,12.6-5.5,12.6-13.5c0-7.9-5.2-13.4-12.6-13.4
						C161.7,81.3,156.5,86.8,156.5,94.7z"/>
				</g>
				<g>
					<path class="st6" d="M87.2,123.5c1.2,0,2.2,0.5,2.9,1.4c0.7,1,1,2.3,1,4c0,1.7-0.4,3.1-1.1,4c-0.7,0.9-1.7,1.4-2.9,1.4
						c-1.2,0-2.2-0.4-2.9-1.3h-0.2l-0.5,1.1h-2.2v-14.5h2.8v3.4c0,0.4,0,1.1-0.1,2.1h0.1C84.9,124,85.9,123.5,87.2,123.5z
						 M86.3,125.8c-0.7,0-1.2,0.2-1.5,0.6c-0.3,0.4-0.5,1.1-0.5,2.1v0.3c0,1.1,0.2,1.9,0.5,2.4c0.3,0.5,0.9,0.7,1.6,0.7
						c0.6,0,1.1-0.3,1.4-0.8c0.3-0.5,0.5-1.3,0.5-2.3c0-1-0.2-1.8-0.5-2.3C87.4,126.1,86.9,125.8,86.3,125.8z"/>
					<path class="st6" d="M105.9,134.2l-0.6-1.4h-0.1c-0.5,0.6-1,1-1.5,1.3c-0.5,0.2-1.2,0.4-2,0.4c-1,0-1.8-0.3-2.4-0.9
						c-0.6-0.6-0.9-1.4-0.9-2.4c0-1.1,0.4-1.9,1.2-2.5s1.9-0.8,3.5-0.9l1.8-0.1v-0.5c0-1.1-0.5-1.6-1.6-1.6c-0.8,0-1.8,0.3-2.9,0.8
						l-0.9-1.9c1.2-0.6,2.5-0.9,4-0.9c1.4,0,2.5,0.3,3.2,0.9c0.7,0.6,1.1,1.5,1.1,2.8v7H105.9z M105.1,129.3l-1.1,0
						c-0.8,0-1.4,0.2-1.8,0.4s-0.6,0.7-0.6,1.3c0,0.8,0.5,1.2,1.4,1.2c0.7,0,1.2-0.2,1.6-0.6s0.6-0.9,0.6-1.5V129.3z"/>
					<path class="st6" d="M123.8,131.1c0,1.1-0.4,1.9-1.1,2.4s-1.9,0.8-3.3,0.8c-0.8,0-1.4-0.1-1.9-0.2c-0.5-0.1-1-0.3-1.5-0.5v-2.4
						c0.5,0.2,1.1,0.5,1.8,0.6c0.7,0.2,1.2,0.3,1.8,0.3c1,0,1.6-0.3,1.6-0.9c0-0.2-0.1-0.4-0.2-0.5s-0.4-0.3-0.7-0.5
						c-0.3-0.2-0.8-0.4-1.3-0.6c-0.8-0.3-1.4-0.6-1.8-0.9c-0.4-0.3-0.7-0.6-0.8-1s-0.3-0.8-0.3-1.4c0-0.9,0.4-1.6,1.1-2.2
						c0.7-0.5,1.7-0.8,3.1-0.8c1.3,0,2.5,0.3,3.7,0.8l-0.9,2.1c-0.5-0.2-1-0.4-1.5-0.6c-0.5-0.1-0.9-0.2-1.4-0.2
						c-0.8,0-1.3,0.2-1.3,0.7c0,0.3,0.1,0.5,0.4,0.7c0.3,0.2,0.9,0.5,1.8,0.8c0.8,0.3,1.4,0.6,1.8,0.9c0.4,0.3,0.7,0.6,0.8,1
						C123.8,130.1,123.8,130.6,123.8,131.1z"/>
					<path class="st6" d="M134.5,128.5l1.2-1.6l2.9-3.2h3.2l-4.1,4.5l4.4,5.9h-3.3l-3-4.2l-1.2,1v3.3h-2.8v-14.5h2.8v6.5
						L134.5,128.5L134.5,128.5z"/>
					<path class="st6" d="M154.1,134.4c-1.7,0-3-0.5-3.9-1.4c-0.9-0.9-1.4-2.2-1.4-3.9c0-1.8,0.4-3.1,1.3-4.1s2.1-1.4,3.6-1.4
						c1.5,0,2.6,0.4,3.4,1.3s1.2,2,1.2,3.5v1.4h-6.7c0,0.8,0.3,1.4,0.7,1.9c0.4,0.5,1.1,0.7,1.9,0.7c0.6,0,1.2-0.1,1.8-0.2
						s1.1-0.3,1.8-0.6v2.2c-0.5,0.2-1,0.4-1.6,0.6C155.6,134.3,154.9,134.4,154.1,134.4z M153.7,125.6c-0.6,0-1.1,0.2-1.4,0.6
						c-0.3,0.4-0.5,0.9-0.6,1.6h4c0-0.7-0.2-1.2-0.6-1.6C154.8,125.7,154.3,125.6,153.7,125.6z"/>
					<path class="st6" d="M170.8,132.1c0.5,0,1.1-0.1,1.8-0.3v2.1c-0.7,0.3-1.6,0.5-2.6,0.5c-1.1,0-2-0.3-2.5-0.9
						c-0.5-0.6-0.8-1.4-0.8-2.6v-5h-1.4v-1.2l1.6-1l0.8-2.2h1.8v2.2h2.9v2.1h-2.9v5c0,0.4,0.1,0.7,0.3,0.9
						C170.2,132,170.5,132.1,170.8,132.1z"/>
				</g>
			</g>
		</g>
	</g>
	<g>
	</g>
	<g>
	</g>
	<g>
	</g>
	<g>
	</g>
	<g>
	</g>
	<g>
	</g>
	<g>
	</g>
	<g>
	</g>
	<g>
	</g>
	<g>
	</g>
	<g>
	</g>
	<g>
	</g>
	<g>
	</g>
	<g>
	</g>
	<g>
	</g>
	<g>
	</g>
	<g>
	</g>
	<g>
	</g>
</g>
</svg>
